<?xml version="1.0" encoding="utf-8"?>
<!-- Generator: Adobe Illustrator 16.0.0, SVG Export Plug-In . SVG Version: 6.00 Build 0)  -->
<!DOCTYPE svg PUBLIC "-//W3C//DTD SVG 1.1//EN" "http://www.w3.org/Graphics/SVG/1.1/DTD/svg11.dtd">
<svg version="1.1" id="Layer_1" xmlns="http://www.w3.org/2000/svg" xmlns:xlink="http://www.w3.org/1999/xlink" x="0px" y="0px"
	 width="390.141px" height="488.732px" viewBox="0 0 390.141 488.732" enable-background="new 0 0 390.141 488.732"
	 xml:space="preserve">
<g>
	<path fill-rule="evenodd" clip-rule="evenodd" fill="#FFFFFF" d="M198.667,403.588c-0.124,0.724-0.213,1.206-0.287,1.69
		c-0.147,0.964-0.269,1.931-0.434,2.892c-0.115,0.673-0.218,1.361-0.448,1.998c-0.424,1.172-0.969,1.39-2.173,1.07
		c-1.883-0.502-3.297-1.678-4.532-3.111c-0.256-0.297-0.453-0.643-0.705-0.943c-0.669-0.799-1.311-1.037-2.2-0.526
		c-1.307,0.752-2.686,1.149-4.153,1.384c-0.515,0.082-0.989,0.408-1.484,0.615c-0.361,0.15-0.715,0.354-1.092,0.418
		c-0.808,0.137-1.228-0.395-0.905-1.158c0.741-1.753,1.505-3.498,2.292-5.23c0.421-0.929,0.809-1.078,1.754-0.791
		c0.188,0.058,0.385,0.115,0.543,0.223c2.811,1.9,5.991,1.547,9.103,1.409c0.984-0.044,1.94-0.587,2.922-0.857
		c0.439-0.121,1.026-0.327,1.333-0.142C198.513,402.719,198.569,403.34,198.667,403.588z"/>
	<path fill-rule="evenodd" clip-rule="evenodd" fill="#808080" d="M269.263,384.641c0.69,0.059,1.394,0.049,2.066,0.193
		c1.105,0.235,1.452,1.095,0.7,1.918c-1.945,2.127-3.412,4.7-5.909,6.322c-0.643,0.418-1.265,0.756-2.032,0.724
		c-0.293-0.011-0.666-0.034-0.86-0.21c-1.202-1.078-2.224-2.373-1.122-4.032c0.238-0.357,0.551-0.663,0.807-1.011
		c0.374-0.512,0.731-1.037,1.09-1.561c0.192-0.281,0.318-0.639,0.568-0.846C265.672,385.223,267.817,384.573,269.263,384.641z"/>
	<path fill-rule="evenodd" clip-rule="evenodd" fill="#808080" d="M286.135,387.015c0.757,0.024,1.156,0.521,1.148,1.429
		c-0.008,0.969-0.518,1.523-1.389,1.514c-1.066-0.014-1.832-0.651-1.779-1.486C284.168,387.647,285.091,386.981,286.135,387.015z"/>
	<path fill-rule="evenodd" clip-rule="evenodd" fill="#808080" d="M341.748,378.528c-0.3,0.158-0.532,0.369-0.63,0.318
		c-0.215-0.114-0.363-0.357-0.539-0.549c0.172-0.094,0.366-0.291,0.508-0.26C341.292,378.086,341.458,378.301,341.748,378.528z"/>
	<path fill-rule="evenodd" clip-rule="evenodd" fill="#808080" stroke="#FFFFFF" stroke-width="0.8728" stroke-miterlimit="10" d="
		M330.59,381.299c3.811-0.119,8.941-0.277,14.072-0.441c1.765-0.059,2.225-0.514,2.379-2.242c0.076-0.865,0.182-1.729,0.317-2.586
		c0.06-0.382,0.19-0.763,0.35-1.116c0.222-0.491,0.538-0.937,1.171-0.851c0.57,0.076,0.719,0.564,0.861,1.031
		c0.389,1.289,0.775,2.577,1.17,3.866c0.469,1.534,1.242,1.996,2.837,1.786c0.946-0.124,1.901-0.205,2.856-0.234
		c5.305-0.164,10.611-0.305,15.917-0.459c0.608-0.018,1.216-0.064,1.823-0.097c0.664-0.034,1.092,0.286,1.24,0.917
		c0.139,0.592,0.243,1.194,0.311,1.798c0.136,1.195-0.338,1.695-1.555,1.662c-1.607-0.044-3.218-0.073-4.824-0.165
		c-4.992-0.279-9.984-0.6-14.977-0.869c-0.724-0.039-1.465,0.078-2.182,0.213c-0.315,0.058-0.638,0.295-0.871,0.535
		c-0.525,0.54-0.33,1.229,0.41,1.377c0.545,0.111,1.125,0.042,1.688,0.091c0.855,0.075,1.293,0.487,1.298,1.169
		c0.005,0.73-0.486,1.287-1.321,1.323c-1.607,0.066-3.219,0.036-4.828,0.094c-0.909,0.033-1.826,0.104-2.721,0.262
		c-1.078,0.188-1.477,0.665-1.585,1.765c-0.056,0.562-0.054,1.133-0.01,1.695c0.233,2.992,0.515,5.98,0.729,8.975
		c0.208,2.906,0.344,5.816,0.53,8.727c0.196,3.035,0.41,6.07,0.626,9.105c0.051,0.717,0.078,1.439-0.65,1.842
		c-0.758,0.422-1.578,0.495-2.382,0.111c-0.53-0.252-0.667-0.758-0.706-1.307c-0.219-3.08-0.477-6.158-0.662-9.241
		c-0.331-5.514-0.616-11.032-0.934-16.547c-0.051-0.866-0.162-1.731-0.262-2.595c-0.115-1-0.494-1.404-1.503-1.445
		c-1.216-0.051-2.436-0.021-3.654-0.019c-0.7,0.001-1.234,0.306-1.671,0.86c-0.319,0.408-0.691,0.795-1.105,1.102
		c-0.334,0.247-0.758,0.479-1.16,0.517c-1.725,0.16-3.456,0.312-5.188,0.351c-5.133,0.112-10.266,0.168-15.398,0.248
		c-1.229,0.02-2.301-0.34-3.21-1.197c-0.536-0.506-1.087-1.02-1.707-1.406c-0.577-0.359-1.232-0.668-1.894-0.799
		c-0.93-0.185-1.496,0.406-1.457,1.35c0.009,0.215,0.035,0.448,0.128,0.636c1.067,2.144,0.968,4.479,1.104,6.771
		c0.076,1.257-0.002,2.523,0.029,3.783c0.024,0.967-0.208,1.789-0.961,2.455c-0.615,0.545-1.162,1.168-1.765,1.729
		c-0.503,0.469-1.059,0.459-1.69,0.189c-0.832-0.356-1.691-0.67-2.566-0.907c-2.037-0.552-3.389-2.101-3.731-4.207
		c-0.159-0.973-0.442-1.942-0.802-2.862c-0.312-0.796-0.968-1.185-1.891-1.029c-0.423,0.07-0.866,0.018-1.301,0.016
		c-1.221-0.01-1.763,0.344-2.189,1.451c-0.561,1.453-1.064,2.932-1.691,4.355c-0.471,1.069-1.32,1.857-2.471,2.152
		c-0.848,0.218-1.497,0.65-2.076,1.268c-0.981,1.047-2.076,2.004-2.95,3.131c-1.003,1.297-1.853,2.719-2.702,4.127
		c-0.582,0.965-1.062,1.992-1.567,3.004c-0.586,1.172-1.444,1.763-2.824,1.607c-2.368-0.267-4.632-0.018-6.854,1.05
		c-2.715,1.302-5.652,1.919-8.68,2.06c-0.691,0.03-1.387,0.152-2.061,0.316c-1.816,0.447-3.639,0.4-5.438,0.012
		c-4.813-1.042-9.669-1.029-14.551-0.767c-2.081,0.112-4.173,0.089-6.259,0.083c-5.35-0.017-10.701-0.109-16.05-0.055
		c-1.366,0.014-2.727,0.463-4.091,0.709c-0.896,0.162-1.792,0.324-2.691,0.476c-1.329,0.224-2.686,0.333-3.98,0.679
		c-1.619,0.436-3.244,0.611-4.903,0.592c-3.219-0.035-6.439-0.039-9.656-0.145c-1.294-0.043-2.581-0.312-3.87-0.484
		c-1.032-0.139-2.06-0.373-3.095-0.416c-2.869-0.119-5.742-0.133-8.611-0.248c-0.856-0.035-1.732-0.178-2.548-0.433
		c-1.592-0.497-3.193-0.834-4.866-0.835c-1.088-0.002-2.18-0.006-3.26-0.113c-0.857-0.086-1.703-0.313-2.546-0.507
		c-0.677-0.155-1.343-0.356-2.016-0.53c-0.378-0.1-0.817-0.092-1.132-0.288c-2.123-1.323-4.712-1.175-6.919-2.231
		c-0.78-0.373-1.614-0.633-2.426-0.936c-0.447-0.168-0.89-0.4-1.353-0.463c-1.604-0.211-3.155-0.598-4.665-1.18
		c-0.849-0.328-1.728-0.58-2.581-0.901c-1.868-0.7-3.699-0.96-5.505,0.212c-0.39,0.253-0.881,0.394-1.345,0.479
		c-1.914,0.356-3.461,1.342-4.813,2.69c-0.185,0.185-0.379,0.359-0.558,0.549c-1.949,2.062-4.398,2.092-6.906,1.59
		c-1.423-0.287-1.794-1.356-1.217-2.67c0.61-1.387,1.269-2.777,1.654-4.232c0.43-1.634,1.294-2.949,2.429-4.096
		c2.571-2.596,5.2-5.133,7.813-7.686c1.345-1.314,3.049-1.973,4.789-2.553c0.877-0.293,1.626,0.121,2.346,0.525
		c1.441,0.812,2.653,1.766,2.797,3.64c0.098,1.286,0.614,1.739,1.932,1.88c3.112,0.335,6.225,0.742,9.36,0.166
		c1.35-0.25,2.605-0.088,3.89,0.611c1.934,1.049,3.99,1.887,6.033,2.717c1.251,0.509,2.55,0.539,3.746-0.279
		c0.215-0.146,0.437-0.298,0.678-0.387c1.624-0.597,3.255-1.176,4.883-1.761c0.205-0.073,0.428-0.114,0.611-0.226
		c1.325-0.801,2.797-0.986,4.283-0.889c2.322,0.149,4.18-0.865,6.037-2.062c1.748-1.127,3.559-2.171,5.399-3.142
		c1.916-1.009,3.908-1.874,5.853-2.829c0.937-0.461,1.356-1.319,1.553-2.293c0.594-2.934,1.229-5.859,1.745-8.807
		c0.441-2.521,2.037-4.153,3.953-5.6c2.744-2.07,5.71-3.783,8.697-5.467c0.302-0.171,0.579-0.386,0.868-0.576
		c1.37-0.91,2.745-1.715,4.373-2.219c1.715-0.531,3.38-1.025,5.182-1.119c1.155-0.059,1.928-0.932,2.726-1.662
		c0.383-0.35,0.753-0.736,1.037-1.166c0.865-1.305,2.168-1.551,3.557-1.449c3.295,0.238,6.595,0.474,9.875,0.854
		c1.806,0.209,3.562-0.014,5.331-0.186c1.106-0.109,1.396-1.011,0.67-1.887c-0.331-0.4-0.734-0.742-1.112-1.102
		c-0.609-0.582-0.693-1.23-0.402-2.02c0.564-1.526,1.352-2.936,2.348-4.195c1.672-2.111,3.383-4.199,5.204-6.18
		c0.911-0.992,2.192-1.543,3.556-1.792c0.898-0.165,1.797-0.335,2.689-0.521c1.386-0.289,2.754-0.323,4.131,0.082
		c0.664,0.196,1.375,0.224,2.044,0.406c0.786,0.217,1.575,0.462,2.315,0.797c1.02,0.463,2.018,0.986,2.989,1.545
		c2.507,1.443,4.603,3.389,6.635,5.426c0.817,0.82,1.808,1.475,2.755,2.155c0.48,0.345,0.914,0.144,1.117-0.417
		c0.465-1.27-0.334-3.531-1.486-4.254c-0.552-0.346-1.094-0.711-1.621-1.094c-0.414-0.303-0.685-0.703-0.443-1.234
		c0.217-0.48,0.67-0.562,1.111-0.452c1.262,0.312,2.527,0.622,3.764,1.017c1.324,0.422,1.816,1.52,1.694,2.771
		c-0.103,1.061-0.379,2.152-0.826,3.117c-0.433,0.935-0.774,1.842-0.717,2.864c0.062,1.1-0.221,2.052-0.972,2.878
		c-0.289,0.316-0.609,0.703-0.681,1.1c-0.291,1.598-1.491,2.408-2.697,3.162c-1.451,0.904-2.243,2.146-2.362,3.828
		c-0.09,1.281-0.525,2.311-1.646,3.094c-0.472,0.33-0.757,1.047-0.931,1.645c-0.217,0.739-0.223,1.537-0.33,2.31
		c-0.072,0.511,0.145,0.86,0.614,1.009c0.411,0.131,0.843,0.238,1.271,0.263c0.518,0.03,1.043-0.017,1.562-0.067
		c2.174-0.214,2.146-0.233,2.579-2.328c0.128-0.617,0.438-1.23,0.799-1.754c0.638-0.924,1.363-1.212,2.381-0.754
		c1.668,0.75,3.457,0.846,5.193,1.215c0.898,0.19,1.314,0,1.488-0.602c0.188-0.655-0.113-1.284-0.827-1.561
		c-0.482-0.188-1.001-0.299-1.513-0.391c-0.933-0.17-1.449-0.711-1.619-1.632c-0.268-1.447-0.069-2.868,0.273-4.267
		c0.186-0.756,0.68-1.02,1.395-0.684c1.143,0.537,2.28,0.363,3.454,0.279c2.603-0.188,5.21-0.316,7.814-0.464
		c1.39-0.079,2.78-0.13,4.168-0.229c0.966-0.067,1.819,0.065,2.417,0.935c0.316,0.461,0.768,0.701,1.342,0.658
		c0.74-0.053,1.422,0.056,1.736,0.838c0.357,0.887,0.385,1.781-0.138,2.63c-0.089,0.146-0.196,0.304-0.335,0.397
		c-1.332,0.889-1.088,2.262-1.07,3.544c0.01,0.655,0.457,1.034,1.092,1.091c0.426,0.036,0.863-0.029,1.293-0.08
		c0.776-0.092,1.555-0.175,2.323-0.318c1.453-0.271,2.608,0.117,3.61,1.252c0.902,1.023,1.2,0.973,2.379,0.423
		c0.455-0.214,0.985-0.341,1.488-0.368c2.214-0.115,4.43-0.178,6.646-0.26c0.087-0.004,0.175-0.006,0.261-0.014
		c1.188-0.102,1.781-0.552,1.886-1.43c0.099-0.831-0.284-1.32-1.462-1.671c-1.455-0.434-2.934-0.786-4.395-1.196
		c-1.421-0.396-2.834-0.814-4.248-1.235c-0.205-0.062-0.408-0.162-0.58-0.288c-0.453-0.336-0.738-0.772-0.5-1.349
		c0.215-0.514,0.68-0.651,1.189-0.604c0.255,0.023,0.503,0.125,0.754,0.197c0.914,0.264,1.824,0.544,2.742,0.793
		c2.181,0.593,4.381,1.119,6.543,1.777c1.652,0.502,1.956,1.431,1.637,3.107c-0.433,2.27-1.711,3.393-3.959,3.617
		c-1.295,0.129-2.576,0.388-3.864,0.588c-0.214,0.033-0.468,0.008-0.634,0.117c-0.23,0.151-0.537,0.398-0.543,0.613
		c-0.007,0.188,0.334,0.483,0.572,0.553c0.364,0.105,0.773,0.076,1.164,0.068C319.09,381.508,324.18,381.417,330.59,381.299z
		 M274.043,390.885c-1.445-0.068-3.59,0.582-4.691,1.499c-0.25,0.208-0.377,0.563-0.568,0.845c-0.359,0.523-0.717,1.05-1.091,1.562
		c-0.255,0.348-0.567,0.653-0.806,1.011c-1.102,1.658-0.081,2.954,1.121,4.033c0.195,0.174,0.567,0.197,0.861,0.208
		c0.768,0.032,1.389-0.306,2.031-0.722c2.498-1.624,3.965-4.196,5.909-6.324c0.753-0.822,0.405-1.682-0.7-1.918
		C275.438,390.934,274.735,390.946,274.043,390.885z M290.917,393.259c-1.045-0.034-1.967,0.633-2.02,1.458
		c-0.053,0.834,0.713,1.472,1.779,1.484c0.87,0.01,1.381-0.545,1.389-1.514C292.073,393.782,291.672,393.286,290.917,393.259z
		 M346.528,384.772c-0.289-0.227-0.455-0.441-0.66-0.488c-0.142-0.033-0.337,0.164-0.508,0.258c0.176,0.191,0.324,0.435,0.539,0.55
		C345.996,385.141,346.229,384.932,346.528,384.772z"/>
</g>
<g>
	<g>
		<g>
			<path fill="#FFFFFF" d="M132.885,388.944c-0.02-0.002,0.036-0.663,0.125-1.469s0.358-3.244,0.323-3.641
				c-0.036-0.396-0.885-1.193-1.001-1.263c-0.117-0.069-1.066-0.697-1.837-1.269l-2.731-2.607c-0.552-0.785-1.306-1.941-1.676-2.568
				s-1.433-2.637-1.552-3.066s0.605-2.281,1.082-3.115l1.546-2.706c0.5-0.819,1.393-2.11,1.982-2.867l5.055-6.369
				c0.657-0.7,1.763-1.814,2.458-2.477l3.76-3.589c0.734-0.619,1.597-1.288,1.918-1.487s1.573-0.702,2.022-0.771
				c0.449-0.069,1.617,0.664,1.77,0.817c0,0,0,0,0.135,0.143c0.427,0.449,0.427,0.449,0.427,0.449
				c0.618,0.034,1.292-0.14,1.497-0.385c0.205-0.245,0.319-1.845,0.279-2.804c0,0-0.009-0.223-0.092-1.201
				c-0.137-1.607,1.591-2.812,1.591-2.812c0.787-0.549,2.083-1.204,2.879-1.456s3.106-1.216,3.405-1.469
				c0.299-0.253,0.057-1.776-0.187-2.317c0,0,0,0-0.272-0.465c-0.808-1.38-0.73-2.642-0.73-2.642c0.059-0.958,0.13-2.46,0.158-3.337
				c0.027-0.877-0.989-3.706-1.264-4.625l-0.406-2.729c0.112-0.953,0.418-2.256,0.681-2.895c0.262-0.638,1.874-2.548,2.588-3.189
				l3.837-2.065c0.894-0.35,1.924-0.715,2.289-0.811c0.365-0.096,1.987-0.468,2.804-0.565c0.817-0.099,3.699,0.627,4.551,1.07
				l3.688,3.004c0.598,0.751,1.394,2.051,1.768,2.889c0.374,0.839,1.431,3.531,1.725,4.051c0.293,0.519,2.32,0.561,2.778,0.529
				c0.458-0.032,2.442-0.195,3.39-0.353l2.302-0.903c0.82-0.499,1.572-0.984,1.67-1.078c0.098-0.094,0.737-0.471,1.182-0.656
				c0.444-0.186,1.879,0.821,2.2,1.15c0.321,0.33,2.58-0.229,3.505-0.484l5.05-1.774c0.937-0.208,2.426-0.562,3.308-0.786
				c0.882-0.224,3.784-1.096,4.532-1.19s2.586,1.638,2.719,1.809s0.742,1.372,1.091,2.267c0,0,0.11,0.283-0.562,1.266
				c-0.139,0.203-0.139,0.203-0.139,0.203c-0.142,0.229-0.26,0.785-0.261,1.235s1.797,0.569,2.745,0.416l1.936-0.299
				c0.942-0.182,2.275-0.443,2.962-0.583c0.687-0.139,2.563-0.503,2.646-0.505s1.062-0.182,2.005-0.367l8.126-1.604
				c0.941-0.187,1.859-0.39,2.04-0.451c0.181-0.061,1.438-0.304,2.385-0.467l7.305-1.252c0.946-0.161,1.985-0.318,2.309-0.35
				c0.324-0.032,1.936-0.328,2.877-0.519l8.424-1.681c0.94-0.189,2.106-0.388,2.591-0.441s2.523-0.396,3.465-0.582l1.79-0.267
				c0.945-0.169,2.5-0.392,3.454-0.494l3.703-0.376c0.956-0.081,2.037-0.11,2.4-0.066c0.363,0.045,0.816,1.123,0.753,1.496
				s-0.937,1.155-1.207,1.271s-1.434,0.467-1.955,0.603c-0.522,0.136-1.983,0.523-2.086,0.561c-0.102,0.038-1.147,0.259-2.09,0.443
				l-5.964,1.182c-0.942,0.187-2.381,0.486-3.198,0.668c-0.817,0.181-3.364,0.717-3.841,0.809c-0.477,0.091-1.801,0.322-1.883,0.322
				c-0.082,0.001-1.061,0.194-1.999,0.395l-7.677,1.629c-0.938,0.2-2.161,0.46-2.716,0.577c-0.554,0.117-2.416,0.458-2.898,0.526
				c-0.481,0.069-2.025,0.433-2.373,0.585c-0.349,0.152-0.973,1.329-1.097,1.73s0.674,1.461,1.028,1.591
				c0.355,0.129,2.043-0.264,2.965-0.532l1.75-0.455c0.951-0.125,2.137-0.335,2.634-0.468s2.599-0.512,3.548-0.661l2.228-0.281
				c0.953-0.116,2.104-0.153,2.56-0.081c0.456,0.072,1.07,1.366,1.062,1.963c-0.008,0.596-1.132,1.68-1.506,1.848
				c-0.374,0.169-2.17,0.482-3.123,0.601l-3.81,0.737c-0.938,0.204-2.032,0.422-2.433,0.482c-0.401,0.062-2.229,0.26-3.168,0.352
				s-3.762,0.884-4.265,1.002s-2.323,0.356-2.917,0.508s-2.139,1.608-2.522,2.097s-1.677,2.106-1.978,2.544
				c-0.301,0.437-1.162,2.172-1.464,2.713c-0.302,0.54-1.465,2.52-1.886,3.211c-0.421,0.69-1.764,3.137-2.123,3.862
				c-0.36,0.726-1.577,2.969-1.853,3.401s-1.33,2.29-1.779,3.139l-1.368,2.303c-0.473,0.836-1.31,2.121-1.859,2.856
				s-2.499,3.267-3,4.083s-1.074,4.118-1.139,5.075l-0.494,6.079c-0.087,0.956-0.071,2.425,0.037,3.265
				c0.107,0.84,2.345,2.944,2.972,3.508s1.641,3.552,1.678,4.511c0,0,0.263,6.959-0.076,11.3c-0.153,1.958-0.744,4.07-0.744,4.07
				c-0.258,0.924-0.567,2.112-0.688,2.641s-0.307,2.72-0.344,3.679l-0.064,2.116c-0.011,0.96-0.053,2.45-0.095,3.312
				c-0.041,0.862-0.749,3.363-0.84,3.73s-0.488,1.794-0.655,2.362c-0.167,0.569-0.701,2.34-0.806,2.674
				c-0.105,0.335-0.555,1.694-0.761,2.279c-0.206,0.584-0.755,2.667-0.884,3.3s-0.499,2.768-0.577,3.329s-0.473,2.422-0.64,2.897
				c-0.167,0.476-1.216,1.865-1.44,2.265s0.893,1.976,1.59,2.636l2.371,2.251c0.703,0.654,1.867,1.708,2.589,2.342
				c0,0,0.161,0.142,0.836,0.846c0.854,0.891,0.848,1.442,0.848,1.442c-0.013,0.96-0.145,2.038-0.293,2.396
				s-1.713,0.729-2.333,0.733c-0.62,0.003-2.427-0.062-2.641-0.104s-1.531,0.112-2.45,0.355c0,0,0,0,0.236,1.061
				c0.344,1.543-0.211,2.157-0.211,2.157c-0.644,0.712-1.447,1.464-1.784,1.671c-0.337,0.206-2.167,0.496-3.124,0.582l-2.996,0.176
				c-0.958,0.072-2.526,0.104-3.485,0.069c0,0-0.811-0.028-2.07-0.218c-1.141-0.17-1.74-0.865-1.718-2.052
				c0.024-1.368,0.135-2.753,0.398-4.093c0.442-2.248-0.603-2.25-0.603-2.25c-0.96-0.002-2.494,0.176-3.408,0.396
				s-3.875,0.569-4.457,0.684s-2.67,0.565-3.353,0.719s-3.022,0.686-3.679,0.84c-0.657,0.153-2.939,0.627-3.603,0.751
				s-3.122,0.612-3.993,0.791s-3.209,0.669-3.26,0.688c-0.051,0.019-0.958,0.212-1.899,0.405l-5.803,1.195
				c-0.94,0.193-2.359,0.485-3.152,0.648s-3.141,0.671-3.455,0.755c-0.314,0.084-1.93,0.367-2.878,0.515l-5.283,0.843
				c-0.949,0.148-2.336,0.3-3.084,0.336s-2.925-0.771-3.277-0.913c-0.352-0.141-2.015-0.726-2.877-1.146l-2.718-2.043
				c-0.578-0.767-1.258-2.151-1.511-3.077l-0.729-3.445c0.014-0.96,0.042-1.925,0.061-2.145c0.019-0.22,0.488-1.464,0.861-2.331
				c0.374-0.868,1.647-3.704,1.978-4.385c0.331-0.681,1.439-3.084,1.856-3.777c0.418-0.692,2.273-2.938,2.914-3.653l6.395-7.005
				c0.648-0.708,1.754-1.821,2.459-2.473l1.697-1.702c0.717-0.638,1.546-1.423,1.843-1.743c0.296-0.321,1.207-1.965,1.667-2.808
				l2.292-3.266c0.632-0.723,1.39-1.545,1.685-1.825c0.295-0.281,1.244-1.832,1.554-2.741l0.014-2.539
				c-0.304-0.91-0.793-1.916-1.086-2.235c-0.293-0.318-1.345-1.406-1.747-1.662c-0.402-0.256-1.827-0.062-2.049,0.037
				c-0.222,0.099-1.554,0.589-2.48,0.841l-2.473,0.371c-0.958-0.062-2.118-0.304-2.577-0.538c-0.459-0.233-1.684-1.815-2.162-2.486
				c-0.479-0.672-2.651-2.751-3.327-3.432l-2.218-2.77c-0.51-0.813-0.995-1.691-1.078-1.949c-0.083-0.259-0.185-1.327-0.188-1.787
				S132.905,388.946,132.885,388.944z M222.926,340.331c0.035-0.185-0.045-0.736-0.178-1.227c-0.134-0.489-2.036-0.799-2.887-0.854
				s-2.969-1.521-3.283-1.7c-0.314-0.179-2.043-0.119-2.927-0.011s-3.525,0.482-3.916,0.535s-1.875,0.923-2.65,1.489l-2.769,2.022
				c-0.763,0.583-1.553,1.264-1.756,1.513c0,0,0,0-0.165,0.242c-0.467,0.684-0.467,0.684-0.467,0.684
				c-0.508,0.757-1.209,1.87-1.558,2.475c-0.348,0.604,0.168,2.681,0.25,2.967c0.082,0.286,0.422,1.688,0.695,2.466
				c0.273,0.777,2.438,2.813,3.223,3.366l1.533,1.81c0.614,0.737,1.221,1.483,1.347,1.659c0.126,0.175,0.929,0.895,1.484,1.224
				c0.555,0.329,2.123-1.136,2.397-1.565c0.275-0.431,1.509-2.168,2.077-2.941l5.547-7.656c0.564-0.776,1.438-2.065,1.939-2.863
				C221.367,343.166,222.89,340.515,222.926,340.331z M193.215,432.172c0.059-0.332,0.072-0.799,0.03-1.038
				s-0.593-0.621-0.839-0.616c-0.245,0.006-1.322,0.314-1.854,0.539c-0.533,0.224-2.736,0.512-3.693,0.586l-5.672-1.108
				c-0.93-0.24-1.771-0.474-1.868-0.519c-0.098-0.046-0.666-0.172-1.032-0.209c-0.367-0.038-1.407,1.577-1.798,2.454l-0.891,2.031
				c-0.379,0.882-0.668,1.896-0.641,2.251c0.027,0.356,1.021,0.451,1.223,0.378c0.201-0.073,0.944-0.404,1.211-0.551
				s1.64-0.491,2.423-0.665s3.075-1.129,3.496-1.203c0.421-0.075,1.536,0.808,1.659,0.985s1.04,1.171,1.724,1.845l1.733,1.095
				c0.855,0.436,1.949,0.814,2.43,0.843s1.449-1.718,1.632-2.447c0,0,0,0,0.115-0.672c0.166-0.961,0.194-1.164,0.194-1.164
				C192.927,434.037,193.157,432.503,193.215,432.172z M194.929,330.672c0.433-0.102,0.781-0.263,0.772-0.357
				c-0.008-0.096-0.392-0.401-0.835-0.467c-0.443-0.064-1.731-0.018-1.879,0.095c-0.148,0.112-0.399,0.552-0.231,0.707
				S194.496,330.775,194.929,330.672z"/>
			<path fill="#FFFFFF" d="M132.885,388.944c-0.02-0.002,0.036-0.663,0.125-1.469s0.358-3.244,0.323-3.641
				c-0.036-0.396-0.885-1.193-1.001-1.263c-0.117-0.069-1.066-0.697-1.837-1.269l-2.731-2.607c-0.552-0.785-1.306-1.941-1.676-2.568
				s-1.433-2.637-1.552-3.066s0.605-2.281,1.082-3.115l1.546-2.706c0.5-0.819,1.393-2.11,1.982-2.867l5.055-6.369
				c0.657-0.7,1.763-1.814,2.458-2.477l3.76-3.589c0.734-0.619,1.597-1.288,1.918-1.487s1.573-0.702,2.022-0.771
				c0.449-0.069,1.617,0.664,1.77,0.817c0,0,0,0,0.135,0.143c0.427,0.449,0.427,0.449,0.427,0.449
				c0.618,0.034,1.292-0.14,1.497-0.385c0.205-0.245,0.319-1.845,0.279-2.804c0,0-0.009-0.223-0.092-1.201
				c-0.137-1.607,1.591-2.812,1.591-2.812c0.787-0.549,2.083-1.204,2.879-1.456s3.106-1.216,3.405-1.469
				c0.299-0.253,0.057-1.776-0.187-2.317c0,0,0,0-0.272-0.465c-0.808-1.38-0.73-2.642-0.73-2.642c0.059-0.958,0.13-2.46,0.158-3.337
				c0.027-0.877-0.989-3.706-1.264-4.625l-0.406-2.729c0.112-0.953,0.418-2.256,0.681-2.895c0.262-0.638,1.874-2.548,2.588-3.189
				l3.837-2.065c0.894-0.35,1.924-0.715,2.289-0.811c0.365-0.096,1.987-0.468,2.804-0.565c0.817-0.099,3.699,0.627,4.551,1.07
				l3.688,3.004c0.598,0.751,1.394,2.051,1.768,2.889c0.374,0.839,1.431,3.531,1.725,4.051c0.293,0.519,2.32,0.561,2.778,0.529
				c0.458-0.032,2.442-0.195,3.39-0.353l2.302-0.903c0.82-0.499,1.572-0.984,1.67-1.078c0.098-0.094,0.737-0.471,1.182-0.656
				c0.444-0.186,1.879,0.821,2.2,1.15c0.321,0.33,2.58-0.229,3.505-0.484l5.05-1.774c0.937-0.208,2.426-0.562,3.308-0.786
				c0.882-0.224,3.784-1.096,4.532-1.19s2.586,1.638,2.719,1.809s0.742,1.372,1.091,2.267c0,0,0.11,0.283-0.562,1.266
				c-0.139,0.203-0.139,0.203-0.139,0.203c-0.142,0.229-0.26,0.785-0.261,1.235s1.797,0.569,2.745,0.416l1.936-0.299
				c0.942-0.182,2.275-0.443,2.962-0.583c0.687-0.139,2.563-0.503,2.646-0.505s1.062-0.182,2.005-0.367l8.126-1.604
				c0.941-0.187,1.859-0.39,2.04-0.451c0.181-0.061,1.438-0.304,2.385-0.467l7.305-1.252c0.946-0.161,1.985-0.318,2.309-0.35
				c0.324-0.032,1.936-0.328,2.877-0.519l8.424-1.681c0.94-0.189,2.106-0.388,2.591-0.441s2.523-0.396,3.465-0.582l1.79-0.267
				c0.945-0.169,2.5-0.392,3.454-0.494l3.703-0.376c0.956-0.081,2.037-0.11,2.4-0.066c0.363,0.045,0.816,1.123,0.753,1.496
				s-0.937,1.155-1.207,1.271s-1.434,0.467-1.955,0.603c-0.522,0.136-1.983,0.523-2.086,0.561c-0.102,0.038-1.147,0.259-2.09,0.443
				l-5.964,1.182c-0.942,0.187-2.381,0.486-3.198,0.668c-0.817,0.181-3.364,0.717-3.841,0.809c-0.477,0.091-1.801,0.322-1.883,0.322
				c-0.082,0.001-1.061,0.194-1.999,0.395l-7.677,1.629c-0.938,0.2-2.161,0.46-2.716,0.577c-0.554,0.117-2.416,0.458-2.898,0.526
				c-0.481,0.069-2.025,0.433-2.373,0.585c-0.349,0.152-0.973,1.329-1.097,1.73s0.674,1.461,1.028,1.591
				c0.355,0.129,2.043-0.264,2.965-0.532l1.75-0.455c0.951-0.125,2.137-0.335,2.634-0.468s2.599-0.512,3.548-0.661l2.228-0.281
				c0.953-0.116,2.104-0.153,2.56-0.081c0.456,0.072,1.07,1.366,1.062,1.963c-0.008,0.596-1.132,1.68-1.506,1.848
				c-0.374,0.169-2.17,0.482-3.123,0.601l-3.81,0.737c-0.938,0.204-2.032,0.422-2.433,0.482c-0.401,0.062-2.229,0.26-3.168,0.352
				s-3.762,0.884-4.265,1.002s-2.323,0.356-2.917,0.508s-2.139,1.608-2.522,2.097s-1.677,2.106-1.978,2.544
				c-0.301,0.437-1.162,2.172-1.464,2.713c-0.302,0.54-1.465,2.52-1.886,3.211c-0.421,0.69-1.764,3.137-2.123,3.862
				c-0.36,0.726-1.577,2.969-1.853,3.401s-1.33,2.29-1.779,3.139l-1.368,2.303c-0.473,0.836-1.31,2.121-1.859,2.856
				s-2.499,3.267-3,4.083s-1.074,4.118-1.139,5.075l-0.494,6.079c-0.087,0.956-0.071,2.425,0.037,3.265
				c0.107,0.84,2.345,2.944,2.972,3.508s1.641,3.552,1.678,4.511c0,0,0.263,6.959-0.076,11.3c-0.153,1.958-0.744,4.07-0.744,4.07
				c-0.258,0.924-0.567,2.112-0.688,2.641s-0.307,2.72-0.344,3.679l-0.064,2.116c-0.011,0.96-0.053,2.45-0.095,3.312
				c-0.041,0.862-0.749,3.363-0.84,3.73s-0.488,1.794-0.655,2.362c-0.167,0.569-0.701,2.34-0.806,2.674
				c-0.105,0.335-0.555,1.694-0.761,2.279c-0.206,0.584-0.755,2.667-0.884,3.3s-0.499,2.768-0.577,3.329s-0.473,2.422-0.64,2.897
				c-0.167,0.476-1.216,1.865-1.44,2.265s0.893,1.976,1.59,2.636l2.371,2.251c0.703,0.654,1.867,1.708,2.589,2.342
				c0,0,0.161,0.142,0.836,0.846c0.854,0.891,0.848,1.442,0.848,1.442c-0.013,0.96-0.145,2.038-0.293,2.396
				s-1.713,0.729-2.333,0.733c-0.62,0.003-2.427-0.062-2.641-0.104s-1.531,0.112-2.45,0.355c0,0,0,0,0.236,1.061
				c0.344,1.543-0.211,2.157-0.211,2.157c-0.644,0.712-1.447,1.464-1.784,1.671c-0.337,0.206-2.167,0.496-3.124,0.582l-2.996,0.176
				c-0.958,0.072-2.526,0.104-3.485,0.069c0,0-0.811-0.028-2.07-0.218c-1.141-0.17-1.74-0.865-1.718-2.052
				c0.024-1.368,0.135-2.753,0.398-4.093c0.442-2.248-0.603-2.25-0.603-2.25c-0.96-0.002-2.494,0.176-3.408,0.396
				s-3.875,0.569-4.457,0.684s-2.67,0.565-3.353,0.719s-3.022,0.686-3.679,0.84c-0.657,0.153-2.939,0.627-3.603,0.751
				s-3.122,0.612-3.993,0.791s-3.209,0.669-3.26,0.688c-0.051,0.019-0.958,0.212-1.899,0.405l-5.803,1.195
				c-0.94,0.193-2.359,0.485-3.152,0.648s-3.141,0.671-3.455,0.755c-0.314,0.084-1.93,0.367-2.878,0.515l-5.283,0.843
				c-0.949,0.148-2.336,0.3-3.084,0.336s-2.925-0.771-3.277-0.913c-0.352-0.141-2.015-0.726-2.877-1.146l-2.718-2.043
				c-0.578-0.767-1.258-2.151-1.511-3.077l-0.729-3.445c0.014-0.96,0.042-1.925,0.061-2.145c0.019-0.22,0.488-1.464,0.861-2.331
				c0.374-0.868,1.647-3.704,1.978-4.385c0.331-0.681,1.439-3.084,1.856-3.777c0.418-0.692,2.273-2.938,2.914-3.653l6.395-7.005
				c0.648-0.708,1.754-1.821,2.459-2.473l1.697-1.702c0.717-0.638,1.546-1.423,1.843-1.743c0.296-0.321,1.207-1.965,1.667-2.808
				l2.292-3.266c0.632-0.723,1.39-1.545,1.685-1.825c0.295-0.281,1.244-1.832,1.554-2.741l0.014-2.539
				c-0.304-0.91-0.793-1.916-1.086-2.235c-0.293-0.318-1.345-1.406-1.747-1.662c-0.402-0.256-1.827-0.062-2.049,0.037
				c-0.222,0.099-1.554,0.589-2.48,0.841l-2.473,0.371c-0.958-0.062-2.118-0.304-2.577-0.538c-0.459-0.233-1.684-1.815-2.162-2.486
				c-0.479-0.672-2.651-2.751-3.327-3.432l-2.218-2.77c-0.51-0.813-0.995-1.691-1.078-1.949c-0.083-0.259-0.185-1.327-0.188-1.787
				S132.905,388.946,132.885,388.944z M222.926,340.331c0.035-0.185-0.045-0.736-0.178-1.227c-0.134-0.489-2.036-0.799-2.887-0.854
				s-2.969-1.521-3.283-1.7c-0.314-0.179-2.043-0.119-2.927-0.011s-3.525,0.482-3.916,0.535s-1.875,0.923-2.65,1.489l-2.769,2.022
				c-0.763,0.583-1.553,1.264-1.756,1.513c0,0,0,0-0.165,0.242c-0.467,0.684-0.467,0.684-0.467,0.684
				c-0.508,0.757-1.209,1.87-1.558,2.475c-0.348,0.604,0.168,2.681,0.25,2.967c0.082,0.286,0.422,1.688,0.695,2.466
				c0.273,0.777,2.438,2.813,3.223,3.366l1.533,1.81c0.614,0.737,1.221,1.483,1.347,1.659c0.126,0.175,0.929,0.895,1.484,1.224
				c0.555,0.329,2.123-1.136,2.397-1.565c0.275-0.431,1.509-2.168,2.077-2.941l5.547-7.656c0.564-0.776,1.438-2.065,1.939-2.863
				C221.367,343.166,222.89,340.515,222.926,340.331z M193.215,432.172c0.059-0.332,0.072-0.799,0.03-1.038
				s-0.593-0.621-0.839-0.616c-0.245,0.006-1.322,0.314-1.854,0.539c-0.533,0.224-2.736,0.512-3.693,0.586l-5.672-1.108
				c-0.93-0.24-1.771-0.474-1.868-0.519c-0.098-0.046-0.666-0.172-1.032-0.209c-0.367-0.038-1.407,1.577-1.798,2.454l-0.891,2.031
				c-0.379,0.882-0.668,1.896-0.641,2.251c0.027,0.356,1.021,0.451,1.223,0.378c0.201-0.073,0.944-0.404,1.211-0.551
				s1.64-0.491,2.423-0.665s3.075-1.129,3.496-1.203c0.421-0.075,1.536,0.808,1.659,0.985s1.04,1.171,1.724,1.845l1.733,1.095
				c0.855,0.436,1.949,0.814,2.43,0.843s1.449-1.718,1.632-2.447c0,0,0,0,0.115-0.672c0.166-0.961,0.194-1.164,0.194-1.164
				C192.927,434.037,193.157,432.503,193.215,432.172z M194.929,330.672c0.433-0.102,0.781-0.263,0.772-0.357
				c-0.008-0.096-0.392-0.401-0.835-0.467c-0.443-0.064-1.731-0.018-1.879,0.095c-0.148,0.112-0.399,0.552-0.231,0.707
				S194.496,330.775,194.929,330.672z"/>
		</g>
	</g>
	<g>
		<g>
			<path fill-rule="evenodd" clip-rule="evenodd" fill="#414141" d="M132.885,388.944c-0.02-0.002,0.036-0.663,0.125-1.469
				s0.358-3.244,0.323-3.641c-0.036-0.396-0.885-1.193-1.001-1.263c-0.117-0.069-1.066-0.697-1.837-1.269l-2.731-2.607
				c-0.552-0.785-1.306-1.941-1.676-2.568s-1.433-2.637-1.552-3.066s0.605-2.281,1.082-3.115l1.546-2.706
				c0.5-0.819,1.393-2.11,1.982-2.867l5.055-6.369c0.657-0.7,1.763-1.814,2.458-2.477l3.76-3.589
				c0.734-0.619,1.597-1.288,1.918-1.487s1.573-0.702,2.022-0.771c0.449-0.069,1.617,0.664,1.77,0.817c0,0,0,0,0.135,0.143
				c0.427,0.449,0.427,0.449,0.427,0.449c0.618,0.034,1.292-0.14,1.497-0.385c0.205-0.245,0.319-1.845,0.279-2.804
				c0,0-0.009-0.223-0.092-1.201c-0.137-1.607,1.591-2.812,1.591-2.812c0.787-0.549,2.083-1.204,2.879-1.456
				s3.106-1.216,3.405-1.469c0.299-0.253,0.057-1.776-0.187-2.317c0,0,0,0-0.272-0.465c-0.808-1.38-0.73-2.642-0.73-2.642
				c0.059-0.958,0.13-2.46,0.158-3.337c0.027-0.877-0.989-3.706-1.264-4.625l-0.406-2.729c0.112-0.953,0.418-2.256,0.681-2.895
				c0.262-0.638,1.874-2.548,2.588-3.189l3.837-2.065c0.894-0.35,1.924-0.715,2.289-0.811c0.365-0.096,1.987-0.468,2.804-0.565
				c0.817-0.099,3.699,0.627,4.551,1.07l3.688,3.004c0.598,0.751,1.394,2.051,1.768,2.889c0.374,0.839,1.431,3.531,1.725,4.051
				c0.293,0.519,2.32,0.561,2.778,0.529c0.458-0.032,2.442-0.195,3.39-0.353l2.302-0.903c0.82-0.499,1.572-0.984,1.67-1.078
				c0.098-0.094,0.737-0.471,1.182-0.656c0.444-0.186,1.879,0.821,2.2,1.15c0.321,0.33,2.58-0.229,3.505-0.484l5.05-1.774
				c0.937-0.208,2.426-0.562,3.308-0.786c0.882-0.224,3.784-1.096,4.532-1.19s2.586,1.638,2.719,1.809s0.742,1.372,1.091,2.267
				c0,0,0.11,0.283-0.562,1.266c-0.139,0.203-0.139,0.203-0.139,0.203c-0.142,0.229-0.26,0.785-0.261,1.235s1.797,0.569,2.745,0.416
				l1.936-0.299c0.942-0.182,2.275-0.443,2.962-0.583c0.687-0.139,2.563-0.503,2.646-0.505s1.062-0.182,2.005-0.367l8.126-1.604
				c0.941-0.187,1.859-0.39,2.04-0.451c0.181-0.061,1.438-0.304,2.385-0.467l7.305-1.252c0.946-0.161,1.985-0.318,2.309-0.35
				c0.324-0.032,1.936-0.328,2.877-0.519l8.424-1.681c0.94-0.189,2.106-0.388,2.591-0.441s2.523-0.396,3.465-0.582l1.79-0.267
				c0.945-0.169,2.5-0.392,3.454-0.494l3.703-0.376c0.956-0.081,2.037-0.11,2.4-0.066c0.363,0.045,0.816,1.123,0.753,1.496
				s-0.937,1.155-1.207,1.271s-1.434,0.467-1.955,0.603c-0.522,0.136-1.983,0.523-2.086,0.561c-0.102,0.038-1.147,0.259-2.09,0.443
				l-5.964,1.182c-0.942,0.187-2.381,0.486-3.198,0.668c-0.817,0.181-3.364,0.717-3.841,0.809c-0.477,0.091-1.801,0.322-1.883,0.322
				c-0.082,0.001-1.061,0.194-1.999,0.395l-7.677,1.629c-0.938,0.2-2.161,0.46-2.716,0.577c-0.554,0.117-2.416,0.458-2.898,0.526
				c-0.481,0.069-2.025,0.433-2.373,0.585c-0.349,0.152-0.973,1.329-1.097,1.73s0.674,1.461,1.028,1.591
				c0.355,0.129,2.043-0.264,2.965-0.532l1.75-0.455c0.951-0.125,2.137-0.335,2.634-0.468s2.599-0.512,3.548-0.661l2.228-0.281
				c0.953-0.116,2.104-0.153,2.56-0.081c0.456,0.072,1.07,1.366,1.062,1.963c-0.008,0.596-1.132,1.68-1.506,1.848
				c-0.374,0.169-2.17,0.482-3.123,0.601l-3.81,0.737c-0.938,0.204-2.032,0.422-2.433,0.482c-0.401,0.062-2.229,0.26-3.168,0.352
				s-3.762,0.884-4.265,1.002s-2.323,0.356-2.917,0.508s-2.139,1.608-2.522,2.097s-1.677,2.106-1.978,2.544
				c-0.301,0.437-1.162,2.172-1.464,2.713c-0.302,0.54-1.465,2.52-1.886,3.211c-0.421,0.69-1.764,3.137-2.123,3.862
				c-0.36,0.726-1.577,2.969-1.853,3.401s-1.33,2.29-1.779,3.139l-1.368,2.303c-0.473,0.836-1.31,2.121-1.859,2.856
				s-2.499,3.267-3,4.083s-1.074,4.118-1.139,5.075l-0.494,6.079c-0.087,0.956-0.071,2.425,0.037,3.265
				c0.107,0.84,2.345,2.944,2.972,3.508s1.641,3.552,1.678,4.511c0,0,0.263,6.959-0.076,11.3c-0.153,1.958-0.744,4.07-0.744,4.07
				c-0.258,0.924-0.567,2.112-0.688,2.641s-0.307,2.72-0.344,3.679l-0.064,2.116c-0.011,0.96-0.053,2.45-0.095,3.312
				c-0.041,0.862-0.749,3.363-0.84,3.73s-0.488,1.794-0.655,2.362c-0.167,0.569-0.701,2.34-0.806,2.674
				c-0.105,0.335-0.555,1.694-0.761,2.279c-0.206,0.584-0.755,2.667-0.884,3.3s-0.499,2.768-0.577,3.329s-0.473,2.422-0.64,2.897
				c-0.167,0.476-1.216,1.865-1.44,2.265s0.893,1.976,1.59,2.636l2.371,2.251c0.703,0.654,1.867,1.708,2.589,2.342
				c0,0,0.161,0.142,0.836,0.846c0.854,0.891,0.848,1.442,0.848,1.442c-0.013,0.96-0.145,2.038-0.293,2.396
				s-1.713,0.729-2.333,0.733c-0.62,0.003-2.427-0.062-2.641-0.104s-1.531,0.112-2.45,0.355c0,0,0,0,0.236,1.061
				c0.344,1.543-0.211,2.157-0.211,2.157c-0.644,0.712-1.447,1.464-1.784,1.671c-0.337,0.206-2.167,0.496-3.124,0.582l-2.996,0.176
				c-0.958,0.072-2.526,0.104-3.485,0.069c0,0-0.811-0.028-2.07-0.218c-1.141-0.17-1.74-0.865-1.718-2.052
				c0.024-1.368,0.135-2.753,0.398-4.093c0.442-2.248-0.603-2.25-0.603-2.25c-0.96-0.002-2.494,0.176-3.408,0.396
				s-3.875,0.569-4.457,0.684s-2.67,0.565-3.353,0.719s-3.022,0.686-3.679,0.84c-0.657,0.153-2.939,0.627-3.603,0.751
				s-3.122,0.612-3.993,0.791s-3.209,0.669-3.26,0.688c-0.051,0.019-0.958,0.212-1.899,0.405l-5.803,1.195
				c-0.94,0.193-2.359,0.485-3.152,0.648s-3.141,0.671-3.455,0.755c-0.314,0.084-1.93,0.367-2.878,0.515l-5.283,0.843
				c-0.949,0.148-2.336,0.3-3.084,0.336s-2.925-0.771-3.277-0.913c-0.352-0.141-2.015-0.726-2.877-1.146l-2.718-2.043
				c-0.578-0.767-1.258-2.151-1.511-3.077l-0.729-3.445c0.014-0.96,0.042-1.925,0.061-2.145c0.019-0.22,0.488-1.464,0.861-2.331
				c0.374-0.868,1.647-3.704,1.978-4.385c0.331-0.681,1.439-3.084,1.856-3.777c0.418-0.692,2.273-2.938,2.914-3.653l6.395-7.005
				c0.648-0.708,1.754-1.821,2.459-2.473l1.697-1.702c0.717-0.638,1.546-1.423,1.843-1.743c0.296-0.321,1.207-1.965,1.667-2.808
				l2.292-3.266c0.632-0.723,1.39-1.545,1.685-1.825c0.295-0.281,1.244-1.832,1.554-2.741l0.014-2.539
				c-0.304-0.91-0.793-1.916-1.086-2.235c-0.293-0.318-1.345-1.406-1.747-1.662c-0.402-0.256-1.827-0.062-2.049,0.037
				c-0.222,0.099-1.554,0.589-2.48,0.841l-2.473,0.371c-0.958-0.062-2.118-0.304-2.577-0.538c-0.459-0.233-1.684-1.815-2.162-2.486
				c-0.479-0.672-2.651-2.751-3.327-3.432l-2.218-2.77c-0.51-0.813-0.995-1.691-1.078-1.949c-0.083-0.259-0.185-1.327-0.188-1.787
				S132.905,388.946,132.885,388.944z M222.926,340.331c0.035-0.185-0.045-0.736-0.178-1.227c-0.134-0.489-2.036-0.799-2.887-0.854
				s-2.969-1.521-3.283-1.7c-0.314-0.179-2.043-0.119-2.927-0.011s-3.525,0.482-3.916,0.535s-1.875,0.923-2.65,1.489l-2.769,2.022
				c-0.763,0.583-1.553,1.264-1.756,1.513c0,0,0,0-0.165,0.242c-0.467,0.684-0.467,0.684-0.467,0.684
				c-0.508,0.757-1.209,1.87-1.558,2.475c-0.348,0.604,0.168,2.681,0.25,2.967c0.082,0.286,0.422,1.688,0.695,2.466
				c0.273,0.777,2.438,2.813,3.223,3.366l1.533,1.81c0.614,0.737,1.221,1.483,1.347,1.659c0.126,0.175,0.929,0.895,1.484,1.224
				c0.555,0.329,2.123-1.136,2.397-1.565c0.275-0.431,1.509-2.168,2.077-2.941l5.547-7.656c0.564-0.776,1.438-2.065,1.939-2.863
				C221.367,343.166,222.89,340.515,222.926,340.331z M193.215,432.172c0.059-0.332,0.072-0.799,0.03-1.038
				s-0.593-0.621-0.839-0.616c-0.245,0.006-1.322,0.314-1.854,0.539c-0.533,0.224-2.736,0.512-3.693,0.586l-5.672-1.108
				c-0.93-0.24-1.771-0.474-1.868-0.519c-0.098-0.046-0.666-0.172-1.032-0.209c-0.367-0.038-1.407,1.577-1.798,2.454l-0.891,2.031
				c-0.379,0.882-0.668,1.896-0.641,2.251c0.027,0.356,1.021,0.451,1.223,0.378c0.201-0.073,0.944-0.404,1.211-0.551
				s1.64-0.491,2.423-0.665s3.075-1.129,3.496-1.203c0.421-0.075,1.536,0.808,1.659,0.985s1.04,1.171,1.724,1.845l1.733,1.095
				c0.855,0.436,1.949,0.814,2.43,0.843s1.449-1.718,1.632-2.447c0,0,0,0,0.115-0.672c0.166-0.961,0.194-1.164,0.194-1.164
				C192.927,434.037,193.157,432.503,193.215,432.172z M194.929,330.672c0.433-0.102,0.781-0.263,0.772-0.357
				c-0.008-0.096-0.392-0.401-0.835-0.467c-0.443-0.064-1.731-0.018-1.879,0.095c-0.148,0.112-0.399,0.552-0.231,0.707
				S194.496,330.775,194.929,330.672z"/>
			<path fill="none" stroke="#231F20" stroke-width="0.8728" stroke-miterlimit="10" d="M132.885,388.944
				c-0.02-0.002,0.036-0.663,0.125-1.469s0.358-3.244,0.323-3.641c-0.036-0.396-0.885-1.193-1.001-1.263
				c-0.117-0.069-1.066-0.697-1.837-1.269l-2.731-2.607c-0.552-0.785-1.306-1.941-1.676-2.568s-1.433-2.637-1.552-3.066
				s0.605-2.281,1.082-3.115l1.546-2.706c0.5-0.819,1.393-2.11,1.982-2.867l5.055-6.369c0.657-0.7,1.763-1.814,2.458-2.477
				l3.76-3.589c0.734-0.619,1.597-1.288,1.918-1.487s1.573-0.702,2.022-0.771c0.449-0.069,1.617,0.664,1.77,0.817
				c0,0,0,0,0.135,0.143c0.427,0.449,0.427,0.449,0.427,0.449c0.618,0.034,1.292-0.14,1.497-0.385
				c0.205-0.245,0.319-1.845,0.279-2.804c0,0-0.009-0.223-0.092-1.201c-0.137-1.607,1.591-2.812,1.591-2.812
				c0.787-0.549,2.083-1.204,2.879-1.456s3.106-1.216,3.405-1.469c0.299-0.253,0.057-1.776-0.187-2.317c0,0,0,0-0.272-0.465
				c-0.808-1.38-0.73-2.642-0.73-2.642c0.059-0.958,0.13-2.46,0.158-3.337c0.027-0.877-0.989-3.706-1.264-4.625l-0.406-2.729
				c0.112-0.953,0.418-2.256,0.681-2.895c0.262-0.638,1.874-2.548,2.588-3.189l3.837-2.065c0.894-0.35,1.924-0.715,2.289-0.811
				c0.365-0.096,1.987-0.468,2.804-0.565c0.817-0.099,3.699,0.627,4.551,1.07l3.688,3.004c0.598,0.751,1.394,2.051,1.768,2.889
				c0.374,0.839,1.431,3.531,1.725,4.051c0.293,0.519,2.32,0.561,2.778,0.529c0.458-0.032,2.442-0.195,3.39-0.353l2.302-0.903
				c0.82-0.499,1.572-0.984,1.67-1.078c0.098-0.094,0.737-0.471,1.182-0.656c0.444-0.186,1.879,0.821,2.2,1.15
				c0.321,0.33,2.58-0.229,3.505-0.484l5.05-1.774c0.937-0.208,2.426-0.562,3.308-0.786c0.882-0.224,3.784-1.096,4.532-1.19
				s2.586,1.638,2.719,1.809s0.742,1.372,1.091,2.267c0,0,0.11,0.283-0.562,1.266c-0.139,0.203-0.139,0.203-0.139,0.203
				c-0.142,0.229-0.26,0.785-0.261,1.235s1.797,0.569,2.745,0.416l1.936-0.299c0.942-0.182,2.275-0.443,2.962-0.583
				c0.687-0.139,2.563-0.503,2.646-0.505s1.062-0.182,2.005-0.367l8.126-1.604c0.941-0.187,1.859-0.39,2.04-0.451
				c0.181-0.061,1.438-0.304,2.385-0.467l7.305-1.252c0.946-0.161,1.985-0.318,2.309-0.35c0.324-0.032,1.936-0.328,2.877-0.519
				l8.424-1.681c0.94-0.189,2.106-0.388,2.591-0.441s2.523-0.396,3.465-0.582l1.79-0.267c0.945-0.169,2.5-0.392,3.454-0.494
				l3.703-0.376c0.956-0.081,2.037-0.11,2.4-0.066c0.363,0.045,0.816,1.123,0.753,1.496s-0.937,1.155-1.207,1.271
				s-1.434,0.467-1.955,0.603c-0.522,0.136-1.983,0.523-2.086,0.561c-0.102,0.038-1.147,0.259-2.09,0.443l-5.964,1.182
				c-0.942,0.187-2.381,0.486-3.198,0.668c-0.817,0.181-3.364,0.717-3.841,0.809c-0.477,0.091-1.801,0.322-1.883,0.322
				c-0.082,0.001-1.061,0.194-1.999,0.395l-7.677,1.629c-0.938,0.2-2.161,0.46-2.716,0.577c-0.554,0.117-2.416,0.458-2.898,0.526
				c-0.481,0.069-2.025,0.433-2.373,0.585c-0.349,0.152-0.973,1.329-1.097,1.73s0.674,1.461,1.028,1.591
				c0.355,0.129,2.043-0.264,2.965-0.532l1.75-0.455c0.951-0.125,2.137-0.335,2.634-0.468s2.599-0.512,3.548-0.661l2.228-0.281
				c0.953-0.116,2.104-0.153,2.56-0.081c0.456,0.072,1.07,1.366,1.062,1.963c-0.008,0.596-1.132,1.68-1.506,1.848
				c-0.374,0.169-2.17,0.482-3.123,0.601l-3.81,0.737c-0.938,0.204-2.032,0.422-2.433,0.482c-0.401,0.062-2.229,0.26-3.168,0.352
				s-3.762,0.884-4.265,1.002s-2.323,0.356-2.917,0.508s-2.139,1.608-2.522,2.097s-1.677,2.106-1.978,2.544
				c-0.301,0.437-1.162,2.172-1.464,2.713c-0.302,0.54-1.465,2.52-1.886,3.211c-0.421,0.69-1.764,3.137-2.123,3.862
				c-0.36,0.726-1.577,2.969-1.853,3.401s-1.33,2.29-1.779,3.139l-1.368,2.303c-0.473,0.836-1.31,2.121-1.859,2.856
				s-2.499,3.267-3,4.083s-1.074,4.118-1.139,5.075l-0.494,6.079c-0.087,0.956-0.071,2.425,0.037,3.265
				c0.107,0.84,2.345,2.944,2.972,3.508s1.641,3.552,1.678,4.511c0,0,0.263,6.959-0.076,11.3c-0.153,1.958-0.744,4.07-0.744,4.07
				c-0.258,0.924-0.567,2.112-0.688,2.641s-0.307,2.72-0.344,3.679l-0.064,2.116c-0.011,0.96-0.053,2.45-0.095,3.312
				c-0.041,0.862-0.749,3.363-0.84,3.73s-0.488,1.794-0.655,2.362c-0.167,0.569-0.701,2.34-0.806,2.674
				c-0.105,0.335-0.555,1.694-0.761,2.279c-0.206,0.584-0.755,2.667-0.884,3.3s-0.499,2.768-0.577,3.329s-0.473,2.422-0.64,2.897
				c-0.167,0.476-1.216,1.865-1.44,2.265s0.893,1.976,1.59,2.636l2.371,2.251c0.703,0.654,1.867,1.708,2.589,2.342
				c0,0,0.161,0.142,0.836,0.846c0.854,0.891,0.848,1.442,0.848,1.442c-0.013,0.96-0.145,2.038-0.293,2.396
				s-1.713,0.729-2.333,0.733c-0.62,0.003-2.427-0.062-2.641-0.104s-1.531,0.112-2.45,0.355c0,0,0,0,0.236,1.061
				c0.344,1.543-0.211,2.157-0.211,2.157c-0.644,0.712-1.447,1.464-1.784,1.671c-0.337,0.206-2.167,0.496-3.124,0.582l-2.996,0.176
				c-0.958,0.072-2.526,0.104-3.485,0.069c0,0-0.811-0.028-2.07-0.218c-1.141-0.17-1.74-0.865-1.718-2.052
				c0.024-1.368,0.135-2.753,0.398-4.093c0.442-2.248-0.603-2.25-0.603-2.25c-0.96-0.002-2.494,0.176-3.408,0.396
				s-3.875,0.569-4.457,0.684s-2.67,0.565-3.353,0.719s-3.022,0.686-3.679,0.84c-0.657,0.153-2.939,0.627-3.603,0.751
				s-3.122,0.612-3.993,0.791s-3.209,0.669-3.26,0.688c-0.051,0.019-0.958,0.212-1.899,0.405l-5.803,1.195
				c-0.94,0.193-2.359,0.485-3.152,0.648s-3.141,0.671-3.455,0.755c-0.314,0.084-1.93,0.367-2.878,0.515l-5.283,0.843
				c-0.949,0.148-2.336,0.3-3.084,0.336s-2.925-0.771-3.277-0.913c-0.352-0.141-2.015-0.726-2.877-1.146l-2.718-2.043
				c-0.578-0.767-1.258-2.151-1.511-3.077l-0.729-3.445c0.014-0.96,0.042-1.925,0.061-2.145c0.019-0.22,0.488-1.464,0.861-2.331
				c0.374-0.868,1.647-3.704,1.978-4.385c0.331-0.681,1.439-3.084,1.856-3.777c0.418-0.692,2.273-2.938,2.914-3.653l6.395-7.005
				c0.648-0.708,1.754-1.821,2.459-2.473l1.697-1.702c0.717-0.638,1.546-1.423,1.843-1.743c0.296-0.321,1.207-1.965,1.667-2.808
				l2.292-3.266c0.632-0.723,1.39-1.545,1.685-1.825c0.295-0.281,1.244-1.832,1.554-2.741l0.014-2.539
				c-0.304-0.91-0.793-1.916-1.086-2.235c-0.293-0.318-1.345-1.406-1.747-1.662c-0.402-0.256-1.827-0.062-2.049,0.037
				c-0.222,0.099-1.554,0.589-2.48,0.841l-2.473,0.371c-0.958-0.062-2.118-0.304-2.577-0.538c-0.459-0.233-1.684-1.815-2.162-2.486
				c-0.479-0.672-2.651-2.751-3.327-3.432l-2.218-2.77c-0.51-0.813-0.995-1.691-1.078-1.949c-0.083-0.259-0.185-1.327-0.188-1.787
				S132.905,388.946,132.885,388.944z M222.926,340.331c0.035-0.185-0.045-0.736-0.178-1.227c-0.134-0.489-2.036-0.799-2.887-0.854
				s-2.969-1.521-3.283-1.7c-0.314-0.179-2.043-0.119-2.927-0.011s-3.525,0.482-3.916,0.535s-1.875,0.923-2.65,1.489l-2.769,2.022
				c-0.763,0.583-1.553,1.264-1.756,1.513c0,0,0,0-0.165,0.242c-0.467,0.684-0.467,0.684-0.467,0.684
				c-0.508,0.757-1.209,1.87-1.558,2.475c-0.348,0.604,0.168,2.681,0.25,2.967c0.082,0.286,0.422,1.688,0.695,2.466
				c0.273,0.777,2.438,2.813,3.223,3.366l1.533,1.81c0.614,0.737,1.221,1.483,1.347,1.659c0.126,0.175,0.929,0.895,1.484,1.224
				c0.555,0.329,2.123-1.136,2.397-1.565c0.275-0.431,1.509-2.168,2.077-2.941l5.547-7.656c0.564-0.776,1.438-2.065,1.939-2.863
				C221.367,343.166,222.89,340.515,222.926,340.331z M193.215,432.172c0.059-0.332,0.072-0.799,0.03-1.038
				s-0.593-0.621-0.839-0.616c-0.245,0.006-1.322,0.314-1.854,0.539c-0.533,0.224-2.736,0.512-3.693,0.586l-5.672-1.108
				c-0.93-0.24-1.771-0.474-1.868-0.519c-0.098-0.046-0.666-0.172-1.032-0.209c-0.367-0.038-1.407,1.577-1.798,2.454l-0.891,2.031
				c-0.379,0.882-0.668,1.896-0.641,2.251c0.027,0.356,1.021,0.451,1.223,0.378c0.201-0.073,0.944-0.404,1.211-0.551
				s1.64-0.491,2.423-0.665s3.075-1.129,3.496-1.203c0.421-0.075,1.536,0.808,1.659,0.985s1.04,1.171,1.724,1.845l1.733,1.095
				c0.855,0.436,1.949,0.814,2.43,0.843s1.449-1.718,1.632-2.447c0,0,0,0,0.115-0.672c0.166-0.961,0.194-1.164,0.194-1.164
				C192.927,434.037,193.157,432.503,193.215,432.172z M194.929,330.672c0.433-0.102,0.781-0.263,0.772-0.357
				c-0.008-0.096-0.392-0.401-0.835-0.467c-0.443-0.064-1.731-0.018-1.879,0.095c-0.148,0.112-0.399,0.552-0.231,0.707
				S194.496,330.775,194.929,330.672z"/>
		</g>
	</g>
	<g>
		<g>
			<path fill="none" stroke="#FFFFFF" stroke-width="0.8728" stroke-miterlimit="10" d="M132.885,388.944
				c-0.02-0.002,0.036-0.663,0.125-1.469s0.358-3.244,0.323-3.641c-0.036-0.396-0.885-1.193-1.001-1.263
				c-0.117-0.069-1.066-0.697-1.837-1.269l-2.731-2.607c-0.552-0.785-1.306-1.941-1.676-2.568s-1.433-2.637-1.552-3.066
				s0.605-2.281,1.082-3.115l1.546-2.706c0.5-0.819,1.393-2.11,1.982-2.867l5.055-6.369c0.657-0.7,1.763-1.814,2.458-2.477
				l3.76-3.589c0.734-0.619,1.597-1.288,1.918-1.487s1.573-0.702,2.022-0.771c0.449-0.069,1.617,0.664,1.77,0.817
				c0,0,0,0,0.135,0.143c0.427,0.449,0.427,0.449,0.427,0.449c0.618,0.034,1.292-0.14,1.497-0.385
				c0.205-0.245,0.319-1.845,0.279-2.804c0,0-0.009-0.223-0.092-1.201c-0.137-1.607,1.591-2.812,1.591-2.812
				c0.787-0.549,2.083-1.204,2.879-1.456s3.106-1.216,3.405-1.469c0.299-0.253,0.057-1.776-0.187-2.317c0,0,0,0-0.272-0.465
				c-0.808-1.38-0.73-2.642-0.73-2.642c0.059-0.958,0.13-2.46,0.158-3.337c0.027-0.877-0.989-3.706-1.264-4.625l-0.406-2.729
				c0.112-0.953,0.418-2.256,0.681-2.895c0.262-0.638,1.874-2.548,2.588-3.189l3.837-2.065c0.894-0.35,1.924-0.715,2.289-0.811
				c0.365-0.096,1.987-0.468,2.804-0.565c0.817-0.099,3.699,0.627,4.551,1.07l3.688,3.004c0.598,0.751,1.394,2.051,1.768,2.889
				c0.374,0.839,1.431,3.531,1.725,4.051c0.293,0.519,2.32,0.561,2.778,0.529c0.458-0.032,2.442-0.195,3.39-0.353l2.302-0.903
				c0.82-0.499,1.572-0.984,1.67-1.078c0.098-0.094,0.737-0.471,1.182-0.656c0.444-0.186,1.879,0.821,2.2,1.15
				c0.321,0.33,2.58-0.229,3.505-0.484l5.05-1.774c0.937-0.208,2.426-0.562,3.308-0.786c0.882-0.224,3.784-1.096,4.532-1.19
				s2.586,1.638,2.719,1.809s0.742,1.372,1.091,2.267c0,0,0.11,0.283-0.562,1.266c-0.139,0.203-0.139,0.203-0.139,0.203
				c-0.142,0.229-0.26,0.785-0.261,1.235s1.797,0.569,2.745,0.416l1.936-0.299c0.942-0.182,2.275-0.443,2.962-0.583
				c0.687-0.139,2.563-0.503,2.646-0.505s1.062-0.182,2.005-0.367l8.126-1.604c0.941-0.187,1.859-0.39,2.04-0.451
				c0.181-0.061,1.438-0.304,2.385-0.467l7.305-1.252c0.946-0.161,1.985-0.318,2.309-0.35c0.324-0.032,1.936-0.328,2.877-0.519
				l8.424-1.681c0.94-0.189,2.106-0.388,2.591-0.441s2.523-0.396,3.465-0.582l1.79-0.267c0.945-0.169,2.5-0.392,3.454-0.494
				l3.703-0.376c0.956-0.081,2.037-0.11,2.4-0.066c0.363,0.045,0.816,1.123,0.753,1.496s-0.937,1.155-1.207,1.271
				s-1.434,0.467-1.955,0.603c-0.522,0.136-1.983,0.523-2.086,0.561c-0.102,0.038-1.147,0.259-2.09,0.443l-5.964,1.182
				c-0.942,0.187-2.381,0.486-3.198,0.668c-0.817,0.181-3.364,0.717-3.841,0.809c-0.477,0.091-1.801,0.322-1.883,0.322
				c-0.082,0.001-1.061,0.194-1.999,0.395l-7.677,1.629c-0.938,0.2-2.161,0.46-2.716,0.577c-0.554,0.117-2.416,0.458-2.898,0.526
				c-0.481,0.069-2.025,0.433-2.373,0.585c-0.349,0.152-0.973,1.329-1.097,1.73s0.674,1.461,1.028,1.591
				c0.355,0.129,2.043-0.264,2.965-0.532l1.75-0.455c0.951-0.125,2.137-0.335,2.634-0.468s2.599-0.512,3.548-0.661l2.228-0.281
				c0.953-0.116,2.104-0.153,2.56-0.081c0.456,0.072,1.07,1.366,1.062,1.963c-0.008,0.596-1.132,1.68-1.506,1.848
				c-0.374,0.169-2.17,0.482-3.123,0.601l-3.81,0.737c-0.938,0.204-2.032,0.422-2.433,0.482c-0.401,0.062-2.229,0.26-3.168,0.352
				s-3.762,0.884-4.265,1.002s-2.323,0.356-2.917,0.508s-2.139,1.608-2.522,2.097s-1.677,2.106-1.978,2.544
				c-0.301,0.437-1.162,2.172-1.464,2.713c-0.302,0.54-1.465,2.52-1.886,3.211c-0.421,0.69-1.764,3.137-2.123,3.862
				c-0.36,0.726-1.577,2.969-1.853,3.401s-1.33,2.29-1.779,3.139l-1.368,2.303c-0.473,0.836-1.31,2.121-1.859,2.856
				s-2.499,3.267-3,4.083s-1.074,4.118-1.139,5.075l-0.494,6.079c-0.087,0.956-0.071,2.425,0.037,3.265
				c0.107,0.84,2.345,2.944,2.972,3.508s1.641,3.552,1.678,4.511c0,0,0.263,6.959-0.076,11.3c-0.153,1.958-0.744,4.07-0.744,4.07
				c-0.258,0.924-0.567,2.112-0.688,2.641s-0.307,2.72-0.344,3.679l-0.064,2.116c-0.011,0.96-0.053,2.45-0.095,3.312
				c-0.041,0.862-0.749,3.363-0.84,3.73s-0.488,1.794-0.655,2.362c-0.167,0.569-0.701,2.34-0.806,2.674
				c-0.105,0.335-0.555,1.694-0.761,2.279c-0.206,0.584-0.755,2.667-0.884,3.3s-0.499,2.768-0.577,3.329s-0.473,2.422-0.64,2.897
				c-0.167,0.476-1.216,1.865-1.44,2.265s0.893,1.976,1.59,2.636l2.371,2.251c0.703,0.654,1.867,1.708,2.589,2.342
				c0,0,0.161,0.142,0.836,0.846c0.854,0.891,0.848,1.442,0.848,1.442c-0.013,0.96-0.145,2.038-0.293,2.396
				s-1.713,0.729-2.333,0.733c-0.62,0.003-2.427-0.062-2.641-0.104s-1.531,0.112-2.45,0.355c0,0,0,0,0.236,1.061
				c0.344,1.543-0.211,2.157-0.211,2.157c-0.644,0.712-1.447,1.464-1.784,1.671c-0.337,0.206-2.167,0.496-3.124,0.582l-2.996,0.176
				c-0.958,0.072-2.526,0.104-3.485,0.069c0,0-0.811-0.028-2.07-0.218c-1.141-0.17-1.74-0.865-1.718-2.052
				c0.024-1.368,0.135-2.753,0.398-4.093c0.442-2.248-0.603-2.25-0.603-2.25c-0.96-0.002-2.494,0.176-3.408,0.396
				s-3.875,0.569-4.457,0.684s-2.67,0.565-3.353,0.719s-3.022,0.686-3.679,0.84c-0.657,0.153-2.939,0.627-3.603,0.751
				s-3.122,0.612-3.993,0.791s-3.209,0.669-3.26,0.688c-0.051,0.019-0.958,0.212-1.899,0.405l-5.803,1.195
				c-0.94,0.193-2.359,0.485-3.152,0.648s-3.141,0.671-3.455,0.755c-0.314,0.084-1.93,0.367-2.878,0.515l-5.283,0.843
				c-0.949,0.148-2.336,0.3-3.084,0.336s-2.925-0.771-3.277-0.913c-0.352-0.141-2.015-0.726-2.877-1.146l-2.718-2.043
				c-0.578-0.767-1.258-2.151-1.511-3.077l-0.729-3.445c0.014-0.96,0.042-1.925,0.061-2.145c0.019-0.22,0.488-1.464,0.861-2.331
				c0.374-0.868,1.647-3.704,1.978-4.385c0.331-0.681,1.439-3.084,1.856-3.777c0.418-0.692,2.273-2.938,2.914-3.653l6.395-7.005
				c0.648-0.708,1.754-1.821,2.459-2.473l1.697-1.702c0.717-0.638,1.546-1.423,1.843-1.743c0.296-0.321,1.207-1.965,1.667-2.808
				l2.292-3.266c0.632-0.723,1.39-1.545,1.685-1.825c0.295-0.281,1.244-1.832,1.554-2.741l0.014-2.539
				c-0.304-0.91-0.793-1.916-1.086-2.235c-0.293-0.318-1.345-1.406-1.747-1.662c-0.402-0.256-1.827-0.062-2.049,0.037
				c-0.222,0.099-1.554,0.589-2.48,0.841l-2.473,0.371c-0.958-0.062-2.118-0.304-2.577-0.538c-0.459-0.233-1.684-1.815-2.162-2.486
				c-0.479-0.672-2.651-2.751-3.327-3.432l-2.218-2.77c-0.51-0.813-0.995-1.691-1.078-1.949c-0.083-0.259-0.185-1.327-0.188-1.787
				S132.905,388.946,132.885,388.944z M222.926,340.331c0.035-0.185-0.045-0.736-0.178-1.227c-0.134-0.489-2.036-0.799-2.887-0.854
				s-2.969-1.521-3.283-1.7c-0.314-0.179-2.043-0.119-2.927-0.011s-3.525,0.482-3.916,0.535s-1.875,0.923-2.65,1.489l-2.769,2.022
				c-0.763,0.583-1.553,1.264-1.756,1.513c0,0,0,0-0.165,0.242c-0.467,0.684-0.467,0.684-0.467,0.684
				c-0.508,0.757-1.209,1.87-1.558,2.475c-0.348,0.604,0.168,2.681,0.25,2.967c0.082,0.286,0.422,1.688,0.695,2.466
				c0.273,0.777,2.438,2.813,3.223,3.366l1.533,1.81c0.614,0.737,1.221,1.483,1.347,1.659c0.126,0.175,0.929,0.895,1.484,1.224
				c0.555,0.329,2.123-1.136,2.397-1.565c0.275-0.431,1.509-2.168,2.077-2.941l5.547-7.656c0.564-0.776,1.438-2.065,1.939-2.863
				C221.367,343.166,222.89,340.515,222.926,340.331z M193.215,432.172c0.059-0.332,0.072-0.799,0.03-1.038
				s-0.593-0.621-0.839-0.616c-0.245,0.006-1.322,0.314-1.854,0.539c-0.533,0.224-2.736,0.512-3.693,0.586l-5.672-1.108
				c-0.93-0.24-1.771-0.474-1.868-0.519c-0.098-0.046-0.666-0.172-1.032-0.209c-0.367-0.038-1.407,1.577-1.798,2.454l-0.891,2.031
				c-0.379,0.882-0.668,1.896-0.641,2.251c0.027,0.356,1.021,0.451,1.223,0.378c0.201-0.073,0.944-0.404,1.211-0.551
				s1.64-0.491,2.423-0.665s3.075-1.129,3.496-1.203c0.421-0.075,1.536,0.808,1.659,0.985s1.04,1.171,1.724,1.845l1.733,1.095
				c0.855,0.436,1.949,0.814,2.43,0.843s1.449-1.718,1.632-2.447c0,0,0,0,0.115-0.672c0.166-0.961,0.194-1.164,0.194-1.164
				C192.927,434.037,193.157,432.503,193.215,432.172z M194.929,330.672c0.433-0.102,0.781-0.263,0.772-0.357
				c-0.008-0.096-0.392-0.401-0.835-0.467c-0.443-0.064-1.731-0.018-1.879,0.095c-0.148,0.112-0.399,0.552-0.231,0.707
				S194.496,330.775,194.929,330.672z"/>
			<path fill="none" stroke="#FFFFFF" stroke-width="0.8728" stroke-miterlimit="10" d="M132.885,388.944
				c-0.02-0.002,0.036-0.663,0.125-1.469s0.358-3.244,0.323-3.641c-0.036-0.396-0.885-1.193-1.001-1.263
				c-0.117-0.069-1.066-0.697-1.837-1.269l-2.731-2.607c-0.552-0.785-1.306-1.941-1.676-2.568s-1.433-2.637-1.552-3.066
				s0.605-2.281,1.082-3.115l1.546-2.706c0.5-0.819,1.393-2.11,1.982-2.867l5.055-6.369c0.657-0.7,1.763-1.814,2.458-2.477
				l3.76-3.589c0.734-0.619,1.597-1.288,1.918-1.487s1.573-0.702,2.022-0.771c0.449-0.069,1.617,0.664,1.77,0.817
				c0,0,0,0,0.135,0.143c0.427,0.449,0.427,0.449,0.427,0.449c0.618,0.034,1.292-0.14,1.497-0.385
				c0.205-0.245,0.319-1.845,0.279-2.804c0,0-0.009-0.223-0.092-1.201c-0.137-1.607,1.591-2.812,1.591-2.812
				c0.787-0.549,2.083-1.204,2.879-1.456s3.106-1.216,3.405-1.469c0.299-0.253,0.057-1.776-0.187-2.317c0,0,0,0-0.272-0.465
				c-0.808-1.38-0.73-2.642-0.73-2.642c0.059-0.958,0.13-2.46,0.158-3.337c0.027-0.877-0.989-3.706-1.264-4.625l-0.406-2.729
				c0.112-0.953,0.418-2.256,0.681-2.895c0.262-0.638,1.874-2.548,2.588-3.189l3.837-2.065c0.894-0.35,1.924-0.715,2.289-0.811
				c0.365-0.096,1.987-0.468,2.804-0.565c0.817-0.099,3.699,0.627,4.551,1.07l3.688,3.004c0.598,0.751,1.394,2.051,1.768,2.889
				c0.374,0.839,1.431,3.531,1.725,4.051c0.293,0.519,2.32,0.561,2.778,0.529c0.458-0.032,2.442-0.195,3.39-0.353l2.302-0.903
				c0.82-0.499,1.572-0.984,1.67-1.078c0.098-0.094,0.737-0.471,1.182-0.656c0.444-0.186,1.879,0.821,2.2,1.15
				c0.321,0.33,2.58-0.229,3.505-0.484l5.05-1.774c0.937-0.208,2.426-0.562,3.308-0.786c0.882-0.224,3.784-1.096,4.532-1.19
				s2.586,1.638,2.719,1.809s0.742,1.372,1.091,2.267c0,0,0.11,0.283-0.562,1.266c-0.139,0.203-0.139,0.203-0.139,0.203
				c-0.142,0.229-0.26,0.785-0.261,1.235s1.797,0.569,2.745,0.416l1.936-0.299c0.942-0.182,2.275-0.443,2.962-0.583
				c0.687-0.139,2.563-0.503,2.646-0.505s1.062-0.182,2.005-0.367l8.126-1.604c0.941-0.187,1.859-0.39,2.04-0.451
				c0.181-0.061,1.438-0.304,2.385-0.467l7.305-1.252c0.946-0.161,1.985-0.318,2.309-0.35c0.324-0.032,1.936-0.328,2.877-0.519
				l8.424-1.681c0.94-0.189,2.106-0.388,2.591-0.441s2.523-0.396,3.465-0.582l1.79-0.267c0.945-0.169,2.5-0.392,3.454-0.494
				l3.703-0.376c0.956-0.081,2.037-0.11,2.4-0.066c0.363,0.045,0.816,1.123,0.753,1.496s-0.937,1.155-1.207,1.271
				s-1.434,0.467-1.955,0.603c-0.522,0.136-1.983,0.523-2.086,0.561c-0.102,0.038-1.147,0.259-2.09,0.443l-5.964,1.182
				c-0.942,0.187-2.381,0.486-3.198,0.668c-0.817,0.181-3.364,0.717-3.841,0.809c-0.477,0.091-1.801,0.322-1.883,0.322
				c-0.082,0.001-1.061,0.194-1.999,0.395l-7.677,1.629c-0.938,0.2-2.161,0.46-2.716,0.577c-0.554,0.117-2.416,0.458-2.898,0.526
				c-0.481,0.069-2.025,0.433-2.373,0.585c-0.349,0.152-0.973,1.329-1.097,1.73s0.674,1.461,1.028,1.591
				c0.355,0.129,2.043-0.264,2.965-0.532l1.75-0.455c0.951-0.125,2.137-0.335,2.634-0.468s2.599-0.512,3.548-0.661l2.228-0.281
				c0.953-0.116,2.104-0.153,2.56-0.081c0.456,0.072,1.07,1.366,1.062,1.963c-0.008,0.596-1.132,1.68-1.506,1.848
				c-0.374,0.169-2.17,0.482-3.123,0.601l-3.81,0.737c-0.938,0.204-2.032,0.422-2.433,0.482c-0.401,0.062-2.229,0.26-3.168,0.352
				s-3.762,0.884-4.265,1.002s-2.323,0.356-2.917,0.508s-2.139,1.608-2.522,2.097s-1.677,2.106-1.978,2.544
				c-0.301,0.437-1.162,2.172-1.464,2.713c-0.302,0.54-1.465,2.52-1.886,3.211c-0.421,0.69-1.764,3.137-2.123,3.862
				c-0.36,0.726-1.577,2.969-1.853,3.401s-1.33,2.29-1.779,3.139l-1.368,2.303c-0.473,0.836-1.31,2.121-1.859,2.856
				s-2.499,3.267-3,4.083s-1.074,4.118-1.139,5.075l-0.494,6.079c-0.087,0.956-0.071,2.425,0.037,3.265
				c0.107,0.84,2.345,2.944,2.972,3.508s1.641,3.552,1.678,4.511c0,0,0.263,6.959-0.076,11.3c-0.153,1.958-0.744,4.07-0.744,4.07
				c-0.258,0.924-0.567,2.112-0.688,2.641s-0.307,2.72-0.344,3.679l-0.064,2.116c-0.011,0.96-0.053,2.45-0.095,3.312
				c-0.041,0.862-0.749,3.363-0.84,3.73s-0.488,1.794-0.655,2.362c-0.167,0.569-0.701,2.34-0.806,2.674
				c-0.105,0.335-0.555,1.694-0.761,2.279c-0.206,0.584-0.755,2.667-0.884,3.3s-0.499,2.768-0.577,3.329s-0.473,2.422-0.64,2.897
				c-0.167,0.476-1.216,1.865-1.44,2.265s0.893,1.976,1.59,2.636l2.371,2.251c0.703,0.654,1.867,1.708,2.589,2.342
				c0,0,0.161,0.142,0.836,0.846c0.854,0.891,0.848,1.442,0.848,1.442c-0.013,0.96-0.145,2.038-0.293,2.396
				s-1.713,0.729-2.333,0.733c-0.62,0.003-2.427-0.062-2.641-0.104s-1.531,0.112-2.45,0.355c0,0,0,0,0.236,1.061
				c0.344,1.543-0.211,2.157-0.211,2.157c-0.644,0.712-1.447,1.464-1.784,1.671c-0.337,0.206-2.167,0.496-3.124,0.582l-2.996,0.176
				c-0.958,0.072-2.526,0.104-3.485,0.069c0,0-0.811-0.028-2.07-0.218c-1.141-0.17-1.74-0.865-1.718-2.052
				c0.024-1.368,0.135-2.753,0.398-4.093c0.442-2.248-0.603-2.25-0.603-2.25c-0.96-0.002-2.494,0.176-3.408,0.396
				s-3.875,0.569-4.457,0.684s-2.67,0.565-3.353,0.719s-3.022,0.686-3.679,0.84c-0.657,0.153-2.939,0.627-3.603,0.751
				s-3.122,0.612-3.993,0.791s-3.209,0.669-3.26,0.688c-0.051,0.019-0.958,0.212-1.899,0.405l-5.803,1.195
				c-0.94,0.193-2.359,0.485-3.152,0.648s-3.141,0.671-3.455,0.755c-0.314,0.084-1.93,0.367-2.878,0.515l-5.283,0.843
				c-0.949,0.148-2.336,0.3-3.084,0.336s-2.925-0.771-3.277-0.913c-0.352-0.141-2.015-0.726-2.877-1.146l-2.718-2.043
				c-0.578-0.767-1.258-2.151-1.511-3.077l-0.729-3.445c0.014-0.96,0.042-1.925,0.061-2.145c0.019-0.22,0.488-1.464,0.861-2.331
				c0.374-0.868,1.647-3.704,1.978-4.385c0.331-0.681,1.439-3.084,1.856-3.777c0.418-0.692,2.273-2.938,2.914-3.653l6.395-7.005
				c0.648-0.708,1.754-1.821,2.459-2.473l1.697-1.702c0.717-0.638,1.546-1.423,1.843-1.743c0.296-0.321,1.207-1.965,1.667-2.808
				l2.292-3.266c0.632-0.723,1.39-1.545,1.685-1.825c0.295-0.281,1.244-1.832,1.554-2.741l0.014-2.539
				c-0.304-0.91-0.793-1.916-1.086-2.235c-0.293-0.318-1.345-1.406-1.747-1.662c-0.402-0.256-1.827-0.062-2.049,0.037
				c-0.222,0.099-1.554,0.589-2.48,0.841l-2.473,0.371c-0.958-0.062-2.118-0.304-2.577-0.538c-0.459-0.233-1.684-1.815-2.162-2.486
				c-0.479-0.672-2.651-2.751-3.327-3.432l-2.218-2.77c-0.51-0.813-0.995-1.691-1.078-1.949c-0.083-0.259-0.185-1.327-0.188-1.787
				S132.905,388.946,132.885,388.944z M222.926,340.331c0.035-0.185-0.045-0.736-0.178-1.227c-0.134-0.489-2.036-0.799-2.887-0.854
				s-2.969-1.521-3.283-1.7c-0.314-0.179-2.043-0.119-2.927-0.011s-3.525,0.482-3.916,0.535s-1.875,0.923-2.65,1.489l-2.769,2.022
				c-0.763,0.583-1.553,1.264-1.756,1.513c0,0,0,0-0.165,0.242c-0.467,0.684-0.467,0.684-0.467,0.684
				c-0.508,0.757-1.209,1.87-1.558,2.475c-0.348,0.604,0.168,2.681,0.25,2.967c0.082,0.286,0.422,1.688,0.695,2.466
				c0.273,0.777,2.438,2.813,3.223,3.366l1.533,1.81c0.614,0.737,1.221,1.483,1.347,1.659c0.126,0.175,0.929,0.895,1.484,1.224
				c0.555,0.329,2.123-1.136,2.397-1.565c0.275-0.431,1.509-2.168,2.077-2.941l5.547-7.656c0.564-0.776,1.438-2.065,1.939-2.863
				C221.367,343.166,222.89,340.515,222.926,340.331z M193.215,432.172c0.059-0.332,0.072-0.799,0.03-1.038
				s-0.593-0.621-0.839-0.616c-0.245,0.006-1.322,0.314-1.854,0.539c-0.533,0.224-2.736,0.512-3.693,0.586l-5.672-1.108
				c-0.93-0.24-1.771-0.474-1.868-0.519c-0.098-0.046-0.666-0.172-1.032-0.209c-0.367-0.038-1.407,1.577-1.798,2.454l-0.891,2.031
				c-0.379,0.882-0.668,1.896-0.641,2.251c0.027,0.356,1.021,0.451,1.223,0.378c0.201-0.073,0.944-0.404,1.211-0.551
				s1.64-0.491,2.423-0.665s3.075-1.129,3.496-1.203c0.421-0.075,1.536,0.808,1.659,0.985s1.04,1.171,1.724,1.845l1.733,1.095
				c0.855,0.436,1.949,0.814,2.43,0.843s1.449-1.718,1.632-2.447c0,0,0,0,0.115-0.672c0.166-0.961,0.194-1.164,0.194-1.164
				C192.927,434.037,193.157,432.503,193.215,432.172z M194.929,330.672c0.433-0.102,0.781-0.263,0.772-0.357
				c-0.008-0.096-0.392-0.401-0.835-0.467c-0.443-0.064-1.731-0.018-1.879,0.095c-0.148,0.112-0.399,0.552-0.231,0.707
				S194.496,330.775,194.929,330.672z"/>
		</g>
	</g>
</g>
<path fill-rule="evenodd" clip-rule="evenodd" fill="#808080" stroke="#FFFFFF" stroke-miterlimit="10" d="M57.002,84.527
	c-5.657,1.546-7.79,0.555-10.975-5.305c5.031-2.122,10.034-4.23,16.183-6.821c-3.789-0.854-6.231-1.402-8.901-2.004
	c6.037-7.942,13.588-1.921,20.403-2.878c-1.826-6.845-3.214-13.452-8.345-18.631c-2.543-2.567-4.137-2.742-6.109,0.268
	c-2.005,3.059-4.126,6.042-6.344,9.274c-3.155-4.804-0.938-9.857,5.876-13.978c-3.106-1.897-6.022-3.579-8.833-5.421
	c-2.73-1.787-7.047-2.619-4.943-8.584c3.404,2.64,6.353,5.04,9.43,7.268c1.713,1.239,4.265,3.513,5.339,3.004
	c2.546-1.209,5.552-2.97,4.345-7.155c-1.03-3.576-1.705-7.316-1.999-11.027c-0.2-2.54,0.297-5.251,4.28-3.765
	c6.003,2.236,15.455,15.762,15.325,22.171c-0.004,0.153-0.038,0.312-0.022,0.465c0.421,4.12,0.531,8.304,1.365,12.337
	c0.813,3.935,1.287,9.378,3.911,11.094c2.535,1.654,7.625-0.602,11.593-1.144c0.464-0.062,0.928-0.239,1.385-0.222
	c4.094,0.175,7.803,1.112,10.601,5.314c-6.237,2.042-11.888,3.891-18.775,6.144c2.57,1.168,3.77,1.789,5.023,2.271
	c18.354,7.071,36.803,13.91,55.043,21.258c10.835,4.365,21.962,6.541,33.553,6.897c1.909,0.061,4.166,1.325,5.641,0.66
	c5.346-2.414,10.504-5.279,15.579-8.24c3.073-1.794,5.678-4.42,8.808-6.08c16.654-8.828,33.441-17.397,50.1-26.214
	c4.65-2.46,9.461-4.94,13.398-8.338c4.629-3.996,7.002-4.654,12.938-0.318c-3.018,2.439-5.593,5.236-8.755,6.959
	c-15.476,8.425-31.128,16.527-46.679,24.819c-13.539,7.217-27.613,13.581-39.45,24.527c4.68,2.175,9.043,4.699,13.727,6.269
	c9.3,3.121,18.958,5.221,28.142,8.624c25.025,9.277,49.842,19.126,74.838,28.489c6.584,2.468,13.522,3.992,20.298,5.951
	c0.12,0.38,0.241,0.759,0.36,1.138c-2.746,0.928-5.682,2.985-8.201,2.565c-7.025-1.182-14.053-2.899-20.76-5.298
	c-13.371-4.783-26.521-10.181-39.773-15.29c-6.164-2.376-12.36-4.67-18.541-6.997c2.441,3.823-0.456,4.827-2.67,5.935
	c4.329,4.443,11.147,5.775,13.582,11.709c-0.34,0.444-0.677,0.892-1.016,1.335c-6.927-4.432-13.854-8.858-21.094-13.487
	c-0.285,5.674,1.986,8.962,6.257,11.09c2.483,1.237,3.66,3.548,2.05,5.755c-1.246,1.713-3.672,2.618-5.682,3.677
	c-0.496,0.262-1.412-0.275-2.722-0.583c5.24,6.041,9.95,11.475,14.657,16.903c0.514,0.436,0.348,1.811,0.823,2.905
	c2.671,6.164,7.022,11.324,9.312,17.894c2.207,6.338,2.931,7.276-3.166,10.85c-0.531,0.31-0.986,0.751-1.495,1.103
	c-2.803,1.944-8.224,1.308-11.142-0.472c-3.665-2.234-7.164-5.5-12.295-4.579c1.712,2.652,3.188,4.942,4.852,7.52
	c-2.025-0.733-3.592-1.337-5.185-1.865c-3.866-1.281-8.056-1.962-11.55-3.902c-6.513-3.619-12.478-8.222-18.989-11.843
	c-2.057-1.144-5.648-1.389-7.58-0.319c-1.57,0.874-1.901,4.284-2.404,6.649c-0.251,1.181,0.338,2.542,0.547,3.821
	c-0.198,0.067-0.397,0.135-0.595,0.202c-1.412-2.672-2.823-5.344-4.796-9.081c-0.389,1.941-0.337,2.631-0.646,3.063
	c-1.25,1.753-2.582,4.781-3.938,4.81c-1.975,0.043-4.192-1.871-5.922-3.391c-0.927-0.812-1.192-2.509-1.505-3.863
	c-0.687-2.979-1.116-6.113,2.193-7.836c3.173-1.652,5.349,0.237,7.039,2.761c1.773,2.645,3.474,2.162,5.145-0.027
	c0.82-1.073,1.509-2.248,2.473-3.703c-3.73-3.174-6.87-7.087-10.947-8.955c-3.709-1.695-8.438-1.17-13.367-1.691
	c3.373,3.318,6.077,5.983,8.783,8.646c-0.272,0.319-0.545,0.639-0.817,0.958c-3.21-1.709-6.419-3.419-9.628-5.129
	c-0.306,0.497-0.61,0.996-0.915,1.493c1.592,1.648,3.185,3.299,4.777,4.95c-0.242,0.324-0.483,0.648-0.725,0.972
	c-3.08-1.974-6.159-3.949-9.287-5.954c-2.609,7.82-5.128,8.603-11.466,3.86c-7.623-5.708-15.289-11.357-22.861-17.129
	c-3.731-2.845-7.296-5.909-10.936-8.871c0.407-0.632,0.815-1.263,1.222-1.893c4.451,2.647,8.902,5.296,13.354,7.945
	c-1.887-2.541-4.306-4.188-6.543-6.052c-2.054-1.71-5.434-2.946-3.144-7.326c2.093,1.436,3.915,2.81,5.863,3.968
	c1.127,0.674,2.698,1.706,3.658,1.377c8.034-2.758,15.972-5.792,24.722-9.031c-3.336-2.649-6.084-4.645-8.603-6.895
	c-2.055-1.837-3.786-1.927-6.243-0.556c-8.025,4.491-16.391,8.392-24.285,13.094c-13.028,7.763-28.125,12.166-38.819,23.902
	c-3.2-1.303-6.319-2.575-10.867-4.43c4.939-3.779,8.54-7.265,12.767-9.633c12.111-6.781,24.475-13.115,36.741-19.617
	c6.826-3.619,13.658-7.223,21.921-11.594c-14.25-12.305-27.618-23.866-41.037-35.37c-0.625-0.535-1.958-1.022-2.53-0.72
	c-5.372,2.849-6.51-1.892-6.544-4.661c-0.055-4.392-3.534-3.924-5.545-5.527c-0.722-0.576-1.459-1.137-2.643-2.057
	c-0.851,0.882-2.091,1.989-3.118,3.27c-1.95,2.434-3.661,1.577-4.636-0.605c-0.63-1.406-0.896-3.588-0.227-4.838
	c1.424-2.651,3.561-4.92,6.02-8.158C69.132,81.175,63.072,82.87,57.002,84.527z M133.216,99.103
	c-10.589-3.621-20.84-8.224-31.761-11.559c3.112,2.04,6.134,4.233,9.353,6.086c9.03,5.195,17.741,11.278,27.357,15
	c6.436,2.49,14.193,1.665,21.374,2.066c1.872,0.104,3.797-0.749,5.697-1.162c0.061-0.38,0.124-0.759,0.185-1.141
	C154.674,105.337,143.776,102.714,133.216,99.103z M226.039,131.951c0.164-0.438,0.327-0.876,0.49-1.314
	c-5.642-2.229-11.284-4.459-16.926-6.689c-0.335,0.274-0.671,0.547-1.007,0.821c1.168,3.33,2.337,6.66,3.595,10.249
	c3.213-0.729,6.676,0.147,7.332-4.705C221.993,130.933,224.016,131.441,226.039,131.951z M166.01,162.324
	c-1.929,6.522,2.484,13.996,9.046,15.809C172.041,172.861,169.026,167.592,166.01,162.324z M157.23,177.902
	c-1.499-1.268-2.673-2.288-3.879-3.271c-1.285-1.046-2.6-2.055-3.75-2.959c2.053-0.964,3.836-1.773,5.552-2.703
	c0.064-0.035-0.519-1.811-0.775-1.805c-2.176,0.056-4.345,0.338-6.584,0.557C150.538,178.819,151.532,179.962,157.23,177.902z
	 M238.704,169.661c-2.062-2.477-4.168-4.918-6.727-7.921c-1.745,5.087,2.43,7.042,4.094,9.908c0.422,0.722,2.31,0.592,4.549,1.076
	C239.506,170.926,239.18,170.231,238.704,169.661z M163.125,186.26c0.269-0.486,0.538-0.972,0.806-1.46
	c-1.613-4.807-4.518-6.236-7.862-3.523C158.494,182.99,160.81,184.625,163.125,186.26z"/>
</svg>
