<?xml version="1.0" encoding="utf-8"?>
<!-- Generator: Adobe Illustrator 16.0.0, SVG Export Plug-In . SVG Version: 6.00 Build 0)  -->
<!DOCTYPE svg PUBLIC "-//W3C//DTD SVG 1.1//EN" "http://www.w3.org/Graphics/SVG/1.1/DTD/svg11.dtd">
<svg version="1.1" id="Layer_1" xmlns="http://www.w3.org/2000/svg" xmlns:xlink="http://www.w3.org/1999/xlink" x="0px" y="0px"
	 width="604.225px" height="565.506px" viewBox="0 0 604.225 565.506" enable-background="new 0 0 604.225 565.506"
	 xml:space="preserve">
<path fill-rule="evenodd" clip-rule="evenodd" fill="#414141" stroke="#FFFFFF" stroke-width="1.612" stroke-miterlimit="10" d="
	M209.486,385.184c-13.095,21.863-41.095,22.321-53.255-0.05c-4.698-8.641-4.475-19.921-6.738-29.945
	c-0.598-2.646-1.381-6.188-3.305-7.447c-11.632-7.607-16.533-23.401-8.887-34.531c8.398-12.226,8.585-26.961,6.395-38.923
	c-2.182-11.929,1.79-20.674,4.05-30.733c4.272-19.036,21.378-22.16,35.383-23.636c28.835-3.037,58.078-2.285,87.161-2.866
	c13.978-0.278,27.974-0.317,41.949,0.038c12.374,0.316,24.775,0.904,37.085,2.151c13.039,1.323,25.956,3.827,38.988,5.209
	c2.979,0.316,6.361-2.998,9.315-2.639c5.735,0.697,11.216,3.422,16.949,4.193c9.249,1.241,15.955,5.717,20.69,13.515
	c5.749,9.454,11.38,18.988,17.31,28.329c0.846,1.333,3,2.236,4.696,2.561c11.099,2.116,22.328,3.608,33.339,6.097
	c15.115,3.417,30.21,7.066,45.056,11.491c14.2,4.235,18.732,13.203,15.507,27.676c-0.282,1.27-0.119,2.733,0.19,4.02
	c1.085,4.53,4.02,9.355,3.214,13.47c-3.109,15.795-7.202,31.406-11.317,46.985c-2.578,9.765-9.172,16.184-18.094,20.949
	c-14.282,7.626-41.785,6.704-52.386-8.835c-6.927-10.156-15.221-9.454-24.994-9.021c-6.109,0.271-9.208,2.062-12.028,7.901
	c-8.386,17.351-23.141,26.157-42.263,25.508c-19.101-0.649-32.975-10.45-40.643-28.187c-4.856-11.229-18.811-13.46-26.8-4.046
	c-13.355,15.742-44.826,14.058-53.84-3.429c-2.66-5.159-5.735-6.715-10.746-7.208c-14.841-1.455-29.665-3.109-44.885-4.729
	C214.087,374.819,212.376,380.353,209.486,385.184z M430.124,238.559c-2.493-3.479-8.063-6.452-12.364-6.647
	c-21.876-0.98-43.799-0.861-65.699-1.376c-6.759-0.161-9.336,1.798-7.324,8.96c2.391,8.524,3.441,17.443,6.104,25.867
	c0.816,2.593,4.981,5.832,7.657,5.869c29.718,0.418,59.443,0.261,91.735,0.261C442.61,258.761,437.026,248.189,430.124,238.559z
	 M166.149,236.901c-2.554,0.122-6.375,2.479-7.211,4.708c-2.777,7.39-4.878,15.119-6.248,22.892
	c-0.323,1.839,3.06,6.088,5.017,6.271c9.779,0.922,19.654,1.122,29.489,0.945c2.226-0.038,5.813-2.174,6.376-4.058
	c2.96-9.928,5.153-20.079,7.813-30.977C188.269,236.683,177.191,236.391,166.149,236.901z M308.715,257.96
	c14.363,0.483,14.975,0.896,18.343,14.271c1.101-2.53,3.474-5.292,3.066-7.552c-1.22-6.782-3.158-13.511-5.632-19.947
	c-0.787-2.047-4.049-4.275-6.309-4.426c-11.674-0.771-23.391-1.122-35.09-1.045c-2.164,0.014-5.783,2.315-6.208,4.144
	c-1.699,7.345-2.725,14.899-3.212,22.426c-0.097,1.491,3.166,4.429,5.067,4.598c6.527,0.576,13.139,0.221,20.647,0.221
	C300.139,264.372,299.714,257.657,308.715,257.96z M225.17,238.927c-1.542,9.804-3.096,19.655-4.791,30.413
	c10.351,0.515,19.471,1.278,28.583,1.194c2.05-0.02,5.521-2.727,5.859-4.635c1.526-8.618,2.158-17.397,3.21-26.973
	C246.605,238.927,236.309,238.927,225.17,238.927z M211.56,263.536c-0.513,1.885,1.426,4.434,2.235,6.673
	c1.027-0.183,2.056-0.361,3.084-0.542c1.617-10.342,3.238-20.686,4.854-31.026C210.793,244.361,213.886,254.971,211.56,263.536z
	 M465.375,317.757c2.458-3.146,6.616-6.176,6.855-9.484c0.2-2.809-4.121-5.943-6.438-8.937c-2.662,2.584-5.319,5.17-9.177,8.916
	C460.315,312.265,462.845,315.013,465.375,317.757z M334.508,225.378c0.013-0.396,0.022-0.791,0.033-1.184
	c-20.93,0-41.857,0-62.787,0c0.027,0.393,0.055,0.788,0.08,1.184C292.727,225.378,313.616,225.378,334.508,225.378z
	 M443.858,302.911c-4.166,0-7.508,0-12.124,0c0.255,4.494,0.485,8.57,0.739,13.047c4.311,0,7.663,0,12.31,0
	C444.442,311.112,444.164,307.185,443.858,302.911z M470.164,342.274c2.005-0.48,4.213-4.376,4.386-6.89
	c0.136-1.946-2.736-4.104-4.271-6.165c-1.997,1.877-3.999,3.756-5.998,5.635c-0.84,1.52-1.681,3.035-2.523,4.553
	C464.589,340.495,467.729,342.854,470.164,342.274z M538.371,317.06c1.299,0.053,2.598,0.105,3.9,0.157
	c0.287-5.231,0.577-10.461,0.862-15.691c-1.588-0.01-3.173-0.022-4.763-0.038C538.371,306.679,538.371,311.87,538.371,317.06z
	 M418.829,303.366c-1.404,0.421-4.059,1.021-4.026,1.239c0.565,4.062,1.456,8.077,2.28,12.101c1.675-0.412,3.349-0.823,5.022-1.234
	C421.015,311.436,419.92,307.399,418.829,303.366z"/>
<path fill-rule="evenodd" clip-rule="evenodd" fill="#808080" stroke="#FFFFFF" stroke-width="2.0338" stroke-miterlimit="10" d="
	M305.75,398.718c1.643-5.11,3.186-9.786,4.622-14.495c0.236-0.771,0.084-1.681,0-2.52c-0.404-4.131-0.574-8.373,2.374-11.63
	c3.804-4.203,7.742-8.62,13.872-9.256c5.725-0.596,9.938,2.636,13.557,6.555c2.111,2.287,3.912,4.885,5.692,7.451
	c1.638,2.36,3.079,4.859,4.556,7.324c0.206,0.337,0.062,0.867,0.184,1.276c0.15,0.523,0.289,1.345,0.64,1.475
	c2.321,0.854,3.958,2.286,5.147,4.512c0.557,1.032,1.915,1.656,2.956,2.402c2.661,1.911,5.382,3.739,8.008,5.696
	c1.306,0.975,2.501,2.116,3.651,3.277c1.185,1.196,2.211,2.241,3.944,0.644c0.196-0.181,2.068,0.914,2.563,1.767
	c0.382,0.661-0.175,1.867-0.828,3.32c2.152,1.435,4.325,2.842,6.447,4.318c1.152,0.8,2.175,1.785,3.336,2.563
	c1.183,0.795,2.484,1.402,3.691,2.162c0.637,0.401,1.215,0.912,1.766,1.433c0.319,0.299,0.459,0.891,0.809,1.033
	c2.435,1.001,4.905,1.918,7.339,2.853c1.928-5.509,1.19-11.164,1.285-16.768c0.095-5.938,1.334-11.571,3.714-17.11
	c1.255-2.922,2.231-5.877,3.989-8.607c0.688-1.067,0.275-3.228-0.283-4.631c-1.164-2.903-0.36-5.485,0.909-7.916
	c1.18-2.259,3.04-3.877,5.76-3.024c0.085-4.883-2.252-9.691,0.337-14.529c0.812-1.51,0.73-2.952-0.796-4.43
	c-1.309-1.263-1.948-3.226-2.897-4.874c-0.146-0.246-0.336-0.521-0.574-0.659c-1.911-1.108-1.547-2.517-0.636-4.084
	c1.016-1.752,2.187-0.337,3.295-0.235c0.155,0.014,0.306,0.064,0.561,0.12c0.477-2.053,1.687-2.297,3.427-1.365
	c0.892,0.477,1.881,0.772,2.817,1.163c3.446,1.43,4.964,4.146,6.222,7.617c1.109,3.068,0.712,5.651,0.231,8.602
	c-0.58,3.543-0.523,7.198-0.584,10.805c-0.008,0.565,0.782,1.21,1.309,1.707c1.169,1.104,2.39,2.099,0.276,3.489
	c-0.317,0.208-0.382,0.909-0.436,1.397c-0.266,2.382-0.486,4.768-0.725,7.151c-0.062,0.612-0.286,1.259-0.171,1.834
	c0.964,4.808-0.135,9.371-1.506,13.92c-0.983,3.265-1.326,6.252,0.616,9.624c2.964,5.145,1.999,10.867,1.05,16.51
	c-0.305,1.799,0.125,4.166,1.128,5.668c5.255,7.865,3.904,15.74,0.647,23.756c-0.307,0.753-0.37,1.615-0.493,2.434
	c-0.069,0.461,0.058,0.953-0.048,1.402c-1.21,5.108-2.19,10.293-3.802,15.274c-0.703,2.173-2.47,4.178-4.185,5.802
	c-2.101,1.993-4.799,3.438-3.028,7.1c-0.136-0.034,0.034,0.071,0.16,0.031c1.959-0.568,4.05-1.339,5.634,0.524
	c1.236,1.454,1.956,3.335,3.127,4.853c1.172,1.512,2.468,3.012,3.98,4.162c4.405,3.352,8.589,6.767,10.318,12.391
	c2.38,7.742-1.003,14.346-7.108,18.572c-4.978,3.448-10.7,4.575-16.654,3.563c-6.677-1.137-11.474-5.143-14.928-10.817
	c-2.333-3.835-4.273-7.85-4.742-12.405c-0.061-0.607-0.167-1.267,0.005-1.823c0.568-1.827,0.301-3.245-1.181-4.657
	c-2.204-2.098-1.963-2.036-4.509-0.07c-1.492,1.152-3.448,2.118-5.285,2.312c-3.128,0.331-4.939,2.269-6.729,4.342
	c-1.105,1.28-2.224,1.716-3.662,0.809c-1.087-0.686-2.367-1.313-3.061-2.314c-1.166-1.684-2.403-1.024-3.896-0.834
	c-4.422,0.559-8.75,2.016-13.347-0.087c-2.831-1.296-6.225-1.371-9.37-1.971c-4.054-0.769-8.113-1.514-12.174-2.268
	c-0.23-0.044-0.462-0.101-0.696-0.111c-2.252-0.14-4.526,0.536-6.747-0.856c-0.791-0.497-2.353,0.23-3.56,0.415
	c-0.378,0.056-0.886,0.36-1.095,0.214c-2.445-1.707-5.229-0.385-7.794-0.932c-0.454-0.097-1.03-0.228-1.396-0.042
	c-3.486,1.78-6.423-0.131-9.621-1.104c-3.429-1.042-7.064-1.43-10.625-2.006c-5.116-0.83-10.381-1.093-15.322-2.511
	c-3.676-1.051-7.229-1.112-10.889-1.109c-0.996,0-1.991,0.194-3.152,0.319c-0.221-0.669-0.454-1.379-0.616-1.867
	c-5.416-1.962-10.801-0.038-16.121-0.438c-4.836-0.363-8.882-2.495-10.836-7.393c-0.521-1.306-1.266-2.564-1.542-3.924
	c-0.241-1.191,0.066-2.486,0.07-3.738c0.001-0.758-0.115-1.517-0.196-2.469c-5.152,2.333-9.946,0.987-14.775-0.424
	c-1.717-0.496-3.529-0.844-5.31-0.904c-5.461-0.191-10.791-0.991-15.833-3.15c-5.5-2.354-8.941-6.546-10.071-12.396
	c-0.737-3.822,1.684-6.917,5.67-7.1c3.169-0.145,6.439,0.109,9.536,0.783c2.111,0.456,4.002,1.934,6.224,3.074
	c0-0.543,0.072-0.843-0.011-1.093c-2.508-7.599,0.894-12.884,6.58-17.462c5.236-4.215,10.466-8.472,15.355-13.076
	c4.857-4.569,10.14-8.311,16.437-10.501c2.133-0.741,4.419-1.033,6.62-1.595c11.619-2.975,23.382-3.93,35.27-2.203
	c3.699,0.534,7.299,1.748,11.08,2.683C301.591,398.947,303.729,398.562,305.75,398.718z M233.898,451.752
	c3.298,3.153,4.463,6.393,1.711,9.811c1.226,0.833,2.498,1.268,3.061,2.157c1.92,3.026,4.934,3.531,8.044,3.821
	c0.663,0.061,1.392-0.547,2.089-0.844c-0.584-0.455-1.11-1.033-1.762-1.341c-2.105-1.005-4.315-1.804-6.352-2.926
	c-0.599-0.327-0.756-1.46-1.117-2.222c0.789-0.336,1.555-0.874,2.37-0.959c0.906-0.091,1.891,0.11,2.778,0.382
	c3.754,1.16,7.712,1.743,11.061,4.043c2.843,1.955,5.729,3.847,8.646,5.686c0.296,0.185,1.18-0.023,1.383-0.326
	c1.135-1.691,2.873-1.313,4.466-1.477c1.475-0.155,2.964-0.251,4.418-0.523c4.619-0.867,9.192-2.036,13.84-2.676
	c11.868-1.63,23.676,0.211,35.492,1.036c0.866,0.058,1.729,0.67,2.526,1.134c2.092,1.228,5.22,1.335,6.719,0.128
	c-1.24-1.399-2.469-2.808-3.72-4.198c-2.511-2.79-5.236-5.32-3.628-9.853c0.485-1.362-0.633-3.492-1.472-5.021
	c-0.327-0.593-1.924-0.44-2.907-0.738c-0.729-0.222-1.504-0.5-2.079-0.974c-1.558-1.278-3.202-2.522-4.473-4.06
	c-2.424-2.921-5.242-5.295-8.538-7.123c-1.647-0.916-3.068-2.693-5.306-1.681c-2.135,0.963-3.94,0.76-4.748-0.625
	c-2.185,0.026-3.804,0.136-5.405,0.03c-1.052-0.067-2.077-0.608-3.127-0.663c-6.262-0.34-12.532-0.537-18.791-0.914
	c-2.716-0.167-5.419-0.593-8.114-1.001c-3.101-0.473-5.077,0.97-6.418,3.571c-2.198,4.274-5.567,7.456-9.402,10.221
	C241.478,446.271,237.817,448.921,233.898,451.752z"/>
<g>
	<path fill-rule="evenodd" clip-rule="evenodd" fill="#414141" stroke="#FFFFFF" stroke-width="1.612" stroke-miterlimit="10" d="
		M182.431,428.708c0.819,4.886,1.638,9.773,2.483,14.816c-5.48,0.771-10.103,3.182-14.24,6.596
		c-4.093,3.38-7.498,7.359-10.546,12.113c3.232,1.18,6.282,2.316,9.358,3.39c0.343,0.119,0.839-0.267,1.23-0.203
		c1.225,0.192,2.479,0.362,3.632,0.778c1.126,0.41,2.09,1.26,3.217,1.656c3.674,1.304,7.393,2.489,11.313,3.792
		c0.004,0.368,0.013,1.088,0.024,1.961c2.373,0.909,4.841,1.744,7.209,2.796c2.477,1.098,4.796,2.559,7.299,3.591
		c2.915,1.2,5.947,2.129,8.941,3.135c2.464,0.827,4.931,1.648,7.426,2.371c0.947,0.274,1.983,0.234,2.97,0.394
		c0.477,0.075,1.167,0.137,1.36,0.452c1.263,2.058,3.521,1.999,5.419,2.684c1.339,0.485,2.679,0.993,4.057,1.333
		c0.582,0.143,1.285-0.26,1.895-0.167c0.645,0.098,1.285,0.429,1.851,0.778c0.401,0.248,0.614,0.877,1.024,1.033
		c4.25,1.596,8.476,3.281,12.805,4.623c2.464,0.764,4.727,1.72,6.617,3.444c0.306,0.282,0.465,1.061,0.301,1.441
		c-0.258,0.612-0.857,1.546-1.292,1.536c-1.736-0.05-3.52-0.213-5.182-0.693c-3.453-1-6.851-2.204-10.25-3.388
		c-1.182-0.41-1.828-0.159-2.209,1.072c-0.459,1.477-0.932,2.981-1.651,4.338c-0.398,0.75-1.318,1.223-2.003,1.823
		c-0.409-0.83-1.127-1.649-1.163-2.495c-0.07-1.716-0.004-3.511,0.434-5.162c0.554-2.095-0.477-3.017-2.103-3.56
		c-2.994-1.004-6.024-1.916-9.069-2.77c-1.146-0.322-2.398-0.616-3.549-0.478c-0.808,0.1-1.846,0.787-2.225,1.502
		c-1.306,2.481-1.209,2.519-3.856,1.692c-4.146-1.295-8.291-2.597-12.454-3.836c-1.191-0.355-2.367-1.136-3.717-0.217
		c-0.277,0.188-0.999-0.285-1.515-0.444c-6.406-1.967-12.812-3.929-19.215-5.898c-0.962-0.298-1.911-0.632-2.84-0.615
		c-0.976,0.004-1.952,0.004-2.928,0.018c-3.352,0.044-6.096-2.064-9.276-2.631c-0.362-0.062-0.806-0.314-1.071-0.19
		c-1.227,0.587-2.078-0.164-2.386-1.012c-0.174-0.481,0.672-1.336,1.189-2.255c-0.388-0.151-0.97-0.41-1.574-0.607
		c-12.56-4.12-25.115-8.26-37.687-12.338c-3.971-1.289-5.89-4.335-7.294-7.937c-0.236-0.604-0.678-1.284-1.217-1.584
		c-2.268-1.263-4.626-2.363-6.92-3.583c-3.468-1.845-6.953-3.575-11.049-3.362c-0.537,0.028-1.102-0.155-1.629-0.318
		c-8.531-2.663-17.06-5.326-25.579-8.016c-2.842-0.897-2.844-1.322-2.099-4.151c1.171-4.428,2.028-8.94,3.011-13.422
		c0.094-0.425,0.104-0.866,0.216-1.281c0.639-2.357,2.323-3.188,4.352-1.845c5.631,3.725,11.252,7.472,16.722,11.424
		c8.746,6.32,18.294,11.163,28.048,15.647c2.053,0.94,4.367-1.106,4.349-3.854c-0.021-3.592-0.158-7.186-0.243-10.777
		c-0.014-0.56-0.045-1.117-0.043-1.675c0.009-2.745,0.845-3.573,3.555-3.435c1.603,0.081,3.237,0.092,4.792,0.428
		c1.586,0.346,1.731,1.251,0.812,2.599c-0.38,0.56-0.676,1.31-0.675,1.973c0.005,3.78,0.097,7.56,0.191,11.342
		c0.056,2.316,1.122,3.068,3.286,2.487c0.634-0.168,1.379-0.229,2.01-0.078c3.221,0.775,6.591,1.305,8.702,4.335
		c0.065,0.095,0.191,0.163,0.303,0.205c2.387,0.872,2.961,2.73,2.569,5.516c1.111-1.174,2.059-1.916,2.676-2.87
		c7.544-11.694,18.538-18.729,31.339-23.355c0.494-0.178,0.94-0.479,1.411-0.729C182.195,428.629,182.312,428.668,182.431,428.708z
		 M137.919,448.533c-1.096,0.636-2.125,0.998-2.809,1.696c-0.716,0.733-1.372,1.899,0.214,2.507
		c2.006,0.769,4.075,1.379,6.125,2.062c2.384-5.562,2.539-5.104-2.523-7.427c-0.226-0.104-0.465-0.177-0.7-0.257
		c-5.027-1.748-5.929-1.62-6.725,3.834c-0.017,0.11,0.049,0.234,0.092,0.416c0.808,0.37,1.431,0.632,1.985-0.579
		C134.347,449.11,135.749,448.25,137.919,448.533z M215.473,490.938c0.118-0.189,0.236-0.38,0.354-0.57
		c-0.627-0.479-1.186-1.143-1.896-1.4c-3.252-1.162-6.535-2.244-9.837-3.262c-0.457-0.143-1.072,0.234-1.616,0.37
		c0.362,0.381,0.651,0.957,1.091,1.112c3.495,1.224,7.014,2.375,10.535,3.527C214.538,490.854,215.015,490.867,215.473,490.938z
		 M221.387,487.347c-6.216-2.065-12.436-4.133-18.65-6.2c-0.056,0.164-0.109,0.329-0.163,0.496
		C208.463,484.721,214.838,486.298,221.387,487.347z M234.753,492.048c-2.016-1.465-9.501-3.736-10.548-3.195
		C225.779,490.168,233.7,492.567,234.753,492.048z M254.853,499.882c-1.793-0.642-1.793-0.642-2.281,1.147
		c0.54,0.181,1.085,0.363,1.711,0.57C254.473,501.025,254.638,500.522,254.853,499.882z"/>
</g>
</svg>
