<?xml version="1.0" encoding="utf-8"?>
<!-- Generator: Adobe Illustrator 16.0.0, SVG Export Plug-In . SVG Version: 6.00 Build 0)  -->
<!DOCTYPE svg PUBLIC "-//W3C//DTD SVG 1.1//EN" "http://www.w3.org/Graphics/SVG/1.1/DTD/svg11.dtd">
<svg version="1.1" id="Layer_1" xmlns="http://www.w3.org/2000/svg" xmlns:xlink="http://www.w3.org/1999/xlink" x="0px" y="0px"
	 width="630.986px" height="595.28px" viewBox="0 0 630.986 595.28" enable-background="new 0 0 630.986 595.28"
	 xml:space="preserve">
<g>
	<path fill-rule="evenodd" clip-rule="evenodd" fill="#808080" stroke="#FFFFFF" stroke-width="2.2998" stroke-miterlimit="10" d="
		M527.113,210.766c-9.25,0.126-13.047,3.362-15.205,12.512c-4.653,19.709-16.461,33.921-37.57,36.701
		c-22.104,2.911-40.319-6.373-48.852-26.277c-6.423-14.982-16.395-18.043-29.736-18.922c-3.431-0.222-6.86-0.662-10.293-0.67
		c-64.932-0.18-129.867-0.064-194.794-0.676c-11.76-0.115-18.152,1.671-21.19,15.095c-5.213,22.992-26.464,36.141-49.211,33.541
		c-22.43-2.561-39.524-19.486-40.677-42.521c-0.48-9.656-3.752-11.943-12.587-12.623c-12.073-0.93-15.587-6.118-14.853-18.38
		c6.433-1.411,12.995-2.848,20.98-4.6c-2.004-6.916-3.607-12.685-5.354-18.412c-8.703-28.523-1.867-43.304,27.238-48.638
		c31.805-5.83,64.254-8.355,96.517-11.324c9.06-0.833,15.569-1.518,18.756-11.755c2.45-7.87,8.725-14.5,11.528-22.313
		c9.794-27.322,28.768-41.959,57.406-46.192c21.754-3.214,43.137-11.972,64.783-12.319c73.73-1.179,147.504,0.268,221.26,0.744
		c4.074,0.027,8.146,0.341,13.606,0.579c0,64.827,0,128.522,0,193.833C561.952,209.072,544.539,210.531,527.113,210.766z
		 M307.849,48.148c-19.295-0.451-38.531-1.125-57.765-1.082c-2.608,0.006-5.907,3.108-7.674,5.626
		c-4.984,7.093-9.334,14.627-14.278,22.54c6.559,4.262,15.174,7.113,5.977,17.581c25.465,0,48.783,0,73.741,0
		C307.849,78.224,307.849,64.299,307.849,48.148z M391.108,71.895c-0.055-3.335-0.445-6.666-0.732-10.711
		c-13.79,0-26.945,0-42.064,0c0,9.469-0.318,18.81,0.297,28.09c0.112,1.657,4.056,4.276,6.311,4.366
		c11.376,0.449,22.778,0.207,36.221,0.207C391.14,85.429,391.216,78.66,391.108,71.895z M476.332,71.742
		c0.175-9.115-2.637-12.618-11.639-11.398c-3.364,0.456-6.859-0.124-10.271,0.114c-6.7,0.47-18.306-0.467-19.163,2.098
		c-2.758,8.233-1.868,17.812-1.553,26.843c0.058,1.563,4.037,3.935,6.433,4.268c4.858,0.669,9.876,0.199,14.826,0.199
		C476.361,93.886,475.914,93.877,476.332,71.742z M506.984,64.177c0.599,9.653,1.277,19.3,1.941,28.951
		c12.16,0.181,24.325,0.557,36.474,0.287c1.411-0.032,3.816-3.578,3.919-5.59c0.438-8.626,0.187-17.296,0.187-26.659
		c-14.54,0-27.688,0-41.287,0C507.516,62.821,506.944,63.517,506.984,64.177z"/>
	<g>
		<path fill-rule="evenodd" clip-rule="evenodd" fill="#808080" stroke="#FFFFFF" stroke-width="2.2998" stroke-miterlimit="10" d="
			M282.333,157.2c0,25.748,20.889,46.621,46.657,46.621c25.765,0,46.658-20.873,46.658-46.621c0-25.75-20.894-46.626-46.658-46.626
			C303.222,110.574,282.333,131.45,282.333,157.2z"/>
		<g>
			
				<rect x="320.729" y="120.6" fill-rule="evenodd" clip-rule="evenodd" fill="#FFFFFF" stroke="#FFFFFF" stroke-width="2.2998" stroke-miterlimit="10" width="15.712" height="73.198"/>
			
				<rect x="292.388" y="150.637" fill-rule="evenodd" clip-rule="evenodd" fill="#FFFFFF" stroke="#FFFFFF" stroke-width="2.2998" stroke-miterlimit="10" width="73.199" height="15.71"/>
		</g>
	</g>
</g>
<path fill-rule="evenodd" clip-rule="evenodd" fill="#808080" stroke="#FFFFFF" stroke-width="2.2998" stroke-miterlimit="10" d="
	M212.41,523.268c-45.205,4.624-82.687-6.246-113.047-39.783c-12.328,12.621-24.396,24.967-36.461,37.314
	c-1.437-1.446-2.875-2.891-4.312-4.338c28.914-30.133,57.829-60.261,87.549-91.233c-4.999-2.25-9.963-3.214-13.011-6.161
	c-4.334-4.188-9.504-9.519-10.268-14.931c-1.195-8.463,5.06-14.473,13.421-16.04c14.994-2.808,30.096-5.192,45.25-6.902
	c10.558-1.191,16.478-6.922,17.229-17.678c0.271-3.917,2.506-7.698,4.24-12.664c2.282,1.99,3.25,2.473,3.669,3.25
	c6.861,12.738,17.42,13.535,26.215,1.693c1.224-1.65,1.965-4.96,1.146-6.617c-4.305-8.708-1.092-14.56,5.273-20.919
	c18.334-18.32,36.023-37.284,54.029-55.937c2.641-2.739,5.612-5.159,8.431-7.725c0.748,0.709,1.498,1.421,2.246,2.128
	c-5.649,6.167-11.718,12.011-16.74,18.647c-2.015,2.662-1.725,7.069-2.484,10.678c3.722,0.396,8.063,2.226,11.055,0.931
	c10.818-4.681,16.252-2.978,26.35,10.072c5.612,7.254,16.6,6.765,21.213,0.152c4.564,0.334,8.401,0.618,12.238,0.897
	c-0.596-3.47-1.189-6.939-2.043-11.907c3.098,2.32,5.688,4.267,8.632,6.477c0-3.079,0-6.104,0-9.131
	c0.648-0.197,1.299-0.395,1.947-0.593c1.343,3.653,2.687,7.304,5.567,15.129c1.566-3.729,2.479-5.897,3.391-8.067
	c6.836,6.274,8.489-1.477,11.135-4.573c5.686-6.643,10.521-14.015,16.101-20.761c1.958-2.373,5.073-3.79,9.35-6.853
	c-0.507,3.755-0.319,4.95-0.815,5.675c-21.466,31.247-42.271,62.985-64.721,93.512c-21.723,29.529-45.561,57.493-67.715,86.718
	c-26.464,34.915-52.124,70.437-78.134,105.696c-1.516,2.055-2.659,4.783-4.692,5.968c-2.718,1.583-6.135,1.967-9.255,2.863
	c0.391-2.91-0.167-6.482,1.328-8.626C193.762,548.083,202.319,536.892,212.41,523.268z"/>
<path fill-rule="evenodd" clip-rule="evenodd" fill="#414141" stroke="#FFFFFF" stroke-width="1.5413" stroke-miterlimit="10" d="
	M365.408,302.057c2.067-1.651,3.436-2.738,4.799-3.827c0.8,0.42,1.595,0.84,2.392,1.26c-4.449,9.735-8.292,19.812-13.495,29.129
	c-7.034,12.598-14.945,24.72-22.811,36.832c-4.945,7.622-10.69,10.524-19.35,3.769c-7.156-5.584-29.059,2.524-32.329,11.269
	c-5.862,15.658-14.364,28.6-30.246,36.257c-11.773,5.679-18.283,16.192-22.305,28.82c-1.684,5.293-7.063,9.486-11.009,13.961
	c-2.482,2.811-5.467,5.167-8.148,7.805c-2.745,2.705-5.505,7.966-8.067,7.854c-15.034-0.666-15.502,11.025-18.902,20.468
	c-1.054,2.931-2.008,6.023-3.719,8.562c-2.461,3.646-6.248,10.062-8.276,9.636c-5.44-1.15-10.716-4.74-15.169-8.431
	c-4.126-3.42-6.437-9.161-10.729-12.229c-9.496-6.795-16.744-24.057-13.537-35.361c1.997-7.036,7.138-7.999,12.863-5.345
	c3.429,1.588,6.165,4.676,10.304,7.96c6.022-3.89,12.4-8.011,19.841-12.818c-3.312-3.962-5.237-7.604-8.247-9.642
	c-15.798-10.681-31.854-20.983-47.852-31.364c-7.699-4.993-15.384-9.739-12.991-21.117c2.48-11.796,10.763-15.695,21.395-16.141
	c24.555-1.031,49.119-1.852,73.685-2.543c7.254-0.203,13.348-1.224,13.592-11.2c-5.188,0-10.239,0.508-15.128-0.15
	c-4.389-0.59-8.604-2.464-12.896-3.769c2.871-5.03,4.537-12.537,8.833-14.624c12.577-6.101,26.017-10.654,39.465-14.646
	c12.543-3.725,25.532-5.947,38.797-8.938c0.396-12.033,9.693-25.5,21.073-28.533c10.763-2.867,15.85,4.669,20.342,12.088
	c7.563,12.486-2.35,19.281-10.278,27.462c11.798,2.416,19.273,8.76,19.913,21.521c18.973-11.374,24.081-25.914,10.021-46.208
	c1.547,0.229,3.092,0.453,4.64,0.678c2.087,2.478,4.171,4.955,6.26,7.431c1.207-0.019,2.415-0.041,3.62-0.062
	c0.445-4.928,0.892-9.855,1.378-15.205c1.16,0.912,3.503,2.753,6.717,5.276c0.342-3.352,0.643-6.283,0.939-9.218
	c0.824-0.098,1.647-0.198,2.471-0.296C363.926,292.629,364.585,296.838,365.408,302.057z M211.612,411.059
	c-10.151-1.587-18.214-2.848-26.273-4.11c-0.332,0.706-0.663,1.405-0.992,2.11c6.302,3.998,12.608,7.996,19.396,12.305
	C206.031,418.364,207.83,416.01,211.612,411.059z"/>
</svg>
