<?xml version="1.0" encoding="utf-8"?>
<!-- Generator: Adobe Illustrator 16.0.0, SVG Export Plug-In . SVG Version: 6.00 Build 0)  -->
<!DOCTYPE svg PUBLIC "-//W3C//DTD SVG 1.1//EN" "http://www.w3.org/Graphics/SVG/1.1/DTD/svg11.dtd">
<svg version="1.1" id="Layer_1" xmlns="http://www.w3.org/2000/svg" xmlns:xlink="http://www.w3.org/1999/xlink" x="0px" y="0px"
	 width="461.972px" height="595.28px" viewBox="0 0 461.972 595.28" enable-background="new 0 0 461.972 595.28"
	 xml:space="preserve">
<path fill-rule="evenodd" clip-rule="evenodd" fill="#808080" stroke="#FFFFFF" stroke-width="1.5258" stroke-miterlimit="10" d="
	M164.887,446.696c1.345-1.517,2.69-3.032,4.036-4.55c0.558,0.378,1.123,0.759,1.682,1.141c0-3.083,0-6.168,0-10.884
	c1.763,2.916,2.737,4.525,3.71,6.135c0.376-0.09,0.751-0.175,1.129-0.265c-1.011-6.479-2.024-12.955-3.037-19.438
	c0.24-0.049,0.477-0.104,0.717-0.156c1.304,4.19,2.607,8.378,3.91,12.572c0.628-0.023,1.255-0.051,1.885-0.076
	c0-16.551-0.036-33.099,0.009-49.649c0.026-9.466-0.428-18.986,0.399-28.391c1.573-17.879-11.487-27.848-20.641-39.957
	c-0.638-0.846-2.93-1.392-3.85-0.917c-5.792,2.997-11.392,6.373-17.116,9.516c-2.252,1.232-4.662,2.179-7.099,3.296
	c-3.635-10.353-3.635-10.353-12.173-6.959c0.562,1.728,1.136,3.484,2.365,7.249c-11.189-2.812-21.254-5.338-31.185-7.833
	c-2.839-9.27,6.542-13.449,8.367-20.763c-4.441-3.976-2.87-7.397,6.924-12.375c-2.69-1.12-4.375-1.823-6.726-2.804
	c-0.293-1.984-0.546-5.095-1.244-8.101c-1.106-4.762-6.341-7.404-9.161-3.982c-5.013,6.084-10.906,3.77-16.566,3.486
	c-4.989-0.25-9.928-1.511-16.39-2.575c2.145-4.848,4.015-8.558,5.435-12.432c1.537-4.208,5.016-10.106,3.442-12.523
	c-2.772-4.259-8.761-5.925-12.595-0.971c-2.784-2.346-5.039-4.242-8.862-7.461c0.849-2.129,2.785-6.163,4.031-10.393
	c0.96-3.26,7.725-5.744,1.674-10.157c1.921-2.462,3.384-5.656,5.872-7.215c3.927-2.461,8.543-3.827,13.111-5.757
	c-1.669-2.948-2.664-4.696-3.877-6.835c-2.303,1.137-4.4,2.165-6.891,3.394c-1.048-2.051-2.002-3.919-3.131-6.127
	c-1.392,0.428-2.883,0.891-5.978,1.845c2.12-5.245,4.06-9.318,5.4-13.583c1.082-3.439,7.594-6.214,1.639-10.737
	c2.251-2.477,4.105-6.375,6.839-7.147c6.136-1.728,10.959-3.308,10.894-11.109c-0.013-1.794,3.162-3.616,5.308-5.892
	c-0.327-0.975-0.85-2.538-1.528-4.557c-1.72,0.644-3.29,1.228-6.551,2.446c2.479-5.844,4.422-10.195,6.171-14.621
	c1.244-3.144,5.23-5.352,2.479-10.114c-0.567-0.983,4.344-5.68,7.271-7.983c3.381-2.665,7.107-3.424,7.82-9.676
	c0.574-5.044,6.943-9.493,10.911-14.062c3.527-4.055,7.819-7.412,5-14.12c-0.566-1.341,3.033-5.686,5.538-6.804
	c5.123-2.286,10.893-2.965,10.322-10.843c-0.083-1.134,3.589-3.062,5.79-3.7c2.235-0.649,4.847-0.457,7.215-0.104
	c11.855,1.767,16.355-1.4,18.956-13.532c0.245-1.15,0.793-2.232,0.635-1.799c6.27-1.264,11.39-2.673,16.602-3.199
	c2.928-0.293,6.15,0.459,8.986,1.462c7.06,2.493,13.787,6.715,21.01,7.772c7.261,1.058,15.182,0.041,22.4-1.744
	c7.004-1.73,13.21,0.998,14.623,7.954c0.438,2.161,2.584,4.255,4.438,5.783c2.993,2.462,8.36,3.83,9.237,6.717
	c2.189,7.213,2.613,14.999,3.304,22.596c0.181,1.987-1.247,4.122-2.458,7.754c3.28-0.188,5.89-0.057,8.387-0.531
	c6.971-1.324,13.271-2.186,16.709,6.505c1.218,3.069,4.993,5.12,7.579,7.66c3.64,3.575,3.102,3.843,2.877,9.733
	c-0.103,2.661,2.693,5.462,4.258,8.153c2.596,4.461,5.924,8.851-0.483,13.062c-0.771,0.503-1.439,2.801-1.102,3.105
	c5.065,4.586,2.479,14.158,11.331,16.489c5.942,1.564,9.759,5.123,6.294,12.412c-0.979,2.062,0.393,5.204,0.561,7.853
	c0.329,5.236,0.568,10.481,0.912,16.933c-3.329-1.648-5.34-2.642-9.558-4.729c0.749,5.03,0.365,8.979,1.967,11.802
	c2.965,5.216,7.289,9.646,10.678,14.65c3.424,5.055,6.399,10.41,9.259,15.112c-4.891,3.024-8.18,5.06-11.969,7.406
	c0.745,1.275,2.057,3.527,3.369,5.774c4.479,7.663,1.403,15.187-7.079,17.515c-1.033,0.286-2.043,1.008-2.818,1.773
	c-0.655,0.652-0.746,2.112-1.449,2.44c-6.46,3.029-12.998,5.887-19.833,8.935c-1.296-4.152-0.915-9.972-9.312-6.981
	c2.788,5.611,5.358,11.172,8.283,16.544c2.525,4.655-0.929,15.148-5.767,17.479c-2.331,1.123-4.328,2.938-6.456,4.47
	c-0.581,0.419-1.158,1.398-1.619,1.33c-7.183-1.062-11.811,3.838-16.7,7.743c-6.951-9.594-6.951-9.594-12.47-7.465
	c0.25,1.911,0.507,3.897,0.751,5.757c-7.924,3.653-14.051-8.641-21.525-1.824c-2.907-2.2-5.668-4.292-9.669-7.322
	c2.72-5.041,6.382-11.831,10.262-19.021c-11.656-0.424-18.43,5.75-18.392,15.931c0.163,43.213,0.359,86.422,0.543,129.631
	c0.005,1.361,0,2.724,0,5.44c2.779-2.426,4.486-3.915,6.248-5.453c1.285,3.147-4.62,9.548,4.327,9.623
	c0.173,1.395,0.442,3.608,0.715,5.822C197.912,446.696,181.399,446.696,164.887,446.696z M170.187,311.53
	c1.753-1.16,3.7-1.723,3.965-2.729c2.854-10.788,5.627-21.681,1.244-32.689c-0.487-1.226-3.335-2.781-4.22-2.36
	c-4.207,2.004-8.327,4.362-12.017,7.188c-1.481,1.139-3.04,4.418-2.425,5.678C160.822,294.945,165.487,302.99,170.187,311.53z
	 M147.348,222.556c-3.032-2.791-5.269-5.379-8.002-7.237c-4.675-3.176-7.998-6.849-8.525-12.835
	c-0.253-2.882-0.928-6.472-2.823-8.208c-1.265-1.155-5.009,0.391-6.991,0.644c0.636,13.545,4.015,24.949,14.051,33.425
	C138.78,226.59,142.447,224.865,147.348,222.556z M141.359,148.246c7.474-6.756,11.345-19.967,8.601-25.717
	c-2.868-6.004-5.892-11.994-8.043-18.267c-2.893-8.442-2.942-8.726-10.096-5.148c4.863,10.088,9.715,20.158,14.483,30.05
	c-4.188,4.154-7.788,7.724-11.748,11.646C136.267,142.682,138.676,145.313,141.359,148.246z M200.2,279.083
	c1.07-0.632,2.087-1.177,3.049-1.811c8.332-5.46,8.325-5.532,3.49-14.857c-0.383-0.744-0.486-1.976-0.135-2.691
	c4.541-9.256,4.718-21.022,15.313-26.832c0.266-0.146,0.276-0.769,0.444-1.286c-2.083-0.325-4.113-0.644-6.005-0.939
	C209.35,246.363,194.888,259.032,200.2,279.083z M260.254,145.12c-1.829-1.568-3.864-3.484-6.084-5.154
	c-1.17-0.879-2.755-1.987-3.982-1.812c-1.426,0.206-3.92,2.101-3.77,2.581c0.723,2.318,1.684,5.102,3.5,6.411
	c2.389,1.719,6.546,3.883,8.369,2.908c4.956-2.644,9.449-6.604,9.408-13.167c-0.606-0.386-1.213-0.774-1.822-1.162
	C264.232,138.467,262.592,141.212,260.254,145.12z M255.145,184.514c-5.484,2.149-10.216,4.005-16.386,6.426
	c0.867-3.856,1.29-5.717,2.075-9.2c-4.235,1.591-7.344,2.503-10.167,3.975c-0.837,0.439-1.298,2.516-1.096,3.705
	c0.138,0.829,1.68,2.015,2.615,2.032c8.584,0.154,17.172,0.089,27.173,0.089C257.406,188.284,256.361,186.543,255.145,184.514z
	 M172.513,88.234c0.065,0.891,0.129,1.783,0.195,2.674c3.255-0.62,7.431-0.193,9.579-2.075c4.665-4.082,4.418-9.724,2.275-15.407
	C180.308,78.654,176.411,83.442,172.513,88.234z M128.363,235.947c-6.107-11.544-11.915-22.529-17.721-33.511
	c-0.639,0.381-1.278,0.764-1.919,1.145C116.188,213.792,113.496,230.268,128.363,235.947z M191.154,230.557
	c0.607,0.889,1.213,1.78,1.818,2.664c3.604,0,7.205,0,11.405,0c-0.995-4.811-0.938-9.878-6.843-8.799
	C195.113,224.863,193.263,228.417,191.154,230.557z M190.904,185.328c4.836-10.163,12.718-5.211,18.939-7.069
	c-7.182,0.562-13.618-9.87-21.097-1.061C189.121,178.614,189.595,180.398,190.904,185.328z M117.999,149.13
	c6.506,0.784,12.793,1.538,20.491,2.465C131.869,143.135,122.398,142.568,117.999,149.13z M211.171,140.652
	c10.47-4.018,15.034-8.996,11.726-13.047c-1.522,0.281-3.278,0.605-5.296,0.977c0.672,2.196,1.195,3.911,1.951,6.375
	c-3.88,0-7.07,0-11.106,0C209.508,137.174,210.352,138.938,211.171,140.652z M203.726,84.524c-1.201,3.802-2.505,7.942-3.812,12.081
	c0.522,0.33,1.043,0.657,1.565,0.981c3.544-2.065,7.09-4.13,10.172-5.931C208.826,89.114,206.545,87.06,203.726,84.524z
	 M107.656,153.022c0.922-0.584,1.843-1.168,2.765-1.752c-0.884-2.571-1.048-6.224-2.846-7.417c-1.807-1.202-5.238,0.051-7.958,0.229
	c-0.126,0.754-0.248,1.509-0.373,2.263C102.046,148.567,104.853,150.796,107.656,153.022z M204.727,153.225
	c0.714-0.053,1.435-0.107,2.152-0.164c-0.488-4.64-0.534-9.402-1.742-13.846c-0.354-1.303-4-1.713-5.702-2.364
	C201.453,143.091,203.089,148.157,204.727,153.225z M182.66,188.418c0.451-0.331,0.902-0.662,1.353-0.993
	c-2.099-6.139-4.198-12.282-6.301-18.424c-0.773-0.235-1.547-0.467-2.323-0.704c-0.519,1.079-1.518,2.178-1.47,3.231
	c0.198,4.554,7.4,6.839,4.242,12.831C177.93,184.799,181.08,187.023,182.66,188.418z"/>
<path fill-rule="evenodd" clip-rule="evenodd" fill="#414141" stroke="#FFFFFF" stroke-width="1.5963" stroke-miterlimit="10" d="
	M175.185,527.944c-1.443,0-2.55,0.01-3.658-0.004c-0.558-0.007-1.416,0.155-1.61-0.126c-0.339-0.492-0.589-1.479-0.318-1.883
	c0.805-1.19,1.82-2.263,2.878-3.249c0.671-0.624,1.633-0.926,2.335-1.528c1.073-0.92,1.257-1.943-0.113-2.828
	c-2.355-1.522-4.701-3.058-7.085-4.529c-0.401-0.246-1.191-0.455-1.447-0.246c-2.493,2.039-4.914,4.171-7.785,6.648
	c1.744,0.267,2.837,0.433,4.65,0.713c-1.379,1.178-2.24,2.129-3.288,2.768c-2.41,1.469-4.418,3.146-6.088,5.583
	c-2.61,3.809-6.841,5.389-11.31,4.668c-4.39-0.705-7.024,1.133-9.081,4.491c-1.785,2.913-3.483,5.889-5.089,8.907
	c-1.253,2.358-1.171,4.771,0.161,7.146c0.798,1.426,1.353,2.991,2.197,4.384c1.356,2.243,0.889,4.372-2.245,7.875
	c-1.989,2.223-4.524,2.831-6.974,1.528c-4.785-2.541-8.271-6.338-9.853-11.602c-0.736-2.448-1.102-5.007-1.683-7.742
	c-3.172,1.353-4.13-1.071-5.012-3.204c-1.426-3.445-2.617-6.988-3.88-10.501c-0.555-1.539,0.01-2.507,1.567-3.015
	c4.659-1.513,9.25-3.272,13.973-4.55c5.318-1.437,9.901-4.085,14.104-7.502c0.361-0.293,0.493-1.185,0.368-1.708
	c-0.617-2.549-0.212-4.699,2.094-5.597c8.592-3.349,13.857-10.328,19.41-17.048c0.645-0.779,1.351-1.506,2.048-2.276
	c0.245,0.021,0.48-0.008,0.675,0.062c4.492,1.654,4.283,1.439,7.818-1.909c4.673-4.425,9.683-8.502,14.616-12.644
	c1.533-1.29,2.938-5.384,2.026-7.243c-0.258-0.528-1.152-0.908-1.821-1.049c-7.526-1.608-15.044-0.612-22.555,0.195
	c-3.408,0.365-6.876,1.317-10.213,0.978c-10.836-1.104-20.699,3.558-31.124,4.753c-2.034,0.236-3.749,0.179-5.45-1.172
	c-3.068-2.429-6.832-2.224-10.306-1.656c-2.839,0.466-5.511,1.978-8.238,3.073c-3.807,1.53-7.558,3.21-11.406,4.625
	c-1.953,0.719-3.674-0.091-4.249-2.143c-1.061-3.785-1.884-7.642-2.8-11.469c-0.177-0.74-0.174-1.555-0.488-2.225
	c-3.407-7.239-4.03-14.983-4.169-22.806c-0.037-2.098,1.207-3.077,3.337-2.858c2.587,0.262,4.094,1.896,5.342,4.033
	c1.674,2.866,3.183,5.948,5.399,8.351c4.497,4.876,10.457,6.517,16.976,6.248c0.589-0.023,1.342-0.166,1.717-0.544
	c1.303-1.325,2.561-1.603,4.073-0.371c0.25,0.202,0.889,0.287,1.101,0.118c1.806-1.454,3.893-1.209,6.019-1.42
	c3.285-0.331,6.542-1.215,9.738-2.121c2.039-0.578,4.127-1.349,5.871-2.511c4.017-2.68,7.714-6.062,12.781-6.39
	c3.631-0.235,7.31,0.313,10.955,0.203c1.773-0.051,3.558-0.697,5.272-1.269c1.276-0.426,2.334-1.525,3.814-0.262
	c0.411,0.346,1.499,0.043,2.226-0.153c5.256-1.431,10.498-2.918,15.749-4.366c1.2-0.33,2.625-1.114,3.595-0.756
	c2.753,1.019,4.165-0.906,6.169-1.915c2.438-1.229,5.248-1.74,7.927-2.461c3.898-1.047,7.794-1.188,11.752-0.063
	c1.094,0.31,2.473,0.012,3.616-0.346c1.766-0.553,3.496-0.697,5.323-0.869c2.657-0.249,5.179-1.973,8.037-3.188
	c-3.913-2.904-7.391-5.2-10.473-7.942c-0.958-0.854-1.162-2.925-1.109-4.416c0.035-1.112,0.805-2.446,1.664-3.234
	c3.543-3.26,7.061-6.602,10.974-9.374c1.623-1.15,4.21-0.938,6.355-1.368c1.361-0.271,2.773-0.425,4.059-0.915
	c2.37-0.905,4.486-0.85,6.515,0.827c0.833,0.685,1.893,1.093,2.769,1.732c0.384,0.285,0.848,0.868,0.804,1.258
	c-0.241,2.021-0.637,4.026-1.024,6.313c-0.372-0.087-1.074-0.307-1.793-0.399c-1.504-0.198-3.04-0.565-4.52-0.424
	c-1.554,0.151-3.486,0.924-3.191,2.724c0.264,1.618,0.791,3.713,3.176,4.087c3.657,0.574,7.335,1.103,10.937,1.95
	c1.678,0.395,3.209,1.453,4.766,2.291c0.743,0.402,1.402,0.968,2.075,1.489c1.364,1.063,2.294,0.757,3.517-0.508
	c3.183-3.294,6.344-6.699,9.978-9.443c5.169-3.906,11.469-1.401,13.088,4.905c1.954,7.616,0.445,15.394-6.825,19.93
	c-0.856,0.533-0.852,2.3-1.538,3.291c-1.424,2.055-0.547,3.288,1.139,4.529c0.655,0.481,1.268,1.261,1.502,2.024
	c1.666,5.415,3.198,10.867,4.835,16.286c0.524,1.739,1.309,3.402,1.823,5.145c0.298,1.02,0.69,2.307,0.312,3.138
	c-0.277,0.608-1.778,0.6-2.679,0.994c-1.776,0.775-3.671,1.416-5.23,2.517c-3.065,2.159-3.139,2.767-2.062,6.378
	c0.767,2.57-2.126,5.98-5.59,6.564c-3.913,0.664-7.864,1.15-11.737,1.999c-4.251,0.932-8.422,2.225-12.65,3.27
	c-1.194,0.297-2.467,0.28-3.706,0.406c-0.104-0.242-0.207-0.483-0.31-0.724c-1.54,2.288-3.077,4.573-4.777,7.098
	c-0.876-0.763-1.552-1.353-2.407-2.095c-0.43,0.633-0.883,1.221-1.252,1.855c-0.858,1.485-1.726,2.001-3.312,0.701
	c-1.292-1.058-2.988-1.611-4.333-2.618c-0.467-0.353-0.745-1.517-0.537-2.109c1.582-4.469,4.131-8.182,8.622-10.237
	c2.922-1.34,5.604-2.928,7.396-5.792c0.508-0.817,1.681-1.25,2.594-1.783c5.351-3.121,10.712-6.22,16-9.285
	c-1.864-4.298-3.547-4.827-6.851-2.586c-0.967,0.651-1.888,1.38-2.766,2.147c-3.172,2.776-6.822,4.064-10.969,5.125
	c-8.262,2.098-16.6,4.574-24.194,8.331c-4.888,2.416-8.55,7.354-12.682,11.239c-1.699,1.599-3.033,3.602-4.816,5.082
	c-4.473,3.716-5.761,9.148-7.976,14.089c-1.1,2.449-1.737,5.22-5.147,5.673c-0.776,0.104-1.559,0.982-2.122,1.679
	C178.207,523.853,176.654,525.997,175.185,527.944z"/>
<path fill-rule="evenodd" clip-rule="evenodd" fill="#808080" stroke="#FFFFFF" stroke-width="1.6611" stroke-miterlimit="10" d="
	M384.26,390.459c12.911,10.315,19.006,27.818,36.828,34.864c-1.28,1.605-2.815,3.54-4.495,5.648
	c5.319,6.585,10.595,13.108,15.867,19.639c-0.521,0.47-1.041,0.94-1.562,1.411c-6.951-3.869-10.479-11.188-15.971-16.559
	c-5.494-5.377-11.602-10.177-18.117-15.818c-4.201,15.514-6.226,30.157-0.811,45.179c1.129,3.131,0.891,7.201-0.074,10.459
	c-2.973,10.007,0.403,18.5,5.976,26.473c1.322,1.897,4.195,2.744,6.232,4.233c2.959,2.161,5.804,4.468,8.7,6.717
	c-0.291,0.787-0.581,1.574-0.87,2.364c-3.212,0.179-6.493,0.846-9.629,0.437c-8.092-1.062-16.168-2.38-24.115-4.155
	c-1.406-0.314-3.026-3.323-3.059-5.112c-0.095-5.852,0.51-11.709,0.827-17.565c0.27-4.97,0.862-9.897-7.011-9.916
	c-1.277-0.004-3.433-3.646-3.656-5.758c-1.02-9.545-1.435-19.146-2.226-28.72c-0.116-1.438-1.064-2.811-1.642-4.212
	c-2.719-6.639-5.439-13.277-7.724-18.851c-5.916,15.921-10.747,33.79-11.14,52.758c-0.096,4.574-4.912,8.903-5.793,13.65
	c-1.467,7.883-1.721,16-2.084,24.037c-0.479,10.541-3.959,14.294-13.377,13.682c-7.084-0.458-9.967-5.077-6.06-10.978
	c7.448-11.257,6.382-22.387,2.032-34.367c-1.68-4.614-1.349-10.681,0.188-15.451c3.199-9.933,5.012-19.146-1.725-28.506
	c-1.543-2.144-1.336-5.909-0.953-8.807c0.953-7.246,3.003-14.383,3.582-21.639c0.391-4.954,0.83-12.979-1.868-14.512
	c-7.888-4.469-3.979-10.027-4.385-15.465c-0.241-3.256-1.561-7.236-3.881-9.417c-14.753-13.857-13.869-28.455-6.848-46.127
	c5.132-12.911,11.912-22.866,23.372-30.343c4.314-2.814,8.83-5.343,14.047-8.484c-3.044-2.701-5.008-4.024-6.372-5.783
	c-1.205-1.558-2.978-4.27-2.367-5.314c3.472-5.933,6.836-12.247,11.777-16.913c2.573-2.43,8.369-2.574,12.599-2.278
	c6.427,0.448,10.75,3.854,10.825,10.909c0.017,1.822,0.906,3.854,1.979,5.416c3.92,5.716,3.02,8.756-3.357,11.904
	c-2.103,1.041-5.347,3.235-5.172,4.546c0.309,2.332,2.346,5.105,4.497,6.448c12.07,7.531,20.42,17.34,23.324,31.271
	c3.121,14.963,7.554,29.722,9.702,44.8c0.948,6.642-1.478,14.179-4.165,20.614C395.179,389.09,388.817,389.199,384.26,390.459z"/>
</svg>
