<?xml version="1.0" encoding="utf-8"?>
<!-- Generator: Adobe Illustrator 16.0.0, SVG Export Plug-In . SVG Version: 6.00 Build 0)  -->
<!DOCTYPE svg PUBLIC "-//W3C//DTD SVG 1.1//EN" "http://www.w3.org/Graphics/SVG/1.1/DTD/svg11.dtd">
<svg version="1.1" id="Layer_1" xmlns="http://www.w3.org/2000/svg" xmlns:xlink="http://www.w3.org/1999/xlink" x="0px" y="0px"
	 width="501.409px" height="469.014px" viewBox="0 0 501.409 469.014" enable-background="new 0 0 501.409 469.014"
	 xml:space="preserve">
<g>
	<path fill-rule="evenodd" clip-rule="evenodd" fill="#414141" stroke="#FFFFFF" stroke-width="1.4726" stroke-miterlimit="10" d="
		M368.5,242.635c-1.445-0.411-2.864-0.884-4.312-1.215c-2.66-0.607-4.299-2.223-4.071-4.679c0.479-5.182,1.08-10.361,1.847-15.511
		c0.403-2.712,3.143-4.263,5.582-3.688c1.696-1.315,3.26-2.582,4.882-3.769c2.576-1.888,3.934-4.466,3.108-7.51
		c-1.208-4.445-0.524-8.721,0.262-13.06c0.063-0.355,0.083-0.725,0.155-1.369c-3.544,1.4-6.912,1.021-10.333,0.234
		c-1.021-0.231-2.241,0.151-3.319,0.44c-3.943,1.067-7.82,2.876-11.813,3.177c-6.547,0.496-13.19,0.382-19.741-0.142
		c-5.134-0.413-7.49-3.382-7.005-8.536c0.528-5.569,1.87-11.057,2.707-16.604c0.172-1.153-0.063-2.526-0.555-3.59
		c-1.306-2.818-2.922-5.488-4.281-8.288c-1.122-2.309-0.748-3.229,1.808-3.678c2.973-0.522,6.017-0.689,9.035-0.906
		c2.243-0.166,2.894-0.832,2.641-3.058c-0.025-0.228-0.11-0.443-0.146-0.667c-0.283-1.749-1.936-3.574-0.003-5.234
		c2.284-1.96,3.924-1.971,7.24-0.254c0.315-0.42,0.66-0.867,0.987-1.325c0.742-1.042,1.457-2.105,2.233-3.121
		c0.216-0.284,0.785-0.365,0.891-0.651c1.474-3.973,5.15-5.842,8.006-8.492c0.997-0.923,1.975-1.472,3.079-0.15
		c0.186,0.22,0.479,0.531,0.695,0.509c3.833-0.341,5.216,3.005,7.491,4.976c1.104,0.956,1.925,2.363,3.167,3
		c0.736,0.377,2.074-0.257,3.083-0.601c1.308-0.447,2.561-1.059,3.836-1.598c0.274,0.139,0.556,0.284,0.832,0.425
		c-0.403-1.891-0.85-3.771-1.198-5.672c-0.962-5.268-1.899-10.542-2.818-15.82c-0.377-2.163-0.628-4.352-1.039-6.509
		c-0.416-2.195,0.866-3.459,2.981-2.818c2.31,0.704,4.604,1.468,6.931,2.107c1.407,0.385,1.836,1.173,1.836,2.609
		c-0.007,8.148,1.84,15.939,4.838,23.469c0.453,1.138,1.437,2.062,2.283,3.234c1.082-0.421,2.114-0.827,3.401-1.331
		c-0.518-2.708-1.198-5.347-1.484-8.032c-0.366-3.509-0.479-7.047-0.583-10.577c-0.042-1.417,0.208-2.844,0.372-4.262
		c0.057-0.511,0.084-1.164,0.399-1.49c2.666-2.773,5.071-5.956,8.182-8.104c5.249-3.618,11.553-2.434,17.072,2.44
		c1.077,0.953,2.25,1.844,3.151,2.947c0.672,0.825,1.421,1.977,1.36,2.934c-0.388,6.095-0.46,6.089,2.197,12.241
		c1.126-1.065,2.099-2.023,3.119-2.923c0.328-0.288,0.805-0.608,1.196-0.59c2.569,0.123,4.361-1.22,6.203-2.796
		c0.844-0.726,2.312-0.682,3.441-1.127c2.578-1.019,5.146-2.075,7.676-3.216c1.442-0.652,2.837-1.116,3.695,0.626
		c0.773,1.571-0.213,2.514-1.562,3.251c-2.053,1.116-4.056,2.323-6.182,3.555c1.004,1.858,1.931,3.57,2.837,5.241
		c-0.845,0.506-1.602,0.964-2.526,1.518c-1.1-1.417-2.315-2.859-3.386-4.398c-0.906-1.297-2.142-1.444-3.303-0.851
		c-1.858,0.946-3.661,2.062-5.29,3.355c-0.438,0.35-0.489,1.778-0.148,2.402c0.874,1.612,0.234,2.323-1.145,3.009
		c-2.238,1.114-4.483,2.244-6.607,3.561c-0.759,0.469-1.197,1.48-1.729,2.278c-0.154,0.231-0.04,0.659-0.209,0.868
		c-2.202,2.676-0.308,4.374,1.228,6.45c1.73,2.338,2.869,5.105,4.457,7.565c0.634,0.982,1.656,2.119,2.697,2.36
		c3.508,0.825,7.103,1.277,10.768,1.891c2.016-3.185,4.259-6.735,6.527-10.269c0.038-0.059,0.399,0.091,1.014,0.244
		c-2.011,3.828-3.957,7.539-5.973,11.381c0.576,0.403,1.21,0.692,1.629,1.172c0.955,1.085,2.626,1.694,2.024,3.82
		c-0.216,0.756,0.76,1.893,1.28,2.805c3.68,6.436,6.265,13.275,7.964,20.49c0.371,1.563,1.639,2.9,2.121,4.458
		c3.051,9.92,5.263,19.933,3.79,30.456c-0.5,3.589,0.169,7.386-0.618,10.877c-0.99,4.368-0.532,8.422,0.302,12.684
		c0.588,3,0.266,6.177,0.375,9.271c0.026,0.664,0.037,1.38,0.294,1.974c0.357,0.832,1.528,1.894,1.312,2.295
		c-0.685,1.273-1.686,2.557-2.89,3.324c-1.121,0.714-2.658,0.772-3.688,1.037c-0.895,4.066-1.781,8.097-2.785,12.667
		c-0.029,4.282,0.13,9.121-1.378,14.102c-1.723,5.685-7.462,6.485-10.908,10.263c0.524,1.05,1.082,2.11,1.595,3.193
		c2.223,4.679,2.456,9.287-0.212,13.946c-0.613,1.069-0.748,2.554-0.708,3.833c0.094,2.894-1.144,4.27-4.059,4.135
		c-2.418-0.11-3.291,0.833-3.046,3.274c0.097,0.984,0.28,1.973,0.233,2.948c-0.07,1.537,0.505,2.63,1.5,3.823
		c3.008,3.613,3.301,8.052,3.15,12.502c-0.052,1.545,0.171,2.729,1.379,3.822c1.058,0.953,1.931,2.145,2.755,3.323
		c2.609,3.711,4.656,7.545,4.083,12.411c-0.37,3.148-0.004,6.372-0.055,9.562c-0.062,3.436-1.17,6.22-4.765,7.511
		c-0.55,0.196-1.082,1.195-1.142,1.867c-0.354,3.93-0.562,7.873-0.818,11.814c-0.202,3.073-0.785,6.189-0.481,9.214
		c0.261,2.578,1.262,5.196,2.438,7.537c1.688,3.361,3.958,6.422,5.717,9.746c0.659,1.246,0.597,2.877,0.83,4.335
		c0.044,0.275-0.15,0.594-0.09,0.863c0.864,3.826,0.876,3.84-2.768,5.026c-3.565,1.164-7.209,1.223-10.771,0.188
		c-3.233-0.938-5.557-3.006-6.5-6.409c-0.541-1.939-0.909-3.91-2.894-5.209c-0.708-0.462-0.9-2.017-0.972-3.094
		c-0.257-3.839-0.665-7.7-0.451-11.524c0.366-6.701-0.978-13.057-3.1-19.386c-5.559-1.007-7.444-5.586-8.162-10.177
		c-1.158-7.448-0.906-14.937,2.151-22.162c0.707-1.675,0.154-4.178-0.495-6.071c-1.396-4.083-2.214-8.115-1.836-12.483
		c0.366-4.285-1.411-8.161-3.309-11.916c-0.235-0.47-0.766-0.958-0.714-1.384c0.511-4.263-1.45-6.875-4.953-9.188
		c-2.368-1.564-2.254-4.704-2.209-7.535c0.081-4.714,1.267-9.462-0.266-14.146c-0.183-0.551-0.341-1.106-0.428-1.388
		c0,5.233,0.032,10.68-0.015,16.128c-0.02,2.348,0.011,4.728-0.39,7.021c-0.256,1.466-1.176,2.855-1.959,4.181
		c-0.616,1.046-1.508,1.926-2.227,2.917c-2.543,3.49-2.583,7.689-3.259,11.706c-0.062,0.36-0.187,0.907-0.004,1.088
		c2.6,2.598,1.24,5.556,0.716,8.362c-0.329,1.763-0.471,3.274,0.487,4.959c1.333,2.333,1.018,4.775-0.214,7.186
		c-0.414,0.808-0.508,1.957-0.321,2.864c0.513,2.495,1.646,4.916-0.032,7.444c-0.259,0.387,0.221,1.263,0.362,1.914
		c0.808,3.687,1.727,7.355,2.381,11.069c0.397,2.262-0.468,4.162-2.553,5.404c-0.843,0.504-1.532,1.301-2.412,1.706
		c-2.603,1.195-3.1,3.449-3.235,5.946c-0.189,3.479-0.627,6.966-0.51,10.433c0.073,2.166,0.726,4.409,1.561,6.435
		c0.979,2.364,0.811,7.283-0.949,9.192c-1.326,1.442-2.913,2.649-4.356,3.985c-0.269,0.247-0.448,0.601-0.62,0.931
		c-0.85,1.61-1.978,3.146-2.471,4.861c-2.948,10.249-17.181,10.967-24.063,6.478c-1.387-0.905-1.763-4.512-0.25-6.617
		c1.348-1.869,3.075-3.585,4.944-4.935c4.05-2.924,6.561-6.941,8.969-11.16c1.326-2.323,2.052-4.63,1.631-7.253
		c-0.264-1.647-0.719-3.268-0.946-4.918c-0.517-3.803-0.952-7.616-1.397-11.43c-0.038-0.331,0.183-0.696,0.145-1.028
		c-0.172-1.477,0.138-3.482-0.704-4.328c-3.292-3.312-4.573-7.419-5.636-11.729c-0.541-2.192-1.39-4.315-1.855-6.521
		c-0.197-0.949-0.035-2.16,0.414-3.02c1.895-3.627,4.037-7.125,5.908-10.761c0.527-1.024,0.779-2.421,0.585-3.55
		c-0.91-5.303-0.424-10.264,2.707-14.819c1.143-1.66,0.22-7.327-1.39-8.534c-0.406-0.306-1.562-0.287-1.858,0.046
		c-1.429,1.582-2.657,1.109-3.873-0.137c-2.85-2.917-3.946-6.602-4.321-10.516c-0.18-1.877-0.144-3.804,0.08-5.675
		c0.152-1.279,0.557-2.672,1.281-3.703c1.494-2.126,1.655-4.373,0.4-6.373c-1.801-2.865-2.026-5.554-1.069-8.795
		c1.369-4.642,2.294-9.427,3.156-14.194c0.27-1.483,0.08-3.271-0.521-4.651c-1.957-4.493-0.895-8.417,1.685-12.215
		c2.789-4.11,4.22-8.599,3.758-13.62C368.328,244.144,368.444,243.546,368.5,242.635z M429.588,247.198
		c2.754-0.3,5.001-0.524,7.24-0.797c1.353-0.165,1.893-0.87,1.268-2.204c-0.318-0.685-0.595-1.398-0.98-2.045
		c-1.848-3.122-2.537-6.336-1.629-9.994c0.466-1.863,0.085-3.935,0.085-5.912c-0.297-0.057-0.594-0.111-0.891-0.168
		c-1.269,1.683-2.646,3.296-3.743,5.083c-0.329,0.542-0.039,2.19,0.252,2.269c2.844,0.77,1.991,3.405,2.628,5.161
		c1.116,3.078-0.156,4.407-3.646,3.794C429.996,243.836,429.823,245.267,429.588,247.198z M438.009,274.536
		c0.234-0.057,0.399-0.049,0.501-0.128c0.237-0.18,0.455-0.395,0.664-0.612c2.131-2.223,1.176-4.949,1.209-7.512
		c0.015-1.254,0.066-2.514,0.01-3.77c-0.05-1.046,0.009-2.208-0.427-3.1c-0.514-1.055-1.434-1.956-2.312-2.774
		c-1.17-1.091-1.177-2.101-0.305-3.374c0.48-0.708,0.68-1.603,1.008-2.416c-0.165-0.093-0.328-0.184-0.492-0.277
		c-1.337,0.619-2.675,1.24-3.965,1.837c0.641,2.13,1.114,4.038,1.789,5.874c0.66,1.809,1.527,3.541,2.296,5.311
		c1.035,2.375,1.717,4.849-0.046,7.099C436.774,272.177,437.26,273.273,438.009,274.536z M440.57,283.722
		c-2.462,2.033-2.902,8.039-0.936,11.142C441.259,292.302,441.798,286.482,440.57,283.722z M422.651,131.108
		c0.174,0.253,0.35,0.509,0.521,0.764c1.239-0.621,2.502-1.204,3.704-1.889c0.297-0.169,0.4-0.673,0.593-1.021
		c-0.431-0.156-1.027-0.576-1.266-0.427C424.971,129.312,423.825,130.236,422.651,131.108z"/>
	<path fill-rule="evenodd" clip-rule="evenodd" fill="#808080" stroke="#FFFFFF" stroke-width="1.4726" stroke-miterlimit="10" d="
		M381.328,187.303c-2.072,0-4.15-0.027-6.226,0.007c-2.345,0.041-4.603-0.19-6.802-1.171c-1.012-0.449-2.269-0.53-3.404-0.499
		c-4.813,0.137-9.621,0.371-14.434,0.572c-0.33,0.017-0.682-0.015-0.989,0.085c-4.598,1.482-9.384,0.897-14.081,1.282
		c-1.771,0.145-3.335,0.609-4.948,1.421c-2.424,1.222-5.02,2.151-7.618,2.97c-1.049,0.333-2.291,0.032-3.447,0.04
		c-1.238,0.007-2.48-0.048-3.707,0.073c-1.902,0.18-2.926,1.33-3.875,3.025c-1.833,3.278-2.012,6.393-0.977,10.004
		c0.807,2.813,1.152,5.988,0.738,8.866c-0.497,3.452-1.436,6.961-3.724,9.881c-3.041,3.886-6.471,7.365-10.624,10.008
		c-1.496,0.946-3.339,1.619-5.093,1.825c-3.007,0.355-6.119,0.723-8.952-1.01c-0.7-0.433-1.477-0.779-2.261-1.029
		c-3.269-1.06-5.087-3.551-6.472-6.471c-0.25-0.523-0.531-1.059-0.646-1.617c-0.844-4.181-3.841-7.072-6.149-10.374
		c-0.094-0.135-0.214-0.256-0.328-0.375c-0.769-0.769-1.638-1.208-2.657-0.524c-0.907,0.606-0.963,1.546-0.582,2.448
		c0.594,1.405,0.679,2.808,0.704,4.335c0.055,3.461-1.506,6.426-2.444,9.576c-0.487,1.643-1.671,2.857-3.165,3.707
		c-2.432,1.381-4.317,3.327-5.939,5.572c-1.125,1.557-1.705,3.24-1.229,5.15c0.836,3.36,0.607,6.768,0.478,10.162
		c-0.04,1.055-0.22,2.204-0.698,3.121c-0.763,1.462-1.022,2.919-1.008,4.538c0.016,1.487-0.131,3-0.441,4.449
		c-0.2,0.926-0.749,1.812-1.287,2.623c-0.402,0.607-1.031,1.068-1.561,1.598c-2.245,2.233-2.348,2.764-0.978,5.66
		c1.54,3.262,1.763,6.722,1.455,10.222c-0.133,1.525-0.026,2.927,0.423,4.4c0.374,1.222,0.581,2.613,0.405,3.868
		c-0.563,4.079-0.648,8.069,0.55,12.082c0.49,1.646,0.596,3.436,0.679,5.174c0.123,2.581,0.367,5.103,1.202,7.586
		c0.316,0.942,0.114,2.118-0.07,3.151c-0.389,2.194-0.903,4.369-1.401,6.546c-0.295,1.288-0.521,2.613-1.017,3.828
		c-0.829,2.043-1.216,4.125-1.207,6.312c0.026,6.56-0.026,13.115,0.098,19.672c0.03,1.528,0.6,3.06,0.995,4.569
		c0.437,1.671,0.974,3.32,1.427,4.991c0.15,0.552,0.094,1.169,0.262,1.72c1.438,4.699,0.276,8.963-2.021,13.105
		c-1.917,3.46-3.121,7.134-2.593,11.178c0.116,0.898,0.169,1.854,0.512,2.671c0.949,2.261,1.167,4.63,1.493,7.024
		c0.412,3.03,0.963,6.088,1.886,8.995c0.84,2.641,3.321,3.76,5.799,4.587c0.777,0.26,1.695,0.129,2.439,0.439
		c1.434,0.598,2.966,1.169,4.136,2.14c1.686,1.402,2.13,3.277,1.699,5.605c-0.75,4.071-3.221,5.707-7.048,5.997
		c-1.901,0.143-3.794,0.442-5.694,0.61c-2.764,0.247-5.401-0.145-8.052-1.11c-2.066-0.753-4.341-1.097-6.549-1.25
		c-4.04-0.279-6.376-2.653-5.195-6.504c1.416-4.608,1.138-8.86-0.223-13.392c-0.966-3.223-1.188-6.645-2.524-9.84
		c-0.676-1.619-0.699-3.584-0.703-5.391c-0.002-4.195-1.478-7.773-4.083-10.961c-4.34-5.312-5.936-11.375-5.051-18.142
		c0.204-1.564,0.297-3.142,0.538-4.695c0.728-4.74-0.892-8.99-2.662-13.214c-0.417-0.989-0.889-1.952-1.284-2.95
		c-0.575-1.454-1.122-2.92-1.638-4.394c-0.298-0.855-0.664-1.726-0.736-2.613c-0.35-4.299-0.748-8.603-0.866-12.911
		c-0.111-4.142,0.013-8.296,0.196-12.443c0.118-2.686-0.063-5.252-0.964-7.832c-0.563-1.608-0.64-3.402-0.831-5.124
		c-0.229-2.058-0.273-4.142-0.558-6.191c-0.087-0.635-0.597-1.537-1.106-1.693c-0.525-0.161-1.531,0.247-1.898,0.734
		c-1.343,1.781-2.48,3.717-3.745,5.557c-1.591,2.319-3.069,4.744-4.89,6.868c-3.418,4.005-6.393,8.2-8.21,13.214
		c-0.98,2.706-2.499,5.219-3.746,7.829c-0.958,2.01-2.016,3.988-2.771,6.076c-0.986,2.722-3.179,4.209-5.378,5.655
		c-2.77,1.819-4.521,4.125-5.34,7.429c-0.69,2.786-2.014,5.427-3.193,8.068c-1.11,2.49-2.411,4.896-3.602,7.351
		c-0.214,0.441-0.366,0.932-0.447,1.418c-0.832,4.898-3.242,9.004-6.419,12.704c-2.237,2.606-3.986,5.521-5.316,8.65
		c-0.604,1.42-0.683,3.055-1.073,4.574c-0.323,1.263-0.549,2.611-1.17,3.725c-3.045,5.476-4.379,11.185-3.222,17.459
		c0.66,3.582,0.935,7.234,1.324,10.859c0.287,2.662-0.485,5.149-1.854,7.359c-0.661,1.062-1.77,2.094-2.912,2.553
		c-2.295,0.925-4.722,1.602-7.153,2.091c-3.417,0.685-5.865-0.695-7.703-3.684c-1.263-2.056-1.875-4.189-1.846-6.593
		c0.052-4.391-0.121-8.786,0.043-13.173c0.063-1.697,0.758-3.373,1.211-5.046c0.304-1.121,0.688-2.216,1.038-3.324
		c0.226-0.71,0.379-1.452,0.688-2.125c1.104-2.398,2.332-4.746,3.365-7.176c0.442-1.041,0.685-2.229,0.73-3.368
		c0.097-2.318,0.055-4.644-0.028-6.967c-0.146-4.018-0.029-7.932,2.099-11.573c0.633-1.086,0.604-2.556,0.892-3.848
		c0.445-2.014,0.895-4.026,1.359-6.038c0.278-1.209,0.571-2.417,0.887-3.617c0.46-1.759,0.964-3.511,1.417-5.271
		c0.309-1.203,0.801-2.418,0.799-3.623c-0.009-3.313,1.169-6.159,3.012-8.794c2.327-3.324,4.687-6.63,7.067-9.918
		c0.532-0.735,1.18-1.393,1.818-2.041c4.147-4.213,5.863-9.328,5.532-15.155c-0.065-1.138-0.308-2.331-0.765-3.366
		c-0.997-2.265-1.356-4.604-1.315-7.039c0.031-1.744,0.117-3.489,0.083-5.229c-0.04-2.049,0.12-3.994,1.843-5.439
		c0.183-0.151,0.34-0.393,0.4-0.622c1.167-4.51,4.771-7.758,6.263-12.086c0.422-1.23,0.893-2.521,0.905-3.788
		c0.04-3.762,0.093-7.463,2.067-10.864c0.387-0.663,0.359-1.599,0.424-2.416c0.1-1.238,0.108-2.485,0.168-3.729
		c0.112-2.311,1.062-4.14,3.035-5.417c2.732-1.771,4.087-4.273,3.928-7.559c-0.021-0.411-0.024-0.849,0.091-1.239
		c0.886-3.022-0.113-5.352-2.542-7.199c-0.593-0.451-1.103-1.012-1.693-1.467c-1.798-1.387-2.825-3.082-3.014-5.455
		c-0.196-2.462-0.698-4.93-1.336-7.323c-0.483-1.819-1.269-3.586-2.137-5.263c-1.114-2.153-1.15-3.135,0.525-4.902
		c0.965-1.021,2.026-1.968,3.143-2.82c3.888-2.972,5.354-7.026,5.375-11.745c0.005-0.993-0.008-2.005-0.179-2.977
		c-0.396-2.244,0.14-4.223,1.175-6.221c0.708-1.367,1.134-2.926,1.424-4.451c0.735-3.863,3.514-4.999,6.696-2.643
		c1.959,1.45,2.073,1.438,4.07-0.08c1.642-1.246,3.305-2.426,5.071-3.524c2.896-1.792,5.214-4.347,6.271-7.77
		c1.008-3.273,3.209-5.281,6.179-7.023c4.309-2.533,8.937-2.119,13.514-2.518c1.129-0.099,2.152,0.22,2.887,1.143
		c0.823,1.032,1.878,1.272,3.118,1.041c0.405-0.077,0.826-0.075,1.24-0.075c3.151-0.013,3.537-0.286,2.89-3.476
		c-1.027-5.082-0.534-10.084,0.313-15.089c0.504-2.983,2.477-5.182,4.336-7.393c3.228-3.828,7.805-4.435,12.362-4.889
		c3.924-0.392,7.77,0.454,11.614,1.13c1.551,0.273,3.119,0.592,4.683,0.623c2.238,0.042,4.171,0.738,6.111,1.809
		c3.023,1.675,4.863,4.191,5.835,7.396c0.688,2.287,1.268,4.618,1.807,6.949c0.517,2.208-0.48,3.825-2.151,5.197
		c-1.146,0.937-2.166,2.032-3.243,3.056c-1.509,1.437-2.016,3.229-1.689,5.227c0.306,1.867,0.27,3.561-0.961,5.192
		c-0.758,1.002-0.344,1.942,0.893,2.289c1.879,0.522,3.906,0.759,5.454-0.658c1.867-1.703,3.948-1.869,6.254-1.646
		c1.403,0.138,2.818,0.108,4.229,0.123c0.494,0.001,1.058,0.041,1.467-0.172c0.525-0.278,1.137-0.724,1.305-1.233
		c0.106-0.312-0.473-0.966-0.88-1.303c-0.361-0.302-0.905-0.394-1.374-0.557c-1.408-0.495-2.833-0.949-4.233-1.468
		c-1.442-0.53-2.009-1.362-1.83-2.563c0.173-1.169,0.956-1.895,2.517-1.902c2.736-0.013,5.478,0.055,8.204,0.248
		c4.052,0.286,8.093,0.709,12.136,1.068c0.498,0.044,0.998,0.02,1.495,0.055c0.912,0.066,1.901,0.059,2.296,1.117
		c0.362,0.975-0.425,1.477-0.95,2.113c-0.949,1.146-1.918,2.298-2.691,3.559c-0.899,1.468-0.47,2.487,1.001,3.242
		c2.347,1.208,4.7,2.404,6.971,3.74c1.346,0.793,2.709,1.226,4.248,1.131c4.488-0.281,8.949-0.347,13.344,0.916
		c0.838,0.241,1.811,0.031,2.72-0.017c1.491-0.078,2.98-0.191,4.472-0.287c1.704-0.108,3.283,0.242,4.771,1.12
		c0.778,0.459,1.632,0.83,2.501,1.089c1.612,0.489,3.074,0.351,4.28-1.075c0.854-1.007,1.96-1.797,2.818-2.797
		c0.964-1.125,2.13-1.499,3.536-1.435c2.152,0.101,2.987,0.878,3.139,3.032c0.086,1.239,0.03,2.495,0.175,3.726
		c0.239,1.972,0.883,2.588,2.856,2.807c1.567,0.176,3.144,0.275,4.716,0.387c1.692,0.116,3.267-0.24,4.809-1.002
		c0.856-0.424,1.905-0.748,2.84-0.689c6.044,0.39,12.076,0.882,18.112,1.39c0.719,0.06,1.495,0.293,2.096,0.677
		c1.808,1.163,1.663,3.772-0.3,4.646c-0.868,0.387-1.927,0.449-2.906,0.472c-2.649,0.06-5.306,0.021-7.962,0.021
		C381.328,187.587,381.328,187.444,381.328,187.303z M295,197.219c0.035,0,0.07,0,0.104,0c0-1.658,0.021-3.318-0.008-4.977
		c-0.029-1.576,0.012-3.168-0.199-4.721c-0.296-2.219-1.75-2.913-3.78-1.953c-0.224,0.106-0.431,0.249-0.646,0.378
		c-2.787,1.706-4.379,4.481-6.124,7.073c-0.414,0.613-0.321,1.816-0.045,2.602c0.789,2.254,1.892,4.399,2.681,6.649
		c0.971,2.782,2.926,4.571,5.412,5.885c1.643,0.869,2.467,0.39,2.623-1.49c0.075-0.902-0.014-1.823-0.018-2.734
		C294.996,201.694,295,199.457,295,197.219z M270.423,176.241c-0.438-0.386-0.78-0.869-1.249-1.073
		c-1.75-0.77-3.883,0.15-5.022,2.146c-0.223,0.391-0.44,1.104-0.249,1.339c0.301,0.372,1.059,0.766,1.426,0.626
		c1.532-0.575,3.005-1.326,4.467-2.065C270.042,177.088,270.148,176.688,270.423,176.241z M351.101,179.607
		c1.598-0.027,2.833-1.217,2.551-2.249c-0.127-0.467-0.82-1.013-1.325-1.099c-1.194-0.197-2.472,0.958-2.245,2.028
		C350.203,178.855,350.859,179.31,351.101,179.607z"/>
</g>
</svg>
