<?xml version="1.0" encoding="utf-8"?>
<!-- Generator: Adobe Illustrator 16.0.0, SVG Export Plug-In . SVG Version: 6.00 Build 0)  -->
<!DOCTYPE svg PUBLIC "-//W3C//DTD SVG 1.1//EN" "http://www.w3.org/Graphics/SVG/1.1/DTD/svg11.dtd">
<svg version="1.1" id="Layer_1" xmlns="http://www.w3.org/2000/svg" xmlns:xlink="http://www.w3.org/1999/xlink" x="0px" y="0px"
	 width="430.986px" height="566.213px" viewBox="0 0 430.986 566.213" enable-background="new 0 0 430.986 566.213"
	 xml:space="preserve">
<g>
	<g>
		<path fill="#FFFFFF" stroke="#424143" stroke-width="2.3951" stroke-miterlimit="10" d="M212.461,324.298
			c0,4.693-2.073,8.496-4.631,8.496h-105.4c-2.555,0-4.632-3.803-4.632-8.496V220.693c0-4.697,2.078-8.502,4.632-8.502h105.4
			c2.559,0,4.631,3.805,4.631,8.502V324.298z"/>
		<g>
			<path fill-rule="evenodd" clip-rule="evenodd" d="M166.521,283.007c1.252,0.945,2.204,1.665,3.159,2.386
				c-0.144,0.239-0.289,0.476-0.429,0.711c-0.807-0.119-1.611-0.235-2.642-0.387c0.563,2.862,0.593,5.671-3.111,6.106
				c-0.382,0.045-1.133-2.955-1.871-4.96c-0.471,0.218-1.249,0.573-2.024,0.929c0.369,0.614,0.769,1.213,1.096,1.845
				c0.346,0.676,0.626,1.382,0.933,2.067c-1.482,0.279-2.958,0.645-4.454,0.736c-0.193,0.01-0.685-1.377-0.653-2.105
				c0.024-0.618,0.742-1.179,0.884-1.823c0.111-0.488-0.053-1.19-0.373-1.563c-0.231-0.267-1.051-0.339-1.382-0.138
				c-0.399,0.244-0.762,0.857-0.786,1.328c-0.041,0.872,0.355,1.782,0.222,2.622c-0.098,0.618-0.758,1.138-1.167,1.702
				c-0.424-0.647-1.011-1.258-1.211-1.964c-0.135-0.484,0.529-1.204,0.369-1.662c-0.242-0.694-0.892-1.25-1.369-1.862
				c-0.324,0.231-0.649,0.467-0.969,0.703c0.364,0.723,0.894,1.416,1.044,2.187c0.124,0.617-0.205,1.318-0.335,1.985
				c-0.76-0.279-1.734-0.351-2.234-0.866c-1.368-1.4-2.675-2.91-3.717-4.547c-0.526-0.835-0.509-2.04-0.593-3.093
				c-0.093-1.164-0.022-2.337-0.022-4.342c-1.613,1.004-2.973,1.613-4.027,2.56c-3.211,2.875-4.404,2.986-7.71,0.285
				c-1.535-1.249-3.153-2.445-4.52-3.863c-1.902-1.974-1.857-4,0.389-5.55c2.056-1.423,2.738-2.912,1.989-5.227
				c-0.231-0.711-0.106-1.578,0.031-2.342c0.414-2.333-0.067-3.631-2.922-3.174c-0.57,0.094-1.415-0.946-1.984-1.59
				c-0.287-0.325-0.36-0.943-0.324-1.414c0.695-8.622,1.295-17.216,7.875-24.061c6.685-6.952,20.195-10,29.475-7.138
				c3.925,1.213,5.827,4.08,8.494,6.418c0.929,0.812,2.077,1.413,3.177,2.021c6.769,3.729,10.371,9.652,11.368,16.954
				c0.262,1.912-1.349,4.147-2.337,6.121c-0.96,1.896-2.636,3.52-3.269,5.484c-1.311,4.088-0.429,5.786,3.299,8.066
				c2.192,1.341,2.636,3.266,0.853,5.004c-2.099,2.057-4.395,3.937-6.708,5.764c-1.843,1.458-3.18-0.213-3.998-1.298
				c-1.604-2.119-2.898-2.409-4.772-0.408C168.653,282.265,167.578,282.494,166.521,283.007z M153.794,265.74
				c-0.189-1.285-0.333-2.119-0.428-2.968c-0.263-2.365-1.378-3.654-4.009-3.716c-3.751-0.093-7.256,0.365-10.64,2.209
				c-3.449,1.884-4.75,4.093-3.557,7.289c1.066,2.871,4.227,4.347,7.628,2.916C146.636,269.851,150.228,267.629,153.794,265.74z
				 M178.804,267.424c-0.231-0.164-0.46-0.332-0.693-0.501c0.233-2.729-1.019-4.814-3.631-5.281
				c-3.509-0.622-7.145-0.888-10.707-0.782c-4.095,0.13-4.553,1.022-3.74,4.991c0.158,0.764,0.251,1.546,0.349,2.329
				c0.382,3.093,1.544,3.617,4.583,2.871c1.546-0.378,3.348,0.245,5.035,0.409c1.774,0.177,3.889,1.017,5.229,0.355
				C176.779,271.047,177.642,268.949,178.804,267.424z M154.948,273.389c0.409-0.134,0.817-0.263,1.226-0.391
				c0.805,1.79,1.596,3.586,2.42,5.368c0.265,0.572,0.629,1.094,0.949,1.645c0.32-0.622,0.959-1.275,0.902-1.863
				c-0.142-1.435-0.479-2.888-0.971-4.257c-0.958-2.662-2.078-5.271-3.394-8.569c-0.764,2.36-0.96,4.268-1.916,5.667
				c-2.458,3.622-2.146,6.561,1.763,9.573C155.574,277.983,155.258,275.686,154.948,273.389z"/>
			<path fill-rule="evenodd" clip-rule="evenodd" d="M148.094,300.952c-7.311-3.227-13.648-6.333-20.246-8.773
				c-2.687-0.996-5.931-0.56-8.926-0.716c-3.387-0.164-4.227-1.72-2.564-4.537c1.054-1.769,1.6-3.866,2.831-5.48
				c0.747-0.972,2.382-1.791,3.6-1.769c1.091,0.014,3.022,1.192,3.104,1.996c0.496,4.92,4.635,5.786,8.046,7.328
				c6.062,2.742,12.424,4.897,18.289,7.982c3.72,1.955,6.19-0.329,8.919-1.324c7.186-2.623,14.282-5.547,21.201-8.786
				c1.918-0.895,3.438-3.13,4.523-5.081c1.046-1.888,2.297-2.964,4.364-3.008c2.022-0.036,3.089,1.089,3.942,2.955
				c0.727,1.591,2.315,2.805,3.827,4.523c-11.978,4.792-24.235,9.694-37.31,14.921c3.213,1.403,5.638,2.466,8.064,3.52
				c2.738,1.187,5.384,2.764,8.25,3.422c2.911,0.675,6.04,0.399,9.072,0.608c1.902,0.129,4.315-0.262,5.57,0.729
				c1.862,1.458,1.013,3.84,0.118,5.951c-0.539,1.275-0.765,2.866-0.529,4.213c0.347,1.973-0.706,2.946-2.155,2.586
				c-2.313-0.572-5.177-1.267-6.531-2.925c-4.762-5.825-11.917-7.452-17.993-10.989c-6.622-3.845-12.693-3.916-19.346-0.125
				c-4.369,2.492-9.311,4.005-13.899,6.143c-1,0.467-1.682,1.71-2.36,2.697c-0.66,0.955-0.984,2.777-1.707,2.911
				c-1.397,0.258-3.364,0.057-4.393-0.783c-2.062-1.693-3.414-3.978-6.275-5.025c-2.211-0.806-1.884-4.071,0.487-4.805
				c2.033-0.623,4.404-0.276,6.619-0.199c1.227,0.039,2.672,0.933,3.627,0.533C134.717,306.995,141.012,304.103,148.094,300.952z"/>
			<path fill-rule="evenodd" clip-rule="evenodd" fill="#FFFFFF" d="M153.794,265.74c-3.566,1.889-7.158,4.111-11.006,5.729
				c-3.402,1.432-6.562-0.045-7.628-2.916c-1.193-3.196,0.108-5.405,3.557-7.289c3.384-1.844,6.889-2.302,10.64-2.209
				c2.631,0.062,3.746,1.351,4.009,3.716C153.46,263.621,153.605,264.455,153.794,265.74z"/>
			<path fill-rule="evenodd" clip-rule="evenodd" fill="#FFFFFF" d="M178.804,267.424c-1.163,1.525-2.025,3.623-3.575,4.392
				c-1.34,0.661-3.455-0.179-5.229-0.355c-1.687-0.164-3.488-0.787-5.035-0.409c-3.038,0.746-4.2,0.223-4.583-2.871
				c-0.098-0.783-0.191-1.565-0.349-2.329c-0.813-3.969-0.355-4.861,3.74-4.991c3.562-0.106,7.197,0.16,10.707,0.782
				c2.613,0.467,3.864,2.552,3.631,5.281C178.344,267.092,178.573,267.26,178.804,267.424z"/>
			<path fill-rule="evenodd" clip-rule="evenodd" fill="#FFFFFF" d="M154.948,273.389c0.311,2.297,0.626,4.595,0.98,7.173
				c-3.909-3.013-4.22-5.951-1.763-9.573c0.956-1.399,1.152-3.307,1.916-5.667c1.315,3.298,2.436,5.907,3.394,8.569
				c0.493,1.369,0.829,2.822,0.971,4.257c0.057,0.588-0.582,1.241-0.902,1.863c-0.32-0.551-0.685-1.072-0.949-1.645
				c-0.824-1.782-1.615-3.578-2.42-5.368C155.765,273.126,155.356,273.255,154.948,273.389z"/>
		</g>
		<polygon fill="#414141" stroke="#424143" stroke-width="2.0905" stroke-miterlimit="10" points="162.592,499.179 149.419,499.179 
			152.596,332.794 160.449,332.794 		"/>
	</g>
	<path fill-rule="evenodd" clip-rule="evenodd" fill="#808080" stroke="#FFFFFF" stroke-width="1.6974" stroke-miterlimit="10" d="
		M349.299,445.866c-3.148-0.312-5.283-0.488-7.404-0.77c-0.363-0.049-0.828-0.493-0.968-0.858
		c-2.085-5.43-3.733-10.901-3.422-16.856c0.181-3.452-0.177-6.969-0.632-10.413c-0.942-7.088-1.96-14.177-3.24-21.217
		c-0.849-4.684-1.7-9.47-3.439-13.875c-3.472-8.776-7.556-17.319-11.969-25.785c0.385,1.333,0.616,2.729,1.176,3.987
		c2.851,6.448,3.086,13.265,3.07,20.122c-0.001,0.881-0.167,1.943-0.678,2.61c-2.82,3.701-3.64,8.074-4.557,12.431
		c-0.16,0.764-0.545,1.599-0.388,2.306c1.336,5.974,3.216,11.87,4.003,17.906c0.409,3.159-0.294,6.946-1.813,9.764
		c-3.216,5.969-3.558,9.93,0.202,15.346c3.246,4.675,1.622,7.577-5.021,8.596c0,1.4-0.251,2.894,0.051,4.267
		c0.636,2.893,1.444,5.444-0.794,8.351c-0.877,1.142,0.061,4.342,1.104,6.048c3.073,5.022,2.993,10.609,3.683,16.067
		c0.092,0.724-0.482,2.035-1.059,2.244c-3.646,1.328-7.407,2.355-11.079,3.626c-1.622,0.56-3.56,1.094-4.593,2.279
		c-3.645,4.187-7.908,6.955-13.601,7.428c-4.279,0.347-8.55,1.089-12.825,1.083c-2.64,0-6.411-0.039-6.96-3.23
		c-0.412-2.378,0.905-5.297,2.153-7.617c0.92-1.703,2.77-3.2,4.558-4.124c5.178-2.688,8.334-7.04,11.283-11.746
		c1.375-2.19,3.35-4.018,5.046-6.01c0.363-0.426,0.96-0.848,1.01-1.318c0.572-5.156,2.51-10.227,1.074-15.52
		c-0.561-2.081-1.97-2.499-3.956-2.378c-4.555,0.274-7.532-2.564-9.364-5.96c-1.887-3.497-0.769-7.413,1.261-10.742
		c0.689-1.129,2.311-1.716,3.997-2.884c0-5.454,0.059-11.364-0.045-17.267c-0.026-1.319-0.848-2.616-0.929-3.946
		c-0.199-3.413-0.351-6.844-0.229-10.257c0.47-13.027-1.402-25.59-7.353-37.999c1.293,16.058-9.614,22.928-19.427,24.817
		c-6.204,1.199-12.093-0.81-17.332-3.787c-4.748-2.701-8.944-6.352-13.582-9.729c0.049-0.071-0.288,0.334-0.478,0.791
		c-7.828,19.079-15.689,38.15-23.429,57.26c-1.66,4.104-2.667,8.462-4.37,12.543c-2.402,5.759-5.279,11.327-7.757,17.065
		c-2.725,6.292-5.463,12.595-7.689,19.062c-0.772,2.243-0.134,4.991,0.026,7.496c0.231,3.628,0.81,7.241,0.854,10.858
		c0.027,2.058,0.947,2.755,2.669,3.311c1.954,0.627,3.998,1.249,5.69,2.338c3.805,2.457,3.844,6.635-0.128,8.844
		c-3.179,1.765-6.722,3.302-10.285,3.912c-17.935,3.053-35.86,2.874-53.667-1.151c-0.673-0.152-1.344-0.347-1.981-0.604
		c-2.9-1.16-6.22-2.019-6.029-6.059c0.188-3.861,3.204-5.786,6.307-6.457c6.997-1.516,14.114-2.787,21.248-3.329
		c7.382-0.55,14.839-0.124,22.565-0.124c-2.162-2.048-2.668-7.662-0.809-9.911c0.664-0.8,2.38-0.759,3.613-1.102
		c0.401,0.28,0.797,0.552,1.198,0.827c1.697-6.294,3.318-12.609,5.122-18.87c1.351-4.689,2.213-9.703,4.549-13.894
		c8.413-15.098,15.497-30.75,21.726-46.807c3.344-8.612,6.584-17.261,9.931-25.87c1.347-3.471,3.175-6.791,4.204-10.338
		c1.134-3.915,1.591-8.018,2.369-12.035c0.19-0.982,0.484-1.946,0.733-2.915c0.392,0.022,0.787,0.04,1.178,0.062
		c0.191,1.213,0.378,2.431,0.655,4.209c2.763-6.733,5.363-13.018,7.917-19.315c3.814-9.412,7.338-18.955,11.524-28.212
		c1.636-3.618,1.765-6.76-0.065-10.423c-5.983-1.697-10.223-6.021-13.431-11.688c-1.641-2.888-1.503-5.119,1.119-7.19
		c0.902-0.71,1.691-1.596,2.667-2.182c3.396-2.039,5.82-4.746,6.988-8.573c0.453-1.483,1.444-2.813,2.311-4.439
		c-3.167-1.823-2.749-4.476-2.086-7.418c0.951-4.217,1.089-8.648,2.403-12.732c0.924-2.862,3.248-5.281,4.912-7.919
		c0.649-1.032,1.787-2.173,1.697-3.179c-0.472-5.23,0.347-9.963,3.907-14.111c0.659-0.769,0.915-2.124,0.87-3.19
		c-0.467-11.012,3.753-19.915,12.103-27.185c1.391-1.209,2.399-3.281,2.769-5.111c1.164-5.76,6.212-10.799,12.092-11.679
		c1.592-0.236,3.163-0.694,4.703-1.183c4.664-1.479,5.622-3.68,3.717-8.244c-1.659-3.974-3.282-7.965-5.123-12.444
		c-1.514,0.204-3.615,0.493-6.233,0.853c0.073-1.435,0.06-2.613,0.227-3.769c0.094-0.653,0.435-1.298,0.748-1.902
		c3.495-6.701,4.438-13.555,2.945-21.123c-1.385-7.008,0.87-9.618,8.073-12.578c9.714-3.991,19.623-4.302,29.681-1.556
		c4.939,1.352,5.58,2.564,5.779,7.449c0.295,7.155,0.824,14.301,1.474,21.43c0.125,1.36,1.077,2.765,1.955,3.92
		c3.356,4.421,3.351,11.266,0.156,15.724c-0.81,1.133-0.734,2.875-1.194,4.898c3.318-1.48,5.94-2.583,8.503-3.805
		c7.07-3.373,9.809-2.765,14.759,3.071c1.061,1.249,2.837,1.924,3.864,3.191c1.159,1.431,1.813,3.24,2.742,4.857
		c0.826,1.435,1.698,2.844,2.595,4.236c1.752,2.724,3.81,5.292,5.236,8.168c1.899,3.835,3.254,7.929,4.957,11.862
		c3.216,7.426,6.64,14.777,9.744,22.252c2.44,5.88,3.227,6.71,11.234,8.897c-6.182,6.217-1.91,12.894-0.426,19.013
		c1.631,6.729,1.847,13.274,1.324,19.968c-0.595,7.612-1.419,15.208-2.224,22.804c-0.607,5.746-0.716,11.621-5.143,16.311
		c-0.966,1.026-0.945,2.986-1.292,4.537c-0.506,2.258,0.177,4.725-3.328,5.902c-1.396,0.467-2.218,4.16-2.329,6.426
		c-0.331,6.717-5.809,8.849-10.39,11.512c-2.265,1.311-2.78,2.471-3.022,4.893c-0.671,6.773,0.876,12.996,3.099,19.306
		c0.84,2.373-0.019,5.337-0.196,8.03c-0.258,3.912-0.731,7.809-0.88,11.721c-0.185,4.772,0.279,9.306,4.133,13.025
		c1.128,1.089,1.134,3.405,1.444,5.19c1.204,6.942,2.287,13.897,3.488,20.84c0.512,2.938,0.312,5.498-3.132,6.955
		c0.811,0.72,1.457,1.285,2.091,1.863c5.268,4.781,5.642,7.212,1.907,13.234c-1.262,2.03-1.515,4.786-4.456,5.711
		c-0.555,0.173-0.846,1.813-0.888,2.791c-0.264,6.271-0.534,12.545-0.544,18.82c0,1.707,0.547,3.632,1.458,5.085
		c4.537,7.218,5.102,15.177,5.111,23.328c0.004,2.978-1.383,4.72-3.916,5.84c-5.385,2.391-11.093,2.427-16.786,1.857
		c-3.089-0.311-3.501-3.009-3.68-5.462c-0.517-7.151-0.795-14.319-1.444-21.457C351.583,466.984,350.379,456.318,349.299,445.866z
		 M249.49,314.173c-3.023,7.196-5.758,13.551-8.37,19.955c-3.618,8.871-6.847,17.907-10.833,26.604
		c-2.094,4.573-2.989,8.03,1.383,11.856c8.182,7.164,17.029,11.902,28.354,9.204c9.94-2.369,16.062-11.719,14.412-21.523
		c-1.099-6.542-4.622-11.866-8.897-16.72C258.152,335.169,252.465,325.924,249.49,314.173z M274.926,258.033
		c-0.481-0.213-0.961-0.422-1.444-0.635c-0.775,1.177-1.749,2.275-2.291,3.546c-4.247,9.979-8.421,19.981-12.595,29.989
		c-0.44,1.05-1.311,2.37-0.99,3.206c1.788,4.71-1.402,8.273-2.663,12.252c-0.277,0.867-1.097,1.946-1.902,2.195
		c-2.298,0.716-2.422,2.022-1.812,3.955c0.511,1.623,0.642,3.365,1.146,4.996c2.696,8.729,7.352,16.363,13.205,23.426
		c3.598,4.338,6.626,9.133,10.484,14.523c0-10.546,0-20.301,0-30.385c-0.52-0.817-1.352-2.125-2.223-3.494
		c-4.568,0.022-4.549,0.022-5.279-4.724c-0.485-3.146-1.058-6.284-1.556-9.426c-1.067-6.729-2.109-13.463-3.183-20.333
		c1.656-0.258,3-0.467,4.681-0.729C270.641,276.961,272.785,267.495,274.926,258.033z M134.664,506.503
		c9.931,4.125,40.056,3.871,44.292-0.244C173.136,501.37,141.948,501.438,134.664,506.503z M362.572,269.789
		c-0.196,0.013-0.396,0.03-0.592,0.049c0.403,4.279,0.812,8.555,1.317,13.875c0.983-1.169,1.788-1.72,1.717-2.107
		C364.284,277.65,363.408,273.722,362.572,269.789z M178.369,498.073c0.27-0.152,0.541-0.303,0.811-0.45c0-3.386,0-6.776,0-10.025
		c-0.79,2.472-1.785,4.938-2.275,7.502C176.738,495.97,177.847,497.077,178.369,498.073z"/>
</g>
</svg>
