<?xml version="1.0" encoding="utf-8"?>
<!-- Generator: Adobe Illustrator 16.0.0, SVG Export Plug-In . SVG Version: 6.00 Build 0)  -->
<!DOCTYPE svg PUBLIC "-//W3C//DTD SVG 1.1//EN" "http://www.w3.org/Graphics/SVG/1.1/DTD/svg11.dtd">
<svg version="1.1" id="Layer_1" xmlns="http://www.w3.org/2000/svg" xmlns:xlink="http://www.w3.org/1999/xlink" x="0px" y="0px"
	 width="483.802px" height="535.211px" viewBox="0 0 483.802 535.211" enable-background="new 0 0 483.802 535.211"
	 xml:space="preserve">
<path fill-rule="evenodd" clip-rule="evenodd" fill="#414141" stroke="#FFFFFF" stroke-width="2.3583" stroke-miterlimit="10" d="
	M264.833,96.717c2.568,0.396,5.137,0.797,7.905,1.226c0.417-2.096,1.783-2.458,4.13-2.105c3.227,0.472,6.57,0.12,9.849,0.333
	c1.837,0.12,3.723,0.451,5.442,1.078c2.629,0.946,4.303,0.534,5.767-2.075c3.57-6.365,9.183-10.009,16.366-11.195
	c1.041-0.173,2.186-0.235,3.198,0.011c4.837,1.175,9.698,2.31,14.445,3.793c3.24,1.009,5.571,3.346,6.397,6.746
	c0.781,3.212,1.29,6.497,1.907,9.748c0.091,0.477-0.05,1.081,0.188,1.436c3.264,4.771,2.085,9.917,1.077,14.93
	c-0.461,2.312-3.281,3.692-2.628,6.785c0.518,2.432,0.105,5.066,0.105,7.901c1.133-0.094,2.392-0.449,3.554-0.246
	c2.445,0.419,4.84,1.091,7.229,1.764c0.3,0.08,0.633,0.813,0.592,1.208c-0.313,2.843,1.492,3.577,3.736,4.321
	c1.497,0.493,3.243,1.431,4.002,2.694c1.092,1.817,2.616,2.062,4.303,2.513c2.57,0.682,5.136,1.433,7.611,2.384
	c0.499,0.193,0.541,1.46,0.905,2.172c0.751,1.469,1.216,3.597,2.437,4.233c7.146,3.71,12.031,9.442,15.146,16.623
	c3.148,7.267,6.151,14.634,8.557,22.168c1.365,4.289,1.358,9.009,2.047,13.528c0.154,1.003,0.407,2.127,0.988,2.923
	c7.057,9.603,8.674,20.584,8.113,32.083c-0.092,1.906-0.467,4.037-1.443,5.607c-1.283,2.062-1.296,3.713-0.074,5.627
	c5.014,7.857,3.461,15.494-0.981,22.905c-1.953,3.269-4.202,6.364-6.439,9.454c-1.64,2.268-2.754,4.419-1.024,7.213
	c1.121,1.81-0.129,2.786-1.803,3.052c-1.921,0.308-2.27,1.246-1.532,2.859c2.058,4.53,0.873,9.218,0.505,13.809
	c-0.302,3.729-3.855,6.671-7.614,7.082c-1.878,0.205-3.732,0.625-6.096,1.033c1.093,4.562,1.893,9.479,3.475,14.136
	c2.57,7.552,3.291,15.282,3.468,23.151c0.079,3.438-0.491,7.107,2.701,9.739c0.395,0.332,0.606,1.046,0.662,1.604
	c0.279,2.958,0.479,5.912,0.709,8.892c5.449,1.107,10.617,2.708,13.227,7.671c2.863,5.445,4.536,11.392,4.413,17.69
	c-0.144,7.243-0.246,14.491-0.368,21.733c2.613,2.84,1.708,7.466,6.653,9.573c6.554,2.798,12.701,7.133,14.303,15.2
	c0.756,3.779-2.034,11.202-5.321,13.623c-4.191,3.083-4.378,8.504,0.188,11.411c4.834,3.072,10.204,5.304,15.312,7.962
	c2.748,1.428,5.82,2.542,8.079,4.553c5.102,4.532,3.264,13.037-3.174,15.124c-6.973,2.258-13.963,3.234-21.319,0.785
	c-4.581-1.53-9.617-1.652-14.427-2.529c-10.344-1.893-10.044-1.265-10.466-11.722c-0.099-2.541,0.039-5.101,0.244-7.635
	c0.274-3.355,0.751-6.706-3.957-8.39c-0.904,0.469-2.432,1.621-4.141,2.04c-1.259,0.311-3.063,0.102-4.099-0.627
	c-5.634-3.944-10.65-8.405-13.538-15.006c-2.489-5.681-5.876-10.96-8.542-16.569c-3.062-6.454-5.587-13.162-8.677-19.604
	c-3.683-7.69-4.229-16.034-5.756-24.193c-0.753-4.024-1.688-8.018-2.658-11.994c-0.929-3.796-2.004-7.556-3.042-11.321
	c-0.26-0.94-0.451-1.99-1.006-2.746c-6.61-8.968-10.092-19.402-14.071-29.609c-1.083-2.775-2.317-5.49-4.118-8.128
	c-0.29,4.556-0.846,9.111-0.814,13.667c0.068,9.649-3.031,18.477-6.444,27.268c-1.495,3.843-3.089,7.652-4.374,11.568
	c-0.394,1.21,0.193,2.709,0.139,4.069c-0.468,12.144-0.241,24.38-1.762,36.394c-0.846,6.702-0.224,13.218-0.555,19.807
	c-0.194,3.882,0.027,7.842-3.098,10.935c-0.638,0.631-0.82,1.76-1.095,2.692c-2.966,9.995-6.218,13.76-15.971,18.224
	c0.34,2.727-0.367,5.145-1.828,7.865c-1.459,2.708-0.637,6.692-0.64,10.114c-0.001,2.411,0.432,4.818,0.406,7.223
	c-0.022,2.217-1.354,3.42-3.558,3.997c-5.756,1.507-11.385,3.84-17.221,4.609c-5.147,0.675-10.514-0.259-15.777-0.602
	c-1.911-0.125-2.356-1.44-1.941-3.186c0.443-1.86,0.481-3.9,1.313-5.555c0.777-1.553,2.171-3.549,3.624-3.871
	c5.398-1.204,7.457-5.568,10.082-9.486c0.59-0.887,1.146-1.799,1.873-2.945c-3.109-2.212-3.586-4.812-0.259-7.771
	c-1.847-0.685-3.244-1.024-4.473-1.684c-4.521-2.43-7.205-12.491-5.745-17.413c1.675-5.639,5.582-10.595,5.315-16.803
	c-0.058-1.377-0.274-2.9-0.926-4.072c-2.372-4.265-3.188-8.21-1.633-13.334c2.126-7.042,5.511-13.076,9.98-18.701
	c0.332-0.414,0.678-0.944,0.721-1.448c0.595-6.303,1.157-12.61,1.651-18.927c0.07-0.887,0.02-2.044-0.483-2.68
	c-1.652-2.091-1.697-4.293-0.979-6.663c0.401-1.312,0.799-2.622,1.206-3.929c0.646-2.068-0.1-3.561-1.069-5.544
	c-1.696-3.468-2.402-7.532-2.919-11.43c-0.58-4.357-0.757-8.812-0.587-13.205c0.131-3.364,1.104-6.694,1.668-10.043
	c0.733-4.348,1.386-8.705,2.181-13.037c0.364-1.995,0.438-3.774-0.177-5.864c-0.678-2.314-0.277-4.995-0.106-7.499
	c0.334-5.071,0.631-10.158,1.317-15.186c0.746-5.419,1.973-10.77,2.875-16.167c0.272-1.621,0.845-4.271,0.103-4.8
	c-3.123-2.222-1.711-4.895-1.271-7.39c0.489-2.781,1.179-5.577,2.228-8.183c0.525-1.306,2.102-2.163,3.084-3.321
	c0.78-0.918,2.039-2.103,1.893-2.961c-0.184-1.058-1.448-2.262-2.536-2.746c-1.672-0.746-3.516-2.499-5.446-0.308
	c-0.589,0.669-1.35,1.239-1.792,1.994c-0.389,0.661-0.442,1.518-0.642,2.29c-0.295-0.032-0.591-0.07-0.883-0.102
	c0-0.758,0.073-1.527-0.019-2.276c-0.189-1.554-0.552-3.087-0.68-4.645c-0.07-0.859-0.022-1.855,0.353-2.595
	c0.788-1.564,1.963-2.936,2.725-4.51c0.721-1.482,1.45-3.138-0.861-4.186c-0.423-0.197-0.725-1.14-0.724-1.732
	c0.025-3.402,0.162-6.799,0.277-10.523c-1.053,0.506-1.859,0.896-2.84,1.373c-0.812-0.857-1.597-1.689-2.298-2.427
	c0.121-0.425,0.126-0.73,0.228-0.768c6.803-2.469,3.474-8.561,4.575-13.017c1.131-4.564-0.746-7.637-4.646-10.566
	c-6.242-4.687-11.732-10.357-17.623-15.521c-2.345-2.054-4.916-3.85-7.377-5.773c-1.928-1.503-4.032-2.837-5.744-4.564
	c-7.509-7.584-14.965-15.224-22.313-22.964c-3.066-3.231-3.489-7.544-0.771-11.024c2.676-3.432,5.93-6.435,9.06-9.498
	c3.286-3.217,6.482-6.61,10.167-9.318c4.218-3.102,8.977-5.456,13.401-8.295c1.938-1.246,3.596-2.911,5.434-4.322
	c0.704-0.544,1.818-1.485,2.269-1.267c2.399,1.165,3.869-0.297,5.511-1.515c1.178-0.866,2.494-1.566,3.623-2.489
	c0.817-0.668,1.437-1.578,2.143-2.382C264.93,97.714,264.881,97.219,264.833,96.717z M251.842,139.417
	c2.285,1.213,4.57,2.392,6.814,3.646c0.763,0.421,1.39,1.091,2.146,1.532c0.544,0.32,1.2,0.628,1.804,0.633
	c6.379,0.044,12.759,0.028,19.307,0.028c0.126-0.327,0.271-0.783,0.458-1.216c1.073-2.492,0.397-6.126,4.438-6.718
	c0.259-0.039,0.457-1.001,0.544-1.555c0.276-1.84,0.382-3.712,0.778-5.524c0.17-0.781,0.884-1.447,1.352-2.16
	c0.244,0.748,0.711,1.51,0.688,2.256c-0.049,1.559-0.416,3.102-0.54,4.666c-0.151,1.896,0.838,3.024,2.699,2.67
	c1.476-0.284,2.112-0.091,2.586,1.406c0.157,0.491,1.451,0.845,2.234,0.869c1.027,0.027,2.072-0.311,3.109-0.521
	c1.547-0.315,3.093-0.659,4.373-0.928c-1.799-3.813-3.448-7.173-4.972-10.594c-0.673-1.518-1.047-3.167-1.659-4.71
	c-0.234-0.583-0.771-1.49-1.172-1.495c-4.617-0.021-6.655-3.167-8.254-6.828c-2.823,0-5.49,0.023-8.16-0.004
	c-1.725-0.021-3.817,0.488-5.104-0.3c-3.332-2.029-5.559-0.608-7.973,1.46c-2.062,1.762-3.739,3.39-3.217,6.593
	c0.317,1.935,0.426,4.67-2.411,5.306c-4.556,1.027-8.448,2.516-8.727,8.104C252.946,136.875,252.444,137.692,251.842,139.417z
	 M370.632,256.064c-0.366-6.171-0.729-12.177-1.078-18.025c-1.572,0.537-2.484,1.792-2.135,4.185c0.38,2.577,0.896,5.4,0.228,7.805
	C366.71,253.394,368.466,254.594,370.632,256.064z"/>
</svg>
